999
dxfrw 0.5.11
0
SECTION
2
HEADER
9
$ACADVER
1
AC1021
9
$HANDSEED
5
20000
9
$DWGCODEPAGE
3
ANSI_1252
9
$INSBASE
10
0
20
0
30
0
9
$EXTMIN
10
-235.625
20
-3706.25
30
0
9
$EXTMAX
10
5984.2
20
1955.625
30
0
9
$LIMMIN
10
0
20
0
9
$LIMMAX
10
420
20
297
9
$ORTHOMODE
70
0
9
$LTSCALE
40
1
9
$TEXTSTYLE
7
STANDARD
9
$CLAYER
8
dimensions
9
$DIMASZ
40
2.5
9
$DIMLFAC
40
1
9
$DIMSCALE
40
5
9
$DIMEXO
40
0.625
9
$DIMEXE
40
1.25
9
$DIMTXT
40
2.5
9
$DIMTSZ
40
0
9
$DIMAUNIT
70
0
9
$DIMADEC
70
2
9
$DIMLUNIT
70
2
9
$DIMSTYLE
2
Standard
9
$DIMGAP
40
0.625
9
$DIMTIH
70
0
9
$LUNITS
70
2
9
$LUPREC
70
4
9
$AUNITS
70
0
9
$AUPREC
70
2
9
$SPLINESEGS
70
8
9
$GRIDMODE
70
1
9
$SNAPSTYLE
70
0
9
$GRIDUNIT
10
0
20
0
9
$PINSBASE
10
-91.0045294674
20
23.61917777
30
0
9
$PLIMMIN
10
0
20
0
9
$PLIMMAX
10
210
20
297
9
$INSUNITS
70
4
9
$PSVPSCALE
40
0.142857142857
0
ENDSEC
0
SECTION
2
CLASSES
0
ENDSEC
0
SECTION
2
TABLES
0
TABLE
2
VPORT
5
8
330
0
100
AcDbSymbolTable
70
1
0
VPORT
5
31
330
2
100
AcDbSymbolTableRecord
100
AcDbViewportTableRecord
2
*ACTIVE
70
0
10
0
20
0
11
1
21
1
12
-414.655000003
22
-106.402037737
13
0
23
0
14
10
24
10
15
10
25
10
16
0
26
0
36
1
17
0
27
0
37
0
40
172.120943398
41
1.90909090909
42
50
43
0
44
0
50
0
51
0
71
0
72
100
73
1
74
3
75
0
76
1
77
0
78
0
281
0
65
1
110
0
120
0
130
0
111
1
121
0
131
0
112
0
122
1
132
0
79
0
146
0
348
10020
60
7
61
5
292
1
282
1
141
0
142
0
63
250
421
3358443
0
ENDTAB
0
TABLE
2
LTYPE
5
5
330
0
100
AcDbSymbolTable
70
4
0
LTYPE
5
14
330
5
100
AcDbSymbolTableRecord
100
AcDbLinetypeTableRecord
2
ByBlock
70
0
3

72
65
73
0
40
0
0
LTYPE
5
15
330
5
100
AcDbSymbolTableRecord
100
AcDbLinetypeTableRecord
2
ByLayer
70
0
3

72
65
73
0
40
0
0
LTYPE
5
16
330
5
100
AcDbSymbolTableRecord
100
AcDbLinetypeTableRecord
2
Continuous
70
0
3
Solid line
72
65
73
0
40
0
0
LTYPE
5
32
330
5
100
AcDbSymbolTableRecord
100
AcDbLinetypeTableRecord
2
DOT
70
0
3
Dot . . . . . . . . . . . . . . . . . . . . . .
72
65
73
2
40
6.35
49
0
74
0
49
-6.35
74
0
0
LTYPE
5
33
330
5
100
AcDbSymbolTableRecord
100
AcDbLinetypeTableRecord
2
DOT2
70
0
3
Dot (.5x) .....................................
72
65
73
2
40
3.175
49
0
74
0
49
-3.175
74
0
0
LTYPE
5
34
330
5
100
AcDbSymbolTableRecord
100
AcDbLinetypeTableRecord
2
DOTX2
70
0
3
Dot (2x) .  .  .  .  .  .  .  .  .  .  .  .  .
72
65
73
2
40
12.7
49
0
74
0
49
-12.7
74
0
0
LTYPE
5
35
330
5
100
AcDbSymbolTableRecord
100
AcDbLinetypeTableRecord
2
DASHED
70
0
3
Dot . . . . . . . . . . . . . . . . . . . . . .
72
65
73
2
40
19.05
49
12.7
74
0
49
-6.35
74
0
0
LTYPE
5
36
330
5
100
AcDbSymbolTableRecord
100
AcDbLinetypeTableRecord
2
DASHED2
70
0
3
Dashed (.5x) _ _ _ _ _ _ _ _ _ _ _ _ _ _ _ _ _
72
65
73
2
40
9.525
49
6.35
74
0
49
-3.175
74
0
0
LTYPE
5
37
330
5
100
AcDbSymbolTableRecord
100
AcDbLinetypeTableRecord
2
DASHEDX2
70
0
3
Dashed (2x) ____  ____  ____  ____  ____  ___
72
65
73
2
40
38.1
49
25.4
74
0
49
-12.7
74
0
0
LTYPE
5
38
330
5
100
AcDbSymbolTableRecord
100
AcDbLinetypeTableRecord
2
DASHDOT
70
0
3
Dash dot __ . __ . __ . __ . __ . __ . __ . __
72
65
73
4
40
25.4
49
12.7
74
0
49
-6.35
74
0
49
0
74
0
49
-6.35
74
0
0
LTYPE
5
39
330
5
100
AcDbSymbolTableRecord
100
AcDbLinetypeTableRecord
2
DASHDOT2
70
0
3
Dash dot (.5x) _._._._._._._._._._._._._._._.
72
65
73
4
40
12.7
49
6.35
74
0
49
-3.175
74
0
49
0
74
0
49
-3.175
74
0
0
LTYPE
5
3A
330
5
100
AcDbSymbolTableRecord
100
AcDbLinetypeTableRecord
2
DASHDOTX2
70
0
3
Dash dot (2x) ____  .  ____  .  ____  .  ___
72
65
73
4
40
50.8
49
25.4
74
0
49
-12.7
74
0
49
0
74
0
49
-12.7
74
0
0
LTYPE
5
3B
330
5
100
AcDbSymbolTableRecord
100
AcDbLinetypeTableRecord
2
DIVIDE
70
0
3
Divide ____ . . ____ . . ____ . . ____ . . ____
72
65
73
6
40
31.75
49
12.7
74
0
49
-6.35
74
0
49
0
74
0
49
-6.35
74
0
49
0
74
0
49
-6.35
74
0
0
LTYPE
5
3C
330
5
100
AcDbSymbolTableRecord
100
AcDbLinetypeTableRecord
2
DIVIDE2
70
0
3
Divide (.5x) __..__..__..__..__..__..__..__.._
72
65
73
6
40
15.875
49
6.35
74
0
49
-3.175
74
0
49
0
74
0
49
-3.175
74
0
49
0
74
0
49
-3.175
74
0
0
LTYPE
5
3D
330
5
100
AcDbSymbolTableRecord
100
AcDbLinetypeTableRecord
2
DIVIDEX2
70
0
3
Divide (2x) ________  .  .  ________  .  .  _
72
65
73
6
40
63.5
49
25.4
74
0
49
-12.7
74
0
49
0
74
0
49
-12.7
74
0
49
0
74
0
49
-12.7
74
0
0
LTYPE
5
3E
330
5
100
AcDbSymbolTableRecord
100
AcDbLinetypeTableRecord
2
BORDER
70
0
3
Border __ __ . __ __ . __ __ . __ __ . __ __ .
72
65
73
6
40
44.45
49
12.7
74
0
49
-6.35
74
0
49
12.7
74
0
49
-6.35
74
0
49
0
74
0
49
-6.35
74
0
0
LTYPE
5
3F
330
5
100
AcDbSymbolTableRecord
100
AcDbLinetypeTableRecord
2
BORDER2
70
0
3
Border (.5x) __.__.__.__.__.__.__.__.__.__.__.
72
65
73
6
40
22.225
49
6.35
74
0
49
-3.175
74
0
49
6.35
74
0
49
-3.175
74
0
49
0
74
0
49
-3.175
74
0
0
LTYPE
5
40
330
5
100
AcDbSymbolTableRecord
100
AcDbLinetypeTableRecord
2
BORDERX2
70
0
3
Border (2x) ____  ____  .  ____  ____  .  ___
72
65
73
6
40
88.9
49
25.4
74
0
49
-12.7
74
0
49
25.4
74
0
49
-12.7
74
0
49
0
74
0
49
-12.7
74
0
0
LTYPE
5
41
330
5
100
AcDbSymbolTableRecord
100
AcDbLinetypeTableRecord
2
CENTER
70
0
3
Center ____ _ ____ _ ____ _ ____ _ ____ _ ____
72
65
73
4
40
50.8
49
31.75
74
0
49
-6.35
74
0
49
6.35
74
0
49
-6.35
74
0
0
LTYPE
5
42
330
5
100
AcDbSymbolTableRecord
100
AcDbLinetypeTableRecord
2
CENTER2
70
0
3
Center (.5x) ___ _ ___ _ ___ _ ___ _ ___ _ ___
72
65
73
4
40
28.575
49
19.05
74
0
49
-3.175
74
0
49
3.175
74
0
49
-3.175
74
0
0
LTYPE
5
43
330
5
100
AcDbSymbolTableRecord
100
AcDbLinetypeTableRecord
2
CENTERX2
70
0
3
Center (2x) ________  __  ________  __  _____
72
65
73
4
40
101.6
49
63.5
74
0
49
-12.7
74
0
49
12.7
74
0
49
-12.7
74
0
0
ENDTAB
0
TABLE
2
LAYER
5
2
330
0
100
AcDbSymbolTable
70
1
0
LAYER
5
10
330
2
100
AcDbSymbolTableRecord
100
AcDbLayerTableRecord
2
0
70
1
62
7
6
CONTINUOUS
370
0
390
F
0
LAYER
5
44
330
2
100
AcDbSymbolTableRecord
100
AcDbLayerTableRecord
2
construction
70
1
62
3
6
CONTINUOUS
370
13
390
F
0
LAYER
5
45
330
2
100
AcDbSymbolTableRecord
100
AcDbLayerTableRecord
2
curves_inner
70
0
62
96
420
32768
6
CONTINUOUS
370
25
390
F
0
LAYER
5
46
330
2
100
AcDbSymbolTableRecord
100
AcDbLayerTableRecord
2
curves_outer
70
0
62
96
420
32768
6
CONTINUOUS
370
25
390
F
0
LAYER
5
47
330
2
100
AcDbSymbolTableRecord
100
AcDbLayerTableRecord
2
dimensions
70
0
62
6
6
CONTINUOUS
370
18
390
F
0
LAYER
5
48
330
2
100
AcDbSymbolTableRecord
100
AcDbLayerTableRecord
2
glass
70
0
62
176
420
128
6
CONTINUOUS
370
13
390
F
0
LAYER
5
49
330
2
100
AcDbSymbolTableRecord
100
AcDbLayerTableRecord
2
text
70
0
62
96
420
32768
6
CONTINUOUS
370
25
390
F
0
LAYER
5
4A
330
2
100
AcDbSymbolTableRecord
100
AcDbLayerTableRecord
2
wood
70
0
62
7
6
CONTINUOUS
370
25
390
F
0
LAYER
5
4B
330
2
100
AcDbSymbolTableRecord
100
AcDbLayerTableRecord
2
wood_inner
70
0
62
4
6
CONTINUOUS
370
13
390
F
0
ENDTAB
0
TABLE
2
STYLE
5
3
330
0
100
AcDbSymbolTable
70
3
0
STYLE
5
4C
330
2
100
AcDbSymbolTableRecord
100
AcDbTextStyleTableRecord
2
standard
70
0
40
0
41
1
50
0
71
0
42
1
3
standard
4

0
ENDTAB
0
TABLE
2
VIEW
5
6
330
0
100
AcDbSymbolTable
70
0
0
ENDTAB
0
TABLE
2
UCS
5
7
330
0
100
AcDbSymbolTable
70
0
0
ENDTAB
0
TABLE
2
APPID
5
9
330
0
100
AcDbSymbolTable
70
1
0
APPID
5
12
330
9
100
AcDbSymbolTableRecord
100
AcDbRegAppTableRecord
2
ACAD
70
0
0
ENDTAB
0
TABLE
2
DIMSTYLE
5
A
330
0
100
AcDbSymbolTable
70
1
100
AcDbDimStyleTable
71
1
0
DIMSTYLE
105
4D
330
A
100
AcDbSymbolTableRecord
100
AcDbDimStyleTableRecord
2
Standard
70
0
40
1
41
2.5
42
0.625
43
0.38
44
1.25
45
0
46
0
47
0
48
0
140
2.5
141
0.09
142
0
143
25.4
144
1
145
0
146
1
147
0.625
148
0
71
0
72
0
73
0
74
1
75
0
76
0
77
0
78
0
79
0
170
0
171
2
172
0
173
0
174
0
175
0
176
0
177
0
178
0
179
0
271
4
272
4
273
2
274
2
275
0
276
0
277
2
278
46
279
0
280
0
281
0
282
0
283
1
284
0
285
0
286
0
288
0
289
3
340
Standard
341

371
-2
372
-2
0
ENDTAB
0
TABLE
2
BLOCK_RECORD
5
1
330
0
100
AcDbSymbolTable
70
2
0
BLOCK_RECORD
5
1F
330
1
100
AcDbSymbolTableRecord
100
AcDbBlockTableRecord
2
*Model_Space
70
0
280
1
281
0
0
BLOCK_RECORD
5
1E
330
1
100
AcDbSymbolTableRecord
100
AcDbBlockTableRecord
2
*Paper_Space
70
0
280
1
281
0
0
BLOCK_RECORD
5
4E
330
1
100
AcDbSymbolTableRecord
100
AcDbBlockTableRecord
2
*D18
70
0
280
1
281
0
0
BLOCK_RECORD
5
51
330
1
100
AcDbSymbolTableRecord
100
AcDbBlockTableRecord
2
*D27
70
0
280
1
281
0
0
BLOCK_RECORD
5
54
330
1
100
AcDbSymbolTableRecord
100
AcDbBlockTableRecord
2
*D7
70
0
280
1
281
0
0
BLOCK_RECORD
5
57
330
1
100
AcDbSymbolTableRecord
100
AcDbBlockTableRecord
2
*D32
70
0
280
1
281
0
0
BLOCK_RECORD
5
5A
330
1
100
AcDbSymbolTableRecord
100
AcDbBlockTableRecord
2
*D17
70
0
280
1
281
0
0
BLOCK_RECORD
5
5D
330
1
100
AcDbSymbolTableRecord
100
AcDbBlockTableRecord
2
*D14
70
0
280
1
281
0
0
BLOCK_RECORD
5
60
330
1
100
AcDbSymbolTableRecord
100
AcDbBlockTableRecord
2
*D35
70
0
280
1
281
0
0
BLOCK_RECORD
5
63
330
1
100
AcDbSymbolTableRecord
100
AcDbBlockTableRecord
2
*D3
70
0
280
1
281
0
0
BLOCK_RECORD
5
66
330
1
100
AcDbSymbolTableRecord
100
AcDbBlockTableRecord
2
*D1
70
0
280
1
281
0
0
BLOCK_RECORD
5
69
330
1
100
AcDbSymbolTableRecord
100
AcDbBlockTableRecord
2
*D8
70
0
280
1
281
0
0
BLOCK_RECORD
5
6C
330
1
100
AcDbSymbolTableRecord
100
AcDbBlockTableRecord
2
*D4
70
0
280
1
281
0
0
BLOCK_RECORD
5
6F
330
1
100
AcDbSymbolTableRecord
100
AcDbBlockTableRecord
2
*D21
70
0
280
1
281
0
0
BLOCK_RECORD
5
72
330
1
100
AcDbSymbolTableRecord
100
AcDbBlockTableRecord
2
*D38
70
0
280
1
281
0
0
BLOCK_RECORD
5
75
330
1
100
AcDbSymbolTableRecord
100
AcDbBlockTableRecord
2
*D29
70
0
280
1
281
0
0
BLOCK_RECORD
5
78
330
1
100
AcDbSymbolTableRecord
100
AcDbBlockTableRecord
2
*D37
70
0
280
1
281
0
0
BLOCK_RECORD
5
7B
330
1
100
AcDbSymbolTableRecord
100
AcDbBlockTableRecord
2
*D41
70
0
280
1
281
0
0
BLOCK_RECORD
5
7E
330
1
100
AcDbSymbolTableRecord
100
AcDbBlockTableRecord
2
*D47
70
0
280
1
281
0
0
BLOCK_RECORD
5
81
330
1
100
AcDbSymbolTableRecord
100
AcDbBlockTableRecord
2
*D42
70
0
280
1
281
0
0
BLOCK_RECORD
5
84
330
1
100
AcDbSymbolTableRecord
100
AcDbBlockTableRecord
2
*D20
70
0
280
1
281
0
0
BLOCK_RECORD
5
87
330
1
100
AcDbSymbolTableRecord
100
AcDbBlockTableRecord
2
*D36
70
0
280
1
281
0
0
BLOCK_RECORD
5
8A
330
1
100
AcDbSymbolTableRecord
100
AcDbBlockTableRecord
2
*D24
70
0
280
1
281
0
0
BLOCK_RECORD
5
8D
330
1
100
AcDbSymbolTableRecord
100
AcDbBlockTableRecord
2
*D39
70
0
280
1
281
0
0
BLOCK_RECORD
5
90
330
1
100
AcDbSymbolTableRecord
100
AcDbBlockTableRecord
2
*D16
70
0
280
1
281
0
0
BLOCK_RECORD
5
93
330
1
100
AcDbSymbolTableRecord
100
AcDbBlockTableRecord
2
*D46
70
0
280
1
281
0
0
BLOCK_RECORD
5
96
330
1
100
AcDbSymbolTableRecord
100
AcDbBlockTableRecord
2
*D25
70
0
280
1
281
0
0
BLOCK_RECORD
5
99
330
1
100
AcDbSymbolTableRecord
100
AcDbBlockTableRecord
2
*D28
70
0
280
1
281
0
0
BLOCK_RECORD
5
9C
330
1
100
AcDbSymbolTableRecord
100
AcDbBlockTableRecord
2
*D44
70
0
280
1
281
0
0
BLOCK_RECORD
5
9F
330
1
100
AcDbSymbolTableRecord
100
AcDbBlockTableRecord
2
*D19
70
0
280
1
281
0
0
BLOCK_RECORD
5
A2
330
1
100
AcDbSymbolTableRecord
100
AcDbBlockTableRecord
2
*D10
70
0
280
1
281
0
0
BLOCK_RECORD
5
A5
330
1
100
AcDbSymbolTableRecord
100
AcDbBlockTableRecord
2
*D31
70
0
280
1
281
0
0
BLOCK_RECORD
5
A8
330
1
100
AcDbSymbolTableRecord
100
AcDbBlockTableRecord
2
*D30
70
0
280
1
281
0
0
BLOCK_RECORD
5
AB
330
1
100
AcDbSymbolTableRecord
100
AcDbBlockTableRecord
2
*D48
70
0
280
1
281
0
0
BLOCK_RECORD
5
AE
330
1
100
AcDbSymbolTableRecord
100
AcDbBlockTableRecord
2
*D26
70
0
280
1
281
0
0
BLOCK_RECORD
5
B1
330
1
100
AcDbSymbolTableRecord
100
AcDbBlockTableRecord
2
*D23
70
0
280
1
281
0
0
BLOCK_RECORD
5
B4
330
1
100
AcDbSymbolTableRecord
100
AcDbBlockTableRecord
2
*D45
70
0
280
1
281
0
0
BLOCK_RECORD
5
B7
330
1
100
AcDbSymbolTableRecord
100
AcDbBlockTableRecord
2
*D22
70
0
280
1
281
0
0
BLOCK_RECORD
5
BA
330
1
100
AcDbSymbolTableRecord
100
AcDbBlockTableRecord
2
*D12
70
0
280
1
281
0
0
BLOCK_RECORD
5
BD
330
1
100
AcDbSymbolTableRecord
100
AcDbBlockTableRecord
2
*D33
70
0
280
1
281
0
0
BLOCK_RECORD
5
C0
330
1
100
AcDbSymbolTableRecord
100
AcDbBlockTableRecord
2
*D6
70
0
280
1
281
0
0
BLOCK_RECORD
5
C3
330
1
100
AcDbSymbolTableRecord
100
AcDbBlockTableRecord
2
*D13
70
0
280
1
281
0
0
BLOCK_RECORD
5
C6
330
1
100
AcDbSymbolTableRecord
100
AcDbBlockTableRecord
2
*D5
70
0
280
1
281
0
0
BLOCK_RECORD
5
C9
330
1
100
AcDbSymbolTableRecord
100
AcDbBlockTableRecord
2
*D40
70
0
280
1
281
0
0
BLOCK_RECORD
5
CC
330
1
100
AcDbSymbolTableRecord
100
AcDbBlockTableRecord
2
*D43
70
0
280
1
281
0
0
BLOCK_RECORD
5
CF
330
1
100
AcDbSymbolTableRecord
100
AcDbBlockTableRecord
2
*D34
70
0
280
1
281
0
0
BLOCK_RECORD
5
D2
330
1
100
AcDbSymbolTableRecord
100
AcDbBlockTableRecord
2
*D49
70
0
280
1
281
0
0
BLOCK_RECORD
5
D5
330
1
100
AcDbSymbolTableRecord
100
AcDbBlockTableRecord
2
*D9
70
0
280
1
281
0
0
BLOCK_RECORD
5
D8
330
1
100
AcDbSymbolTableRecord
100
AcDbBlockTableRecord
2
*D2
70
0
280
1
281
0
0
BLOCK_RECORD
5
DB
330
1
100
AcDbSymbolTableRecord
100
AcDbBlockTableRecord
2
*D15
70
0
280
1
281
0
0
BLOCK_RECORD
5
DE
330
1
100
AcDbSymbolTableRecord
100
AcDbBlockTableRecord
2
*D11
70
0
280
1
281
0
0
ENDTAB
0
ENDSEC
0
SECTION
2
BLOCKS
0
BLOCK
5
20
330
1F
100
AcDbEntity
8
0
100
AcDbBlockBegin
2
*Model_Space
70
0
10
0
20
0
30
0
3
*Model_Space
1

0
ENDBLK
5
21
330
1F
100
AcDbEntity
8
0
100
AcDbBlockEnd
0
BLOCK
5
1C
330
1B
100
AcDbEntity
8
0
100
AcDbBlockBegin
2
*Paper_Space
70
0
10
0
20
0
30
0
3
*Paper_Space
1

0
ENDBLK
5
1D
330
1F
100
AcDbEntity
8
0
100
AcDbBlockEnd
0
BLOCK
5
4F
330
4E
100
AcDbEntity
8
0
100
AcDbBlockBegin
2
*D18
70
1
10
0
20
0
3
*D18
1

0
LINE
5
E1
100
AcDbEntity
8
dimensions
6
CONTINUOUS
62
7
370
0
100
AcDbLine
10
695.09
20
-200
11
752.202
21
-200
0
SOLID
5
E2
100
AcDbEntity
8
dimensions
6
CONTINUOUS
62
7
370
0
100
AcDbTrace
10
720.09
20
-200
30
0
11
707.59
21
-202.081423289
31
0
12
707.59
22
-197.918576711
32
0
13
707.59
23
-197.918576711
33
0
0
SOLID
5
E3
100
AcDbEntity
8
dimensions
6
CONTINUOUS
62
7
370
0
100
AcDbTrace
10
727.202
20
-200
30
0
11
739.702
21
-197.918576711
31
0
12
739.702
22
-202.081423289
32
0
13
739.702
23
-202.081423289
33
0
0
MTEXT
5
E4
100
AcDbEntity
8
dimensions
6
CONTINUOUS
62
7
370
0
100
AcDbMText
10
746.993666667
20
-190.625
30
0
40
12.5
41
33.3333333333
71
5
72
1
1
7.112
7
standard
210
0
220
0
230
1
50
0
73
2
44
1
0
LINE
5
E5
100
AcDbEntity
8
dimensions
6
CONTINUOUS
62
7
370
0
100
AcDbLine
10
720.09
20
884.605
11
720.09
21
-206.25
0
LINE
5
E6
100
AcDbEntity
8
dimensions
6
CONTINUOUS
62
7
370
0
100
AcDbLine
10
727.202
20
916.355
11
727.202
21
-206.25
0
ENDBLK
5
50
330
4E
100
AcDbEntity
8
0
100
AcDbBlockEnd
0
BLOCK
5
52
330
51
100
AcDbEntity
8
0
100
AcDbBlockBegin
2
*D27
70
1
10
0
20
0
3
*D27
1

0
LINE
5
E7
100
AcDbEntity
8
dimensions
6
CONTINUOUS
62
7
370
0
100
AcDbLine
10
-180
20
0
11
-180
21
1082.01295578
0
SOLID
5
E8
100
AcDbEntity
8
dimensions
6
CONTINUOUS
62
7
370
0
100
AcDbTrace
10
-180
20
0
30
0
11
-182.081423289
21
12.5
31
0
12
-177.918576711
22
12.5
32
0
13
-177.918576711
23
12.5
33
0
0
SOLID
5
E9
100
AcDbEntity
8
dimensions
6
CONTINUOUS
62
7
370
0
100
AcDbTrace
10
-180
20
1082.01295578
30
0
11
-177.918576711
21
1069.51295578
31
0
12
-182.081423289
22
1069.51295578
32
0
13
-182.081423289
23
1069.51295578
33
0
0
MTEXT
5
EA
100
AcDbEntity
8
dimensions
6
CONTINUOUS
62
7
370
0
100
AcDbMText
10
-189.375
20
541.006477888
30
0
40
12.5
41
62.5
71
5
72
1
1
1082.013
7
standard
210
0
220
0
230
1
50
90
73
2
44
1
0
LINE
5
EB
100
AcDbEntity
8
dimensions
6
CONTINUOUS
62
7
370
0
100
AcDbLine
10
-3.125
20
3.82689485569e-16
11
-186.25
21
7.65378971139e-16
0
LINE
5
EC
100
AcDbEntity
8
dimensions
6
CONTINUOUS
62
7
370
0
100
AcDbLine
10
563.725300941
20
1082.01295578
11
-186.25
21
1082.01295578
0
ENDBLK
5
53
330
51
100
AcDbEntity
8
0
100
AcDbBlockEnd
0
BLOCK
5
55
330
54
100
AcDbEntity
8
0
100
AcDbBlockBegin
2
*D7
70
1
10
0
20
0
3
*D7
1

0
LINE
5
ED
100
AcDbEntity
8
dimensions
6
CONTINUOUS
62
7
370
0
100
AcDbLine
10
830
20
919.48
11
830
21
1027.43922347
0
SOLID
5
EE
100
AcDbEntity
8
dimensions
6
CONTINUOUS
62
7
370
0
100
AcDbTrace
10
830
20
919.48
30
0
11
827.918576711
21
931.98
31
0
12
832.081423289
22
931.98
32
0
13
832.081423289
23
931.98
33
0
0
SOLID
5
EF
100
AcDbEntity
8
dimensions
6
CONTINUOUS
62
7
370
0
100
AcDbTrace
10
830
20
1027.43922347
30
0
11
832.081423289
21
1014.93922347
31
0
12
827.918576711
22
1014.93922347
32
0
13
827.918576711
23
1014.93922347
33
0
0
MTEXT
5
F0
100
AcDbEntity
8
dimensions
6
CONTINUOUS
62
7
370
0
100
AcDbMText
10
820.625
20
973.459611735
30
0
40
12.5
41
65.2777777778
71
5
72
1
1
107.9592
7
standard
210
0
220
0
230
1
50
90
73
2
44
1
0
LINE
5
F1
100
AcDbEntity
8
dimensions
6
CONTINUOUS
62
7
370
0
100
AcDbLine
10
730.327
20
919.48
11
836.25
21
919.48
0
LINE
5
F2
100
AcDbEntity
8
dimensions
6
CONTINUOUS
62
7
370
0
100
AcDbLine
10
730.327
20
1027.43922347
11
836.25
21
1027.43922347
0
ENDBLK
5
56
330
54
100
AcDbEntity
8
0
100
AcDbBlockEnd
0
BLOCK
5
58
330
57
100
AcDbEntity
8
0
100
AcDbBlockBegin
2
*D32
70
1
10
0
20
0
3
*D32
1

0
LINE
5
F3
100
AcDbEntity
8
dimensions
6
CONTINUOUS
62
7
370
0
100
AcDbLine
10
-100
20
-1506.115
11
-100
21
-1342.746
0
SOLID
5
F4
100
AcDbEntity
8
dimensions
6
CONTINUOUS
62
7
370
0
100
AcDbTrace
10
-100
20
-1506.115
30
0
11
-102.081423289
21
-1493.615
31
0
12
-97.9185767111
22
-1493.615
32
0
13
-97.9185767111
23
-1493.615
33
0
0
SOLID
5
F5
100
AcDbEntity
8
dimensions
6
CONTINUOUS
62
7
370
0
100
AcDbTrace
10
-100
20
-1342.746
30
0
11
-97.9185767111
21
-1355.246
31
0
12
-102.081423289
22
-1355.246
32
0
13
-102.081423289
23
-1355.246
33
0
0
MTEXT
5
F6
100
AcDbEntity
8
dimensions
6
CONTINUOUS
62
7
370
0
100
AcDbMText
10
-109.375
20
-1424.4305
30
0
40
12.5
41
55.5555555556
71
5
72
1
1
163.369
7
standard
210
0
220
0
230
1
50
90
73
2
44
1
0
LINE
5
F7
100
AcDbEntity
8
dimensions
6
CONTINUOUS
62
7
370
0
100
AcDbLine
10
-3.125
20
-1506.115
11
-106.25
21
-1506.115
0
LINE
5
F8
100
AcDbEntity
8
dimensions
6
CONTINUOUS
62
7
370
0
100
AcDbLine
10
-3.125
20
-1342.746
11
-106.25
21
-1342.746
0
ENDBLK
5
59
330
57
100
AcDbEntity
8
0
100
AcDbBlockEnd
0
BLOCK
5
5B
330
5A
100
AcDbEntity
8
0
100
AcDbBlockBegin
2
*D17
70
1
10
0
20
0
3
*D17
1

0
LINE
5
F9
100
AcDbEntity
8
dimensions
6
CONTINUOUS
62
7
370
0
100
AcDbLine
10
654.812
20
-100
11
720.09
21
-100
0
SOLID
5
FA
100
AcDbEntity
8
dimensions
6
CONTINUOUS
62
7
370
0
100
AcDbTrace
10
654.812
20
-100
30
0
11
667.312
21
-97.9185767111
31
0
12
667.312
22
-102.081423289
32
0
13
667.312
23
-102.081423289
33
0
0
SOLID
5
FB
100
AcDbEntity
8
dimensions
6
CONTINUOUS
62
7
370
0
100
AcDbTrace
10
720.09
20
-100
30
0
11
707.59
21
-102.081423289
31
0
12
707.59
22
-97.9185767111
32
0
13
707.59
23
-97.9185767111
33
0
0
MTEXT
5
FC
100
AcDbEntity
8
dimensions
6
CONTINUOUS
62
7
370
0
100
AcDbMText
10
687.451
20
-90.625
30
0
40
12.5
41
48.6111111111
71
5
72
1
1
65.278
7
standard
210
0
220
0
230
1
50
0
73
2
44
1
0
LINE
5
FD
100
AcDbEntity
8
dimensions
6
CONTINUOUS
62
7
370
0
100
AcDbLine
10
654.812
20
742.365
11
654.812
21
-106.25
0
LINE
5
FE
100
AcDbEntity
8
dimensions
6
CONTINUOUS
62
7
370
0
100
AcDbLine
10
720.09
20
884.605
11
720.09
21
-106.25
0
ENDBLK
5
5C
330
5A
100
AcDbEntity
8
0
100
AcDbBlockEnd
0
BLOCK
5
5E
330
5D
100
AcDbEntity
8
0
100
AcDbBlockBegin
2
*D14
70
1
10
0
20
0
3
*D14
1

0
LINE
5
FF
100
AcDbEntity
8
dimensions
6
CONTINUOUS
62
7
370
0
100
AcDbLine
10
740
20
1587.5
11
740
21
1778
0
SOLID
5
100
100
AcDbEntity
8
dimensions
6
CONTINUOUS
62
7
370
0
100
AcDbTrace
10
740
20
1587.5
30
0
11
737.918576711
21
1600
31
0
12
742.081423289
22
1600
32
0
13
742.081423289
23
1600
33
0
0
SOLID
5
101
100
AcDbEntity
8
dimensions
6
CONTINUOUS
62
7
370
0
100
AcDbTrace
10
740
20
1778
30
0
11
742.081423289
21
1765.5
31
0
12
737.918576711
22
1765.5
32
0
13
737.918576711
23
1765.5
33
0
0
MTEXT
5
102
100
AcDbEntity
8
dimensions
6
CONTINUOUS
62
7
370
0
100
AcDbMText
10
730.625
20
1682.75
30
0
40
12.5
41
36.1111111111
71
5
72
1
1
190.5
7
standard
210
0
220
0
230
1
50
90
73
2
44
1
0
LINE
5
103
100
AcDbEntity
8
dimensions
6
CONTINUOUS
62
7
370
0
100
AcDbLine
10
669.875
20
1587.5
11
746.25
21
1587.5
0
LINE
5
104
100
AcDbEntity
8
dimensions
6
CONTINUOUS
62
7
370
0
100
AcDbLine
10
600.025
20
1778
11
746.25
21
1778
0
ENDBLK
5
5F
330
5D
100
AcDbEntity
8
0
100
AcDbBlockEnd
0
BLOCK
5
61
330
60
100
AcDbEntity
8
0
100
AcDbBlockBegin
2
*D35
70
1
10
0
20
0
3
*D35
1

0
LINE
5
105
100
AcDbEntity
8
dimensions
6
CONTINUOUS
62
7
370
0
100
AcDbLine
10
-100
20
-1006.803
11
-100
21
-935.2896
0
SOLID
5
106
100
AcDbEntity
8
dimensions
6
CONTINUOUS
62
7
370
0
100
AcDbTrace
10
-100
20
-1006.803
30
0
11
-102.081423289
21
-994.303
31
0
12
-97.9185767111
22
-994.303
32
0
13
-97.9185767111
23
-994.303
33
0
0
SOLID
5
107
100
AcDbEntity
8
dimensions
6
CONTINUOUS
62
7
370
0
100
AcDbTrace
10
-100
20
-935.2896
30
0
11
-97.9185767111
21
-947.7896
31
0
12
-102.081423289
22
-947.7896
32
0
13
-102.081423289
23
-947.7896
33
0
0
MTEXT
5
108
100
AcDbEntity
8
dimensions
6
CONTINUOUS
62
7
370
0
100
AcDbMText
10
-109.375
20
-971.0463
30
0
40
12.5
41
54.1666666667
71
5
72
1
1
71.5134
7
standard
210
0
220
0
230
1
50
90
73
2
44
1
0
LINE
5
109
100
AcDbEntity
8
dimensions
6
CONTINUOUS
62
7
370
0
100
AcDbLine
10
-3.125
20
-1006.803
11
-106.25
21
-1006.803
0
LINE
5
10A
100
AcDbEntity
8
dimensions
6
CONTINUOUS
62
7
370
0
100
AcDbLine
10
-3.125
20
-935.2896
11
-106.25
21
-935.2896
0
ENDBLK
5
62
330
60
100
AcDbEntity
8
0
100
AcDbBlockEnd
0
BLOCK
5
64
330
63
100
AcDbEntity
8
0
100
AcDbBlockBegin
2
*D3
70
1
10
0
20
0
3
*D3
1

0
LINE
5
10B
100
AcDbEntity
8
dimensions
6
CONTINUOUS
62
7
370
0
100
AcDbLine
10
800
20
0
11
800
21
713.74
0
SOLID
5
10C
100
AcDbEntity
8
dimensions
6
CONTINUOUS
62
7
370
0
100
AcDbTrace
10
800
20
0
30
0
11
797.918576711
21
12.5
31
0
12
802.081423289
22
12.5
32
0
13
802.081423289
23
12.5
33
0
0
SOLID
5
10D
100
AcDbEntity
8
dimensions
6
CONTINUOUS
62
7
370
0
100
AcDbTrace
10
800
20
713.74
30
0
11
802.081423289
21
701.24
31
0
12
797.918576711
22
701.24
32
0
13
797.918576711
23
701.24
33
0
0
MTEXT
5
10E
100
AcDbEntity
8
dimensions
6
CONTINUOUS
62
7
370
0
100
AcDbMText
10
790.625
20
356.87
30
0
40
12.5
41
47.2222222222
71
5
72
1
1
713.74
7
standard
210
0
220
0
230
1
50
90
73
2
44
1
0
LINE
5
10F
100
AcDbEntity
8
dimensions
6
CONTINUOUS
62
7
370
0
100
AcDbLine
10
650.825
20
0
11
806.25
21
0
0
LINE
5
110
100
AcDbEntity
8
dimensions
6
CONTINUOUS
62
7
370
0
100
AcDbLine
10
650.825
20
713.74
11
806.25
21
713.74
0
ENDBLK
5
65
330
63
100
AcDbEntity
8
0
100
AcDbBlockEnd
0
BLOCK
5
67
330
66
100
AcDbEntity
8
0
100
AcDbBlockBegin
2
*D1
70
1
10
0
20
0
3
*D1
1

0
LINE
5
111
100
AcDbEntity
8
dimensions
6
CONTINUOUS
62
7
370
0
100
AcDbLine
10
-100
20
0
11
-100
21
1651
0
SOLID
5
112
100
AcDbEntity
8
dimensions
6
CONTINUOUS
62
7
370
0
100
AcDbTrace
10
-100
20
0
30
0
11
-102.081423289
21
12.5
31
0
12
-97.9185767111
22
12.5
32
0
13
-97.9185767111
23
12.5
33
0
0
SOLID
5
113
100
AcDbEntity
8
dimensions
6
CONTINUOUS
62
7
370
0
100
AcDbTrace
10
-100
20
1651
30
0
11
-97.9185767111
21
1638.5
31
0
12
-102.081423289
22
1638.5
32
0
13
-102.081423289
23
1638.5
33
0
0
MTEXT
5
114
100
AcDbEntity
8
dimensions
6
CONTINUOUS
62
7
370
0
100
AcDbMText
10
-109.375
20
825.5
30
0
40
12.5
41
29.1666666667
71
5
72
1
1
1651
7
standard
210
0
220
0
230
1
50
90
73
2
44
1
0
LINE
5
115
100
AcDbEntity
8
dimensions
6
CONTINUOUS
62
7
370
0
100
AcDbLine
10
-3.125
20
3.82689485569e-16
11
-106.25
21
7.65378971139e-16
0
LINE
5
116
100
AcDbEntity
8
dimensions
6
CONTINUOUS
62
7
370
0
100
AcDbLine
10
-3.125
20
1651
11
-106.25
21
1651
0
ENDBLK
5
68
330
66
100
AcDbEntity
8
0
100
AcDbBlockEnd
0
BLOCK
5
6A
330
69
100
AcDbEntity
8
0
100
AcDbBlockBegin
2
*D8
70
1
10
0
20
0
3
*D8
1

0
LINE
5
117
100
AcDbEntity
8
dimensions
6
CONTINUOUS
62
7
370
0
100
AcDbLine
10
800
20
1027.43
11
800
21
1061.96042649
0
SOLID
5
118
100
AcDbEntity
8
dimensions
6
CONTINUOUS
62
7
370
0
100
AcDbTrace
10
800
20
1027.43
30
0
11
797.918576711
21
1039.93
31
0
12
802.081423289
22
1039.93
32
0
13
802.081423289
23
1039.93
33
0
0
SOLID
5
119
100
AcDbEntity
8
dimensions
6
CONTINUOUS
62
7
370
0
100
AcDbTrace
10
800
20
1061.96042649
30
0
11
802.081423289
21
1049.46042649
31
0
12
797.918576711
22
1049.46042649
32
0
13
797.918576711
23
1049.46042649
33
0
0
MTEXT
5
11A
100
AcDbEntity
8
dimensions
6
CONTINUOUS
62
7
370
0
100
AcDbMText
10
790.625
20
1095.64098205
30
0
40
12.5
41
61.1111111111
71
5
72
1
1
34.5304
7
standard
210
0
220
0
230
1
50
90
73
2
44
1
0
LINE
5
11B
100
AcDbEntity
8
dimensions
6
CONTINUOUS
62
7
370
0
100
AcDbLine
10
730.327
20
1027.43
11
806.25
21
1027.43
0
LINE
5
11C
100
AcDbEntity
8
dimensions
6
CONTINUOUS
62
7
370
0
100
AcDbLine
10
700.697485512
20
1061.96042649
11
806.25
21
1061.96042649
0
ENDBLK
5
6B
330
69
100
AcDbEntity
8
0
100
AcDbBlockEnd
0
BLOCK
5
6D
330
6C
100
AcDbEntity
8
0
100
AcDbBlockBegin
2
*D4
70
1
10
0
20
0
3
*D4
1

0
LINE
5
11D
100
AcDbEntity
8
dimensions
6
CONTINUOUS
62
7
370
0
100
AcDbLine
10
800
20
713.74
11
800
21
745.49
0
SOLID
5
11E
100
AcDbEntity
8
dimensions
6
CONTINUOUS
62
7
370
0
100
AcDbTrace
10
800
20
713.74
30
0
11
797.918576711
21
726.24
31
0
12
802.081423289
22
726.24
32
0
13
802.081423289
23
726.24
33
0
0
SOLID
5
11F
100
AcDbEntity
8
dimensions
6
CONTINUOUS
62
7
370
0
100
AcDbTrace
10
800
20
745.49
30
0
11
802.081423289
21
732.99
31
0
12
797.918576711
22
732.99
32
0
13
797.918576711
23
732.99
33
0
0
MTEXT
5
120
100
AcDbEntity
8
dimensions
6
CONTINUOUS
62
7
370
0
100
AcDbMText
10
790.625
20
766.670555556
30
0
40
12.5
41
36.1111111111
71
5
72
1
1
31.75
7
standard
210
0
220
0
230
1
50
90
73
2
44
1
0
LINE
5
121
100
AcDbEntity
8
dimensions
6
CONTINUOUS
62
7
370
0
100
AcDbLine
10
650.825
20
713.74
11
806.25
21
713.74
0
LINE
5
122
100
AcDbEntity
8
dimensions
6
CONTINUOUS
62
7
370
0
100
AcDbLine
10
657.937
20
745.49
11
806.25
21
745.49
0
ENDBLK
5
6E
330
6C
100
AcDbEntity
8
0
100
AcDbBlockEnd
0
BLOCK
5
70
330
6F
100
AcDbEntity
8
0
100
AcDbBlockBegin
2
*D21
70
1
10
0
20
0
3
*D21
1

0
LINE
5
123
100
AcDbEntity
8
dimensions
6
CONTINUOUS
62
7
370
0
100
AcDbLine
10
672.484
20
1170
11
752.202
21
1170
0
SOLID
5
124
100
AcDbEntity
8
dimensions
6
CONTINUOUS
62
7
370
0
100
AcDbTrace
10
697.484
20
1170
30
0
11
684.984
21
1167.91857671
31
0
12
684.984
22
1172.08142329
32
0
13
684.984
23
1172.08142329
33
0
0
SOLID
5
125
100
AcDbEntity
8
dimensions
6
CONTINUOUS
62
7
370
0
100
AcDbTrace
10
727.202
20
1170
30
0
11
739.702
21
1172.08142329
31
0
12
739.702
22
1167.91857671
32
0
13
739.702
23
1167.91857671
33
0
0
MTEXT
5
126
100
AcDbEntity
8
dimensions
6
CONTINUOUS
62
7
370
0
100
AcDbMText
10
753.243666667
20
1179.375
30
0
40
12.5
41
45.8333333333
71
5
72
1
1
29.718
7
standard
210
0
220
0
230
1
50
0
73
2
44
1
0
LINE
5
127
100
AcDbEntity
8
dimensions
6
CONTINUOUS
62
7
370
0
100
AcDbLine
10
697.484
20
1065.099
11
697.484
21
1176.25
0
LINE
5
128
100
AcDbEntity
8
dimensions
6
CONTINUOUS
62
7
370
0
100
AcDbLine
10
727.202
20
1030.555
11
727.202
21
1176.25
0
ENDBLK
5
71
330
6F
100
AcDbEntity
8
0
100
AcDbBlockEnd
0
BLOCK
5
73
330
72
100
AcDbEntity
8
0
100
AcDbBlockBegin
2
*D38
70
1
10
0
20
0
3
*D38
1

0
LINE
5
129
100
AcDbEntity
8
dimensions
6
CONTINUOUS
62
7
370
0
100
AcDbLine
10
1569.69537964
20
1772.2117829
11
1668.27757413
21
1793.1867179
0
LINE
5
12A
100
AcDbEntity
8
dimensions
6
CONTINUOUS
62
7
370
0
100
AcDbLine
10
1572.27058103
20
1760.10833639
11
1670.85277551
21
1781.08327139
0
LINE
5
12B
100
AcDbEntity
8
dimensions
6
CONTINUOUS
62
7
370
0
100
AcDbLine
10
1656.96172096
20
1816.33869335
11
1669.94230457
21
1755.32995038
0
SOLID
5
12C
100
AcDbEntity
8
dimensions
6
CONTINUOUS
62
7
370
0
100
AcDbTrace
10
1662.16441207
20
1791.88604512
30
0
11
1657.52721406
21
1803.67920914
31
0
12
1661.59891897
22
1804.54552933
32
0
13
1661.59891897
23
1804.54552933
33
0
0
SOLID
5
12D
100
AcDbEntity
8
dimensions
6
CONTINUOUS
62
7
370
0
100
AcDbTrace
10
1664.73961346
20
1779.78259861
30
0
11
1669.37681147
21
1767.98943459
31
0
12
1665.30510655
22
1767.1231144
32
0
13
1665.30510655
23
1767.1231144
33
0
0
MTEXT
5
12E
100
AcDbEntity
8
dimensions
6
CONTINUOUS
62
7
370
0
100
AcDbMText
10
1680.62949923
20
1750.14893715
30
0
40
12.5
41
58.3333333333
71
5
72
1
1
12.3744
7
standard
210
0
220
0
230
1
50
282.011478386
73
2
44
1
0
ENDBLK
5
74
330
72
100
AcDbEntity
8
0
100
AcDbBlockEnd
0
BLOCK
5
76
330
75
100
AcDbEntity
8
0
100
AcDbBlockBegin
2
*D29
70
1
10
0
20
0
3
*D29
1

0
LINE
5
12F
100
AcDbEntity
8
dimensions
6
CONTINUOUS
62
7
370
0
100
AcDbLine
10
-100
20
-3610.65
11
-100
21
-3000
0
SOLID
5
130
100
AcDbEntity
8
dimensions
6
CONTINUOUS
62
7
370
0
100
AcDbTrace
10
-100
20
-3610.65
30
0
11
-102.081423289
21
-3598.15
31
0
12
-97.9185767111
22
-3598.15
32
0
13
-97.9185767111
23
-3598.15
33
0
0
SOLID
5
131
100
AcDbEntity
8
dimensions
6
CONTINUOUS
62
7
370
0
100
AcDbTrace
10
-100
20
-3000
30
0
11
-97.9185767111
21
-3012.5
31
0
12
-102.081423289
22
-3012.5
32
0
13
-102.081423289
23
-3012.5
33
0
0
MTEXT
5
132
100
AcDbEntity
8
dimensions
6
CONTINUOUS
62
7
370
0
100
AcDbMText
10
-109.375
20
-3305.325
30
0
40
12.5
41
45.8333333333
71
5
72
1
1
610.65
7
standard
210
0
220
0
230
1
50
90
73
2
44
1
0
LINE
5
133
100
AcDbEntity
8
dimensions
6
CONTINUOUS
62
7
370
0
100
AcDbLine
10
-3.125
20
-3610.65
11
-106.25
21
-3610.65
0
LINE
5
134
100
AcDbEntity
8
dimensions
6
CONTINUOUS
62
7
370
0
100
AcDbLine
10
-3.125
20
-3000
11
-106.25
21
-3000
0
ENDBLK
5
77
330
75
100
AcDbEntity
8
0
100
AcDbBlockEnd
0
BLOCK
5
79
330
78
100
AcDbEntity
8
0
100
AcDbBlockBegin
2
*D37
70
1
10
0
20
0
3
*D37
1

0
LINE
5
135
100
AcDbEntity
8
dimensions
6
CONTINUOUS
62
7
370
0
100
AcDbLine
10
1568.13820422
20
1762.39198849
11
1545.41842369
21
1824.3550263
0
LINE
5
136
100
AcDbEntity
8
dimensions
6
CONTINUOUS
62
7
370
0
100
AcDbLine
10
1598.53610824
20
1773.53788663
11
1575.8163277
21
1835.50092444
0
LINE
5
137
100
AcDbEntity
8
dimensions
6
CONTINUOUS
62
7
370
0
100
AcDbLine
10
1547.57001525
20
1818.48704933
11
1577.96791926
21
1829.63294747
0
SOLID
5
138
100
AcDbEntity
8
dimensions
6
CONTINUOUS
62
7
370
0
100
AcDbTrace
10
1547.57001525
20
1818.48704933
30
0
11
1558.58942955
21
1824.74443147
31
0
12
1560.02250884
22
1820.83603341
32
0
13
1560.02250884
23
1820.83603341
33
0
0
SOLID
5
139
100
AcDbEntity
8
dimensions
6
CONTINUOUS
62
7
370
0
100
AcDbTrace
10
1577.96791926
20
1829.63294747
30
0
11
1566.94850496
21
1823.37556532
31
0
12
1565.51542567
22
1827.28396338
32
0
13
1565.51542567
23
1827.28396338
33
0
0
MTEXT
5
13A
100
AcDbEntity
8
dimensions
6
CONTINUOUS
62
7
370
0
100
AcDbMText
10
1605.05841296
20
1849.55146931
30
0
40
12.5
41
58.3333333333
71
5
72
1
1
32.3769
7
standard
210
0
220
0
230
1
50
20.1363034282
73
2
44
1
0
ENDBLK
5
7A
330
78
100
AcDbEntity
8
0
100
AcDbBlockEnd
0
BLOCK
5
7C
330
7B
100
AcDbEntity
8
0
100
AcDbBlockBegin
2
*D41
70
1
10
0
20
0
3
*D41
1

0
LINE
5
13B
100
AcDbEntity
8
dimensions
6
CONTINUOUS
62
7
370
0
100
AcDbLine
10
945.068807619
20
1651
11
945.068807619
21
1619.25
0
SOLID
5
13C
100
AcDbEntity
8
dimensions
6
CONTINUOUS
62
7
370
0
100
AcDbTrace
10
945.068807619
20
1651
30
0
11
947.150230908
21
1638.5
31
0
12
942.987384331
22
1638.5
32
0
13
942.987384331
23
1638.5
33
0
0
SOLID
5
13D
100
AcDbEntity
8
dimensions
6
CONTINUOUS
62
7
370
0
100
AcDbTrace
10
945.068807619
20
1619.25
30
0
11
942.987384331
21
1631.75
31
0
12
947.150230908
22
1631.75
32
0
13
947.150230908
23
1631.75
33
0
0
MTEXT
5
13E
100
AcDbEntity
8
dimensions
6
CONTINUOUS
62
7
370
0
100
AcDbMText
10
935.693807619
20
1672.18055556
30
0
40
12.5
41
36.1111111111
71
5
72
1
1
31.75
7
standard
210
0
220
0
230
1
50
90
73
2
44
1
0
LINE
5
13F
100
AcDbEntity
8
dimensions
6
CONTINUOUS
62
7
370
0
100
AcDbLine
10
996.875
20
1651
11
938.818807619
21
1651
0
LINE
5
140
100
AcDbEntity
8
dimensions
6
CONTINUOUS
62
7
370
0
100
AcDbLine
10
996.875
20
1619.25
11
938.818807619
21
1619.25
0
ENDBLK
5
7D
330
7B
100
AcDbEntity
8
0
100
AcDbBlockEnd
0
BLOCK
5
7F
330
7E
100
AcDbEntity
8
0
100
AcDbBlockBegin
2
*D47
70
1
10
0
20
0
3
*D47
1

0
LINE
5
141
100
AcDbEntity
8
dimensions
6
CONTINUOUS
62
7
370
0
100
AcDbLine
10
1442.4272222
20
1521.078384
11
1427.00868514
21
1585.98194696
0
LINE
5
142
100
AcDbEntity
8
dimensions
6
CONTINUOUS
62
7
370
0
100
AcDbLine
10
1434.73396911
20
1519.25076927
11
1419.31543204
21
1584.15433223
0
LINE
5
143
100
AcDbEntity
8
dimensions
6
CONTINUOUS
62
7
370
0
100
AcDbLine
10
1452.77631903
20
1585.67938531
11
1396.43690253
21
1572.29535303
0
SOLID
5
144
100
AcDbEntity
8
dimensions
6
CONTINUOUS
62
7
370
0
100
AcDbTrace
10
1428.45323733
20
1579.90117654
30
0
11
1440.13370225
21
1584.81534607
31
0
12
1441.09585411
22
1580.76521578
32
0
13
1441.09585411
23
1580.76521578
33
0
0
SOLID
5
145
100
AcDbEntity
8
dimensions
6
CONTINUOUS
62
7
370
0
100
AcDbTrace
10
1420.75998423
20
1578.0735618
30
0
11
1409.07951932
21
1573.15939227
31
0
12
1408.11736745
22
1577.20952257
32
0
13
1408.11736745
23
1577.20952257
33
0
0
MTEXT
5
146
100
AcDbEntity
8
dimensions
6
CONTINUOUS
62
7
370
0
100
AcDbMText
10
1453.64987595
20
1595.52281704
30
0
40
12.5
41
50
71
5
72
1
1
7.9074
7
standard
210
0
220
0
230
1
50
13.3635115732
73
2
44
1
0
ENDBLK
5
80
330
7E
100
AcDbEntity
8
0
100
AcDbBlockEnd
0
BLOCK
5
82
330
81
100
AcDbEntity
8
0
100
AcDbBlockBegin
2
*D42
70
1
10
0
20
0
3
*D42
1

0
LINE
5
147
100
AcDbEntity
8
dimensions
6
CONTINUOUS
62
7
370
0
100
AcDbLine
10
1000
20
-100
11
1610.65
21
-100
0
SOLID
5
148
100
AcDbEntity
8
dimensions
6
CONTINUOUS
62
7
370
0
100
AcDbTrace
10
1000
20
-100
30
0
11
1012.5
21
-97.9185767111
31
0
12
1012.5
22
-102.081423289
32
0
13
1012.5
23
-102.081423289
33
0
0
SOLID
5
149
100
AcDbEntity
8
dimensions
6
CONTINUOUS
62
7
370
0
100
AcDbTrace
10
1610.65
20
-100
30
0
11
1598.15
21
-102.081423289
31
0
12
1598.15
22
-97.9185767111
32
0
13
1598.15
23
-97.9185767111
33
0
0
MTEXT
5
14A
100
AcDbEntity
8
dimensions
6
CONTINUOUS
62
7
370
0
100
AcDbMText
10
1305.325
20
-90.625
30
0
40
12.5
41
45.8333333333
71
5
72
1
1
610.65
7
standard
210
0
220
0
230
1
50
0
73
2
44
1
0
LINE
5
14B
100
AcDbEntity
8
dimensions
6
CONTINUOUS
62
7
370
0
100
AcDbLine
10
1000
20
-3.125
11
1000
21
-106.25
0
LINE
5
14C
100
AcDbEntity
8
dimensions
6
CONTINUOUS
62
7
370
0
100
AcDbLine
10
1610.65
20
-3.125
11
1610.65
21
-106.25
0
ENDBLK
5
83
330
81
100
AcDbEntity
8
0
100
AcDbBlockEnd
0
BLOCK
5
85
330
84
100
AcDbEntity
8
0
100
AcDbBlockBegin
2
*D20
70
1
10
0
20
0
3
*D20
1

0
LINE
5
14D
100
AcDbEntity
8
dimensions
6
CONTINUOUS
62
7
370
0
100
AcDbLine
10
566.674
20
950
11
697.484
21
950
0
SOLID
5
14E
100
AcDbEntity
8
dimensions
6
CONTINUOUS
62
7
370
0
100
AcDbTrace
10
566.674
20
950
30
0
11
579.174
21
952.081423289
31
0
12
579.174
22
947.918576711
32
0
13
579.174
23
947.918576711
33
0
0
SOLID
5
14F
100
AcDbEntity
8
dimensions
6
CONTINUOUS
62
7
370
0
100
AcDbTrace
10
697.484
20
950
30
0
11
684.984
21
947.918576711
31
0
12
684.984
22
952.081423289
32
0
13
684.984
23
952.081423289
33
0
0
MTEXT
5
150
100
AcDbEntity
8
dimensions
6
CONTINUOUS
62
7
370
0
100
AcDbMText
10
632.079
20
959.375
30
0
40
12.5
41
43.0555555556
71
5
72
1
1
130.81
7
standard
210
0
220
0
230
1
50
0
73
2
44
1
0
LINE
5
151
100
AcDbEntity
8
dimensions
6
CONTINUOUS
62
7
370
0
100
AcDbLine
10
566.674
20
1078.915
11
566.674
21
943.75
0
LINE
5
152
100
AcDbEntity
8
dimensions
6
CONTINUOUS
62
7
370
0
100
AcDbLine
10
697.484
20
1058.849
11
697.484
21
943.75
0
ENDBLK
5
86
330
84
100
AcDbEntity
8
0
100
AcDbBlockEnd
0
BLOCK
5
88
330
87
100
AcDbEntity
8
0
100
AcDbBlockBegin
2
*D36
70
1
10
0
20
0
3
*D36
1

0
LINE
5
153
100
AcDbEntity
8
dimensions
6
CONTINUOUS
62
7
370
0
100
AcDbLine
10
0
20
-3700
11
584.2
21
-3700
0
SOLID
5
154
100
AcDbEntity
8
dimensions
6
CONTINUOUS
62
7
370
0
100
AcDbTrace
10
0
20
-3700
30
0
11
12.5
21
-3697.91857671
31
0
12
12.5
22
-3702.08142329
32
0
13
12.5
23
-3702.08142329
33
0
0
SOLID
5
155
100
AcDbEntity
8
dimensions
6
CONTINUOUS
62
7
370
0
100
AcDbTrace
10
584.2
20
-3700
30
0
11
571.7
21
-3702.08142329
31
0
12
571.7
22
-3697.91857671
32
0
13
571.7
23
-3697.91857671
33
0
0
MTEXT
5
156
100
AcDbEntity
8
dimensions
6
CONTINUOUS
62
7
370
0
100
AcDbMText
10
292.1
20
-3690.625
30
0
40
12.5
41
40.2777777778
71
5
72
1
1
584.2
7
standard
210
0
220
0
230
1
50
0
73
2
44
1
0
LINE
5
157
100
AcDbEntity
8
dimensions
6
CONTINUOUS
62
7
370
0
100
AcDbLine
10
-3.79643277265e-14
20
-3613.775
11
-1.14806845671e-15
21
-3706.25
0
LINE
5
158
100
AcDbEntity
8
dimensions
6
CONTINUOUS
62
7
370
0
100
AcDbLine
10
584.2
20
-3613.775
11
584.2
21
-3706.25
0
ENDBLK
5
89
330
87
100
AcDbEntity
8
0
100
AcDbBlockEnd
0
BLOCK
5
8B
330
8A
100
AcDbEntity
8
0
100
AcDbBlockBegin
2
*D24
70
1
10
0
20
0
3
*D24
1

0
LINE
5
159
100
AcDbEntity
8
dimensions
6
CONTINUOUS
62
7
370
0
100
AcDbLine
10
1.13686837722e-13
20
1940
11
596.9
21
1940
0
SOLID
5
15A
100
AcDbEntity
8
dimensions
6
CONTINUOUS
62
7
370
0
100
AcDbTrace
10
1.13686837722e-13
20
1940
30
0
11
12.5
21
1942.08142329
31
0
12
12.5
22
1937.91857671
32
0
13
12.5
23
1937.91857671
33
0
0
SOLID
5
15B
100
AcDbEntity
8
dimensions
6
CONTINUOUS
62
7
370
0
100
AcDbTrace
10
596.9
20
1940
30
0
11
584.4
21
1937.91857671
31
0
12
584.4
22
1942.08142329
32
0
13
584.4
23
1942.08142329
33
0
0
MTEXT
5
15C
100
AcDbEntity
8
dimensions
6
CONTINUOUS
62
7
370
0
100
AcDbMText
10
298.45
20
1949.375
30
0
40
12.5
41
38.8888888889
71
5
72
1
1
596.9
7
standard
210
0
220
0
230
1
50
0
73
2
44
1
0
LINE
5
15D
100
AcDbEntity
8
dimensions
6
CONTINUOUS
62
7
370
0
100
AcDbLine
10
1.01291344743e-13
20
1654.125
11
1.14069527207e-13
21
1946.25
0
LINE
5
15E
100
AcDbEntity
8
dimensions
6
CONTINUOUS
62
7
370
0
100
AcDbLine
10
596.9
20
1781.125
11
596.9
21
1946.25
0
ENDBLK
5
8C
330
8A
100
AcDbEntity
8
0
100
AcDbBlockEnd
0
BLOCK
5
8E
330
8D
100
AcDbEntity
8
0
100
AcDbBlockBegin
2
*D39
70
1
10
0
20
0
3
*D39
1

0
LINE
5
15F
100
AcDbEntity
8
dimensions
6
CONTINUOUS
62
7
370
0
100
AcDbLine
10
1636.80269522
20
1586.76443418
11
1747.54256182
21
1650.04435796
0
LINE
5
160
100
AcDbEntity
8
dimensions
6
CONTINUOUS
62
7
370
0
100
AcDbLine
10
1643.85748035
20
1574.4185602
11
1754.59734695
21
1637.69848397
0
LINE
5
161
100
AcDbEntity
8
dimensions
6
CONTINUOUS
62
7
370
0
100
AcDbLine
10
1729.71256873
20
1668.64956814
11
1761.57430078
21
1612.89153706
0
SOLID
5
162
100
AcDbEntity
8
dimensions
6
CONTINUOUS
62
7
370
0
100
AcDbTrace
10
1742.11604218
20
1646.94348959
30
0
11
1734.10712396
21
1656.76385373
31
0
12
1737.72148695
22
1658.82920401
32
0
13
1737.72148695
23
1658.82920401
33
0
0
SOLID
5
163
100
AcDbEntity
8
dimensions
6
CONTINUOUS
62
7
370
0
100
AcDbTrace
10
1749.17082732
20
1634.59761561
30
0
11
1757.17974554
21
1624.77725147
31
0
12
1753.56538255
22
1622.71190119
32
0
13
1753.56538255
23
1622.71190119
33
0
0
MTEXT
5
164
100
AcDbEntity
8
dimensions
6
CONTINUOUS
62
7
370
0
100
AcDbMText
10
1772.64267813
20
1612.41779328
30
0
40
12.5
41
55.5555555556
71
5
72
1
1
14.2194
7
standard
210
0
220
0
230
1
50
299.744881297
73
2
44
1
0
ENDBLK
5
8F
330
8D
100
AcDbEntity
8
0
100
AcDbBlockEnd
0
BLOCK
5
91
330
90
100
AcDbEntity
8
0
100
AcDbBlockBegin
2
*D16
70
1
10
0
20
0
3
*D16
1

0
LINE
5
165
100
AcDbEntity
8
dimensions
6
CONTINUOUS
62
7
370
0
100
AcDbLine
10
622.7
20
-200
11
679.812
21
-200
0
SOLID
5
166
100
AcDbEntity
8
dimensions
6
CONTINUOUS
62
7
370
0
100
AcDbTrace
10
647.7
20
-200
30
0
11
635.2
21
-202.081423289
31
0
12
635.2
22
-197.918576711
32
0
13
635.2
23
-197.918576711
33
0
0
SOLID
5
167
100
AcDbEntity
8
dimensions
6
CONTINUOUS
62
7
370
0
100
AcDbTrace
10
654.812
20
-200
30
0
11
667.312
21
-197.918576711
31
0
12
667.312
22
-202.081423289
32
0
13
667.312
23
-202.081423289
33
0
0
MTEXT
5
168
100
AcDbEntity
8
dimensions
6
CONTINUOUS
62
7
370
0
100
AcDbMText
10
674.603666667
20
-190.625
30
0
40
12.5
41
33.3333333333
71
5
72
1
1
7.112
7
standard
210
0
220
0
230
1
50
0
73
2
44
1
0
LINE
5
169
100
AcDbEntity
8
dimensions
6
CONTINUOUS
62
7
370
0
100
AcDbLine
10
647.7
20
-3.125
11
647.7
21
-206.25
0
LINE
5
16A
100
AcDbEntity
8
dimensions
6
CONTINUOUS
62
7
370
0
100
AcDbLine
10
654.812
20
742.365
11
654.812
21
-206.25
0
ENDBLK
5
92
330
90
100
AcDbEntity
8
0
100
AcDbBlockEnd
0
BLOCK
5
94
330
93
100
AcDbEntity
8
0
100
AcDbBlockBegin
2
*D46
70
1
10
0
20
0
3
*D46
1

0
LINE
5
16B
100
AcDbEntity
8
dimensions
6
CONTINUOUS
62
7
370
0
100
AcDbLine
10
1700.57286928
20
1061.50017345
11
1789.15538889
21
1047.91178695
0
LINE
5
16C
100
AcDbEntity
8
dimensions
6
CONTINUOUS
62
7
370
0
100
AcDbLine
10
1699.63068707
20
1055.35809958
11
1788.21320668
21
1041.76971308
0
LINE
5
16D
100
AcDbEntity
8
dimensions
6
CONTINUOUS
62
7
370
0
100
AcDbLine
10
1786.76826273
20
1073.57039425
11
1778.24485574
21
1018.00641197
0
SOLID
5
16E
100
AcDbEntity
8
dimensions
6
CONTINUOUS
62
7
370
0
100
AcDbTrace
10
1782.97765034
20
1048.85944005
30
0
11
1782.81559831
21
1061.5305119
31
0
12
1786.93031476
22
1060.89932239
32
0
13
1786.93031476
23
1060.89932239
33
0
0
SOLID
5
16F
100
AcDbEntity
8
dimensions
6
CONTINUOUS
62
7
370
0
100
AcDbTrace
10
1782.03546813
20
1042.71736618
30
0
11
1782.19752016
21
1030.04629432
31
0
12
1778.08280371
22
1030.67748383
32
0
13
1778.08280371
23
1030.67748383
33
0
0
MTEXT
5
170
100
AcDbEntity
8
dimensions
6
CONTINUOUS
62
7
370
0
100
AcDbMText
10
1777.65959709
20
1076.02149699
30
0
40
12.5
41
45.8333333333
71
5
72
1
1
6.2139
7
standard
210
0
220
0
230
1
50
81.2789197931
73
2
44
1
0
ENDBLK
5
95
330
93
100
AcDbEntity
8
0
100
AcDbBlockEnd
0
BLOCK
5
97
330
96
100
AcDbEntity
8
0
100
AcDbBlockBegin
2
*D25
70
1
10
0
20
0
3
*D25
1

0
LINE
5
171
100
AcDbEntity
8
dimensions
6
CONTINUOUS
62
7
370
0
100
AcDbLine
10
596.9
20
1940
11
666.75
21
1940
0
SOLID
5
172
100
AcDbEntity
8
dimensions
6
CONTINUOUS
62
7
370
0
100
AcDbTrace
10
596.9
20
1940
30
0
11
609.4
21
1942.08142329
31
0
12
609.4
22
1937.91857671
32
0
13
609.4
23
1937.91857671
33
0
0
SOLID
5
173
100
AcDbEntity
8
dimensions
6
CONTINUOUS
62
7
370
0
100
AcDbTrace
10
666.75
20
1940
30
0
11
654.25
21
1937.91857671
31
0
12
654.25
22
1942.08142329
32
0
13
654.25
23
1942.08142329
33
0
0
MTEXT
5
174
100
AcDbEntity
8
dimensions
6
CONTINUOUS
62
7
370
0
100
AcDbMText
10
631.825
20
1949.375
30
0
40
12.5
41
38.8888888889
71
5
72
1
1
69.85
7
standard
210
0
220
0
230
1
50
0
73
2
44
1
0
LINE
5
175
100
AcDbEntity
8
dimensions
6
CONTINUOUS
62
7
370
0
100
AcDbLine
10
596.9
20
1781.125
11
596.9
21
1946.25
0
LINE
5
176
100
AcDbEntity
8
dimensions
6
CONTINUOUS
62
7
370
0
100
AcDbLine
10
666.75
20
1590.625
11
666.75
21
1946.25
0
ENDBLK
5
98
330
96
100
AcDbEntity
8
0
100
AcDbBlockEnd
0
BLOCK
5
9A
330
99
100
AcDbEntity
8
0
100
AcDbBlockBegin
2
*D28
70
1
10
0
20
0
3
*D28
1

0
LINE
5
177
100
AcDbEntity
8
dimensions
6
CONTINUOUS
62
7
370
0
100
AcDbLine
10
-220
20
0
11
-220
21
1109.298
0
SOLID
5
178
100
AcDbEntity
8
dimensions
6
CONTINUOUS
62
7
370
0
100
AcDbTrace
10
-220
20
0
30
0
11
-222.081423289
21
12.5
31
0
12
-217.918576711
22
12.5
32
0
13
-217.918576711
23
12.5
33
0
0
SOLID
5
179
100
AcDbEntity
8
dimensions
6
CONTINUOUS
62
7
370
0
100
AcDbTrace
10
-220
20
1109.298
30
0
11
-217.918576711
21
1096.798
31
0
12
-222.081423289
22
1096.798
32
0
13
-222.081423289
23
1096.798
33
0
0
MTEXT
5
17A
100
AcDbEntity
8
dimensions
6
CONTINUOUS
62
7
370
0
100
AcDbMText
10
-229.375
20
554.649
30
0
40
12.5
41
62.5
71
5
72
1
1
1109.298
7
standard
210
0
220
0
230
1
50
90
73
2
44
1
0
LINE
5
17B
100
AcDbEntity
8
dimensions
6
CONTINUOUS
62
7
370
0
100
AcDbLine
10
-3.125
20
3.82689485569e-16
11
-226.25
21
7.65378971139e-16
0
LINE
5
17C
100
AcDbEntity
8
dimensions
6
CONTINUOUS
62
7
370
0
100
AcDbLine
10
534.847
20
1109.298
11
-226.25
21
1109.298
0
ENDBLK
5
9B
330
99
100
AcDbEntity
8
0
100
AcDbBlockEnd
0
BLOCK
5
9D
330
9C
100
AcDbEntity
8
0
100
AcDbBlockBegin
2
*D44
70
1
10
0
20
0
3
*D44
1

0
LINE
5
17D
100
AcDbEntity
8
dimensions
6
CONTINUOUS
62
7
370
0
100
AcDbLine
10
1603.65
20
-100
11
1672.7
21
-100
0
SOLID
5
17E
100
AcDbEntity
8
dimensions
6
CONTINUOUS
62
7
370
0
100
AcDbTrace
10
1628.65
20
-100
30
0
11
1616.15
21
-102.081423289
31
0
12
1616.15
22
-97.9185767111
32
0
13
1616.15
23
-97.9185767111
33
0
0
SOLID
5
17F
100
AcDbEntity
8
dimensions
6
CONTINUOUS
62
7
370
0
100
AcDbTrace
10
1647.7
20
-100
30
0
11
1660.2
21
-97.9185767111
31
0
12
1660.2
22
-102.081423289
32
0
13
1660.2
23
-102.081423289
33
0
0
MTEXT
5
180
100
AcDbEntity
8
dimensions
6
CONTINUOUS
62
7
370
0
100
AcDbMText
10
1668.88055556
20
-90.625
30
0
40
12.5
41
36.1111111111
71
5
72
1
1
19.05
7
standard
210
0
220
0
230
1
50
0
73
2
44
1
0
LINE
5
181
100
AcDbEntity
8
dimensions
6
CONTINUOUS
62
7
370
0
100
AcDbLine
10
1628.65
20
-3.125
11
1628.65
21
-106.25
0
LINE
5
182
100
AcDbEntity
8
dimensions
6
CONTINUOUS
62
7
370
0
100
AcDbLine
10
1647.7
20
-3.125
11
1647.7
21
-106.25
0
ENDBLK
5
9E
330
9C
100
AcDbEntity
8
0
100
AcDbBlockEnd
0
BLOCK
5
A0
330
9F
100
AcDbEntity
8
0
100
AcDbBlockBegin
2
*D19
70
1
10
0
20
0
3
*D19
1

0
LINE
5
183
100
AcDbEntity
8
dimensions
6
CONTINUOUS
62
7
370
0
100
AcDbLine
10
513.124276598
20
1010
11
591.674
21
1010
0
SOLID
5
184
100
AcDbEntity
8
dimensions
6
CONTINUOUS
62
7
370
0
100
AcDbTrace
10
538.124276598
20
1010
30
0
11
525.624276598
21
1007.91857671
31
0
12
525.624276598
22
1012.08142329
32
0
13
525.624276598
23
1012.08142329
33
0
0
SOLID
5
185
100
AcDbEntity
8
dimensions
6
CONTINUOUS
62
7
370
0
100
AcDbTrace
10
566.674
20
1010
30
0
11
579.174
21
1012.08142329
31
0
12
579.174
22
1007.91857671
32
0
13
579.174
23
1007.91857671
33
0
0
MTEXT
5
186
100
AcDbEntity
8
dimensions
6
CONTINUOUS
62
7
370
0
100
AcDbMText
10
599.660111111
20
1019.375
30
0
40
12.5
41
59.7222222222
71
5
72
1
1
28.5497
7
standard
210
0
220
0
230
1
50
0
73
2
44
1
0
LINE
5
187
100
AcDbEntity
8
dimensions
6
CONTINUOUS
62
7
370
0
100
AcDbLine
10
538.124276598
20
1105.51659951
11
538.124276598
21
1003.75
0
LINE
5
188
100
AcDbEntity
8
dimensions
6
CONTINUOUS
62
7
370
0
100
AcDbLine
10
566.674
20
1078.915
11
566.674
21
1003.75
0
ENDBLK
5
A1
330
9F
100
AcDbEntity
8
0
100
AcDbBlockEnd
0
BLOCK
5
A3
330
A2
100
AcDbEntity
8
0
100
AcDbBlockBegin
2
*D10
70
1
10
0
20
0
3
*D10
1

0
LINE
5
189
100
AcDbEntity
8
dimensions
6
CONTINUOUS
62
7
370
0
100
AcDbLine
10
660
20
1036.974
11
660
21
1107.04
0
SOLID
5
18A
100
AcDbEntity
8
dimensions
6
CONTINUOUS
62
7
370
0
100
AcDbTrace
10
660
20
1061.974
30
0
11
662.081423289
21
1049.474
31
0
12
657.918576711
22
1049.474
32
0
13
657.918576711
23
1049.474
33
0
0
SOLID
5
18B
100
AcDbEntity
8
dimensions
6
CONTINUOUS
62
7
370
0
100
AcDbTrace
10
660
20
1082.04
30
0
11
657.918576711
21
1094.54
31
0
12
662.081423289
22
1094.54
32
0
13
662.081423289
23
1094.54
33
0
0
MTEXT
5
18C
100
AcDbEntity
8
dimensions
6
CONTINUOUS
62
7
370
0
100
AcDbMText
10
650.625
20
1109.47055556
30
0
40
12.5
41
48.6111111111
71
5
72
1
1
20.066
7
standard
210
0
220
0
230
1
50
90
73
2
44
1
0
LINE
5
18D
100
AcDbEntity
8
dimensions
6
CONTINUOUS
62
7
370
0
100
AcDbLine
10
694.359
20
1061.974
11
653.75
21
1061.974
0
LINE
5
18E
100
AcDbEntity
8
dimensions
6
CONTINUOUS
62
7
370
0
100
AcDbLine
10
563.549
20
1082.04
11
653.75
21
1082.04
0
ENDBLK
5
A4
330
A2
100
AcDbEntity
8
0
100
AcDbBlockEnd
0
BLOCK
5
A6
330
A5
100
AcDbEntity
8
0
100
AcDbBlockBegin
2
*D31
70
1
10
0
20
0
3
*D31
1

0
LINE
5
18F
100
AcDbEntity
8
dimensions
6
CONTINUOUS
62
7
370
0
100
AcDbLine
10
-100
20
-2409.339
11
-100
21
-1506.115
0
SOLID
5
190
100
AcDbEntity
8
dimensions
6
CONTINUOUS
62
7
370
0
100
AcDbTrace
10
-100
20
-2409.339
30
0
11
-102.081423289
21
-2396.839
31
0
12
-97.9185767111
22
-2396.839
32
0
13
-97.9185767111
23
-2396.839
33
0
0
SOLID
5
191
100
AcDbEntity
8
dimensions
6
CONTINUOUS
62
7
370
0
100
AcDbTrace
10
-100
20
-1506.115
30
0
11
-97.9185767111
21
-1518.615
31
0
12
-102.081423289
22
-1518.615
32
0
13
-102.081423289
23
-1518.615
33
0
0
MTEXT
5
192
100
AcDbEntity
8
dimensions
6
CONTINUOUS
62
7
370
0
100
AcDbMText
10
-109.375
20
-1957.727
30
0
40
12.5
41
59.7222222222
71
5
72
1
1
903.224
7
standard
210
0
220
0
230
1
50
90
73
2
44
1
0
LINE
5
193
100
AcDbEntity
8
dimensions
6
CONTINUOUS
62
7
370
0
100
AcDbLine
10
-3.125
20
-2409.339
11
-106.25
21
-2409.339
0
LINE
5
194
100
AcDbEntity
8
dimensions
6
CONTINUOUS
62
7
370
0
100
AcDbLine
10
-3.125
20
-1506.115
11
-106.25
21
-1506.115
0
ENDBLK
5
A7
330
A5
100
AcDbEntity
8
0
100
AcDbBlockEnd
0
BLOCK
5
A9
330
A8
100
AcDbEntity
8
0
100
AcDbBlockBegin
2
*D30
70
1
10
0
20
0
3
*D30
1

0
LINE
5
195
100
AcDbEntity
8
dimensions
6
CONTINUOUS
62
7
370
0
100
AcDbLine
10
-100
20
-3000
11
-100
21
-2409.339
0
SOLID
5
196
100
AcDbEntity
8
dimensions
6
CONTINUOUS
62
7
370
0
100
AcDbTrace
10
-100
20
-3000
30
0
11
-102.081423289
21
-2987.5
31
0
12
-97.9185767111
22
-2987.5
32
0
13
-97.9185767111
23
-2987.5
33
0
0
SOLID
5
197
100
AcDbEntity
8
dimensions
6
CONTINUOUS
62
7
370
0
100
AcDbTrace
10
-100
20
-2409.339
30
0
11
-97.9185767111
21
-2421.839
31
0
12
-102.081423289
22
-2421.839
32
0
13
-102.081423289
23
-2421.839
33
0
0
MTEXT
5
198
100
AcDbEntity
8
dimensions
6
CONTINUOUS
62
7
370
0
100
AcDbMText
10
-109.375
20
-2704.6695
30
0
40
12.5
41
55.5555555556
71
5
72
1
1
590.661
7
standard
210
0
220
0
230
1
50
90
73
2
44
1
0
LINE
5
199
100
AcDbEntity
8
dimensions
6
CONTINUOUS
62
7
370
0
100
AcDbLine
10
-3.125
20
-3000
11
-106.25
21
-3000
0
LINE
5
19A
100
AcDbEntity
8
dimensions
6
CONTINUOUS
62
7
370
0
100
AcDbLine
10
-3.125
20
-2409.339
11
-106.25
21
-2409.339
0
ENDBLK
5
AA
330
A8
100
AcDbEntity
8
0
100
AcDbBlockEnd
0
BLOCK
5
AC
330
AB
100
AcDbEntity
8
0
100
AcDbBlockBegin
2
*D48
70
1
10
0
20
0
3
*D48
1

0
LINE
5
19B
100
AcDbEntity
8
dimensions
6
CONTINUOUS
62
7
370
0
100
AcDbLine
10
1434.52617558
20
1515.08356582
11
1352.88229706
21
1468.42992095
0
LINE
5
19C
100
AcDbEntity
8
dimensions
6
CONTINUOUS
62
7
370
0
100
AcDbLine
10
1460.49419148
20
1469.63953799
11
1378.85031296
21
1422.98589312
0
LINE
5
19D
100
AcDbEntity
8
dimensions
6
CONTINUOUS
62
7
370
0
100
AcDbLine
10
1358.3088167
20
1471.53078931
11
1384.2768326
21
1426.08676148
0
SOLID
5
19E
100
AcDbEntity
8
dimensions
6
CONTINUOUS
62
7
370
0
100
AcDbTrace
10
1358.3088167
20
1471.53078931
30
0
11
1366.31773492
21
1461.71042518
31
0
12
1362.70337193
22
1459.64507489
32
0
13
1362.70337193
23
1459.64507489
33
0
0
SOLID
5
19F
100
AcDbEntity
8
dimensions
6
CONTINUOUS
62
7
370
0
100
AcDbTrace
10
1384.2768326
20
1426.08676148
30
0
11
1376.26791437
21
1435.90712562
31
0
12
1379.88227736
22
1437.9724759
32
0
13
1379.88227736
23
1437.9724759
33
0
0
MTEXT
5
1A0
100
AcDbEntity
8
dimensions
6
CONTINUOUS
62
7
370
0
100
AcDbMText
10
1408.7823062
20
1402.09809927
30
0
40
12.5
41
59.7222222222
71
5
72
1
1
52.3402
7
standard
210
0
220
0
230
1
50
299.744881297
73
2
44
1
0
ENDBLK
5
AD
330
AB
100
AcDbEntity
8
0
100
AcDbBlockEnd
0
BLOCK
5
AF
330
AE
100
AcDbEntity
8
0
100
AcDbBlockBegin
2
*D26
70
1
10
0
20
0
3
*D26
1

0
LINE
5
1A1
100
AcDbEntity
8
dimensions
6
CONTINUOUS
62
7
370
0
100
AcDbLine
10
-140
20
0
11
-140
21
1061.96042649
0
SOLID
5
1A2
100
AcDbEntity
8
dimensions
6
CONTINUOUS
62
7
370
0
100
AcDbTrace
10
-140
20
0
30
0
11
-142.081423289
21
12.5
31
0
12
-137.918576711
22
12.5
32
0
13
-137.918576711
23
12.5
33
0
0
SOLID
5
1A3
100
AcDbEntity
8
dimensions
6
CONTINUOUS
62
7
370
0
100
AcDbTrace
10
-140
20
1061.96042649
30
0
11
-137.918576711
21
1049.46042649
31
0
12
-142.081423289
22
1049.46042649
32
0
13
-142.081423289
23
1049.46042649
33
0
0
MTEXT
5
1A4
100
AcDbEntity
8
dimensions
6
CONTINUOUS
62
7
370
0
100
AcDbMText
10
-149.375
20
530.980213247
30
0
40
12.5
41
73.6111111111
71
5
72
1
1
1061.9604
7
standard
210
0
220
0
230
1
50
90
73
2
44
1
0
LINE
5
1A5
100
AcDbEntity
8
dimensions
6
CONTINUOUS
62
7
370
0
100
AcDbLine
10
-3.125
20
3.82689485569e-16
11
-146.25
21
7.65378971139e-16
0
LINE
5
1A6
100
AcDbEntity
8
dimensions
6
CONTINUOUS
62
7
370
0
100
AcDbLine
10
694.447485512
20
1061.96042649
11
-146.25
21
1061.96042649
0
ENDBLK
5
B0
330
AE
100
AcDbEntity
8
0
100
AcDbBlockEnd
0
BLOCK
5
B2
330
B1
100
AcDbEntity
8
0
100
AcDbBlockBegin
2
*D23
70
1
10
0
20
0
3
*D23
1

0
LINE
5
1A7
100
AcDbEntity
8
dimensions
6
CONTINUOUS
62
7
370
0
100
AcDbLine
10
438.55
20
1900
11
513.95
21
1900
0
SOLID
5
1A8
100
AcDbEntity
8
dimensions
6
CONTINUOUS
62
7
370
0
100
AcDbTrace
10
463.55
20
1900
30
0
11
451.05
21
1897.91857671
31
0
12
451.05
22
1902.08142329
32
0
13
451.05
23
1902.08142329
33
0
0
SOLID
5
1A9
100
AcDbEntity
8
dimensions
6
CONTINUOUS
62
7
370
0
100
AcDbTrace
10
488.95
20
1900
30
0
11
501.45
21
1902.08142329
31
0
12
501.45
22
1897.91857671
32
0
13
501.45
23
1897.91857671
33
0
0
MTEXT
5
1AA
100
AcDbEntity
8
dimensions
6
CONTINUOUS
62
7
370
0
100
AcDbMText
10
507.352777778
20
1909.375
30
0
40
12.5
41
30.5555555556
71
5
72
1
1
25.4
7
standard
210
0
220
0
230
1
50
0
73
2
44
1
0
LINE
5
1AB
100
AcDbEntity
8
dimensions
6
CONTINUOUS
62
7
370
0
100
AcDbLine
10
463.55
20
1433.225
11
463.55
21
1906.25
0
LINE
5
1AC
100
AcDbEntity
8
dimensions
6
CONTINUOUS
62
7
370
0
100
AcDbLine
10
488.95
20
1489.025
11
488.95
21
1906.25
0
ENDBLK
5
B3
330
B1
100
AcDbEntity
8
0
100
AcDbBlockEnd
0
BLOCK
5
B5
330
B4
100
AcDbEntity
8
0
100
AcDbBlockBegin
2
*D45
70
1
10
0
20
0
3
*D45
1

0
LINE
5
1AD
100
AcDbEntity
8
dimensions
6
CONTINUOUS
62
7
370
0
100
AcDbLine
10
1718.1634354
20
916.355
11
1718.1634354
21
792.681767821
0
LINE
5
1AE
100
AcDbEntity
8
dimensions
6
CONTINUOUS
62
7
370
0
100
AcDbLine
10
1727.202
20
916.355
11
1727.202
21
792.681767821
0
LINE
5
1AF
100
AcDbEntity
8
dimensions
6
CONTINUOUS
62
7
370
0
100
AcDbLine
10
1693.1634354
20
798.931767821
11
1752.202
21
798.931767821
0
SOLID
5
1B0
100
AcDbEntity
8
dimensions
6
CONTINUOUS
62
7
370
0
100
AcDbTrace
10
1718.1634354
20
798.931767821
30
0
11
1705.6634354
21
796.850344532
31
0
12
1705.6634354
22
801.01319111
32
0
13
1705.6634354
23
801.01319111
33
0
0
SOLID
5
1B1
100
AcDbEntity
8
dimensions
6
CONTINUOUS
62
7
370
0
100
AcDbTrace
10
1727.202
20
798.931767821
30
0
11
1739.702
21
801.01319111
31
0
12
1739.702
22
796.850344532
32
0
13
1739.702
23
796.850344532
33
0
0
MTEXT
5
1B2
100
AcDbEntity
8
dimensions
6
CONTINUOUS
62
7
370
0
100
AcDbMText
10
1754.63255556
20
808.306767821
30
0
40
12.5
41
48.6111111111
71
5
72
1
1
9.0386
7
standard
210
0
220
0
230
1
50
0
73
2
44
1
0
ENDBLK
5
B6
330
B4
100
AcDbEntity
8
0
100
AcDbBlockEnd
0
BLOCK
5
B8
330
B7
100
AcDbEntity
8
0
100
AcDbBlockBegin
2
*D22
70
1
10
0
20
0
3
*D22
1

0
LINE
5
1B3
100
AcDbEntity
8
dimensions
6
CONTINUOUS
62
7
370
0
100
AcDbLine
10
1.70530256582e-13
20
1830
11
463.55
21
1830
0
SOLID
5
1B4
100
AcDbEntity
8
dimensions
6
CONTINUOUS
62
7
370
0
100
AcDbTrace
10
1.70530256582e-13
20
1830
30
0
11
12.5
21
1832.08142329
31
0
12
12.5
22
1827.91857671
32
0
13
12.5
23
1827.91857671
33
0
0
SOLID
5
1B5
100
AcDbEntity
8
dimensions
6
CONTINUOUS
62
7
370
0
100
AcDbTrace
10
463.55
20
1830
30
0
11
451.05
21
1827.91857671
31
0
12
451.05
22
1832.08142329
32
0
13
451.05
23
1832.08142329
33
0
0
MTEXT
5
1B6
100
AcDbEntity
8
dimensions
6
CONTINUOUS
62
7
370
0
100
AcDbMText
10
231.775
20
1839.375
30
0
40
12.5
41
50
71
5
72
1
1
463.55
7
standard
210
0
220
0
230
1
50
0
73
2
44
1
0
LINE
5
1B7
100
AcDbEntity
8
dimensions
6
CONTINUOUS
62
7
370
0
100
AcDbLine
10
1.01985234133e-13
20
1654.125
11
1.72300724849e-13
21
1836.25
0
LINE
5
1B8
100
AcDbEntity
8
dimensions
6
CONTINUOUS
62
7
370
0
100
AcDbLine
10
463.55
20
1433.225
11
463.55
21
1836.25
0
ENDBLK
5
B9
330
B7
100
AcDbEntity
8
0
100
AcDbBlockEnd
0
BLOCK
5
BB
330
BA
100
AcDbEntity
8
0
100
AcDbBlockBegin
2
*D12
70
1
10
0
20
0
3
*D12
1

0
LINE
5
1B9
100
AcDbEntity
8
dimensions
6
CONTINUOUS
62
7
370
0
100
AcDbLine
10
630
20
1430.1
11
630
21
1485.9
0
SOLID
5
1BA
100
AcDbEntity
8
dimensions
6
CONTINUOUS
62
7
370
0
100
AcDbTrace
10
630
20
1430.1
30
0
11
627.918576711
21
1442.6
31
0
12
632.081423289
22
1442.6
32
0
13
632.081423289
23
1442.6
33
0
0
SOLID
5
1BB
100
AcDbEntity
8
dimensions
6
CONTINUOUS
62
7
370
0
100
AcDbTrace
10
630
20
1485.9
30
0
11
632.081423289
21
1473.4
31
0
12
627.918576711
22
1473.4
32
0
13
627.918576711
23
1473.4
33
0
0
MTEXT
5
1BC
100
AcDbEntity
8
dimensions
6
CONTINUOUS
62
7
370
0
100
AcDbMText
10
620.625
20
1458
30
0
40
12.5
41
29.1666666667
71
5
72
1
1
55.8
7
standard
210
0
220
0
230
1
50
90
73
2
44
1
0
LINE
5
1BD
100
AcDbEntity
8
dimensions
6
CONTINUOUS
62
7
370
0
100
AcDbLine
10
466.675
20
1430.1
11
636.25
21
1430.1
0
LINE
5
1BE
100
AcDbEntity
8
dimensions
6
CONTINUOUS
62
7
370
0
100
AcDbLine
10
492.075
20
1485.9
11
636.25
21
1485.9
0
ENDBLK
5
BC
330
BA
100
AcDbEntity
8
0
100
AcDbBlockEnd
0
BLOCK
5
BE
330
BD
100
AcDbEntity
8
0
100
AcDbBlockBegin
2
*D33
70
1
10
0
20
0
3
*D33
1

0
LINE
5
1BF
100
AcDbEntity
8
dimensions
6
CONTINUOUS
62
7
370
0
100
AcDbLine
10
-100
20
-1342.746
11
-100
21
-1215.257
0
SOLID
5
1C0
100
AcDbEntity
8
dimensions
6
CONTINUOUS
62
7
370
0
100
AcDbTrace
10
-100
20
-1342.746
30
0
11
-102.081423289
21
-1330.246
31
0
12
-97.9185767111
22
-1330.246
32
0
13
-97.9185767111
23
-1330.246
33
0
0
SOLID
5
1C1
100
AcDbEntity
8
dimensions
6
CONTINUOUS
62
7
370
0
100
AcDbTrace
10
-100
20
-1215.257
30
0
11
-97.9185767111
21
-1227.757
31
0
12
-102.081423289
22
-1227.757
32
0
13
-102.081423289
23
-1227.757
33
0
0
MTEXT
5
1C2
100
AcDbEntity
8
dimensions
6
CONTINUOUS
62
7
370
0
100
AcDbMText
10
-109.375
20
-1279.0015
30
0
40
12.5
41
56.9444444444
71
5
72
1
1
127.489
7
standard
210
0
220
0
230
1
50
90
73
2
44
1
0
LINE
5
1C3
100
AcDbEntity
8
dimensions
6
CONTINUOUS
62
7
370
0
100
AcDbLine
10
-3.125
20
-1342.746
11
-106.25
21
-1342.746
0
LINE
5
1C4
100
AcDbEntity
8
dimensions
6
CONTINUOUS
62
7
370
0
100
AcDbLine
10
-3.125
20
-1215.257
11
-106.25
21
-1215.257
0
ENDBLK
5
BF
330
BD
100
AcDbEntity
8
0
100
AcDbBlockEnd
0
BLOCK
5
C1
330
C0
100
AcDbEntity
8
0
100
AcDbBlockBegin
2
*D6
70
1
10
0
20
0
3
*D6
1

0
LINE
5
1C5
100
AcDbEntity
8
dimensions
6
CONTINUOUS
62
7
370
0
100
AcDbLine
10
800
20
887.73
11
800
21
919.48
0
SOLID
5
1C6
100
AcDbEntity
8
dimensions
6
CONTINUOUS
62
7
370
0
100
AcDbTrace
10
800
20
887.73
30
0
11
797.918576711
21
900.23
31
0
12
802.081423289
22
900.23
32
0
13
802.081423289
23
900.23
33
0
0
SOLID
5
1C7
100
AcDbEntity
8
dimensions
6
CONTINUOUS
62
7
370
0
100
AcDbTrace
10
800
20
919.48
30
0
11
802.081423289
21
906.98
31
0
12
797.918576711
22
906.98
32
0
13
797.918576711
23
906.98
33
0
0
MTEXT
5
1C8
100
AcDbEntity
8
dimensions
6
CONTINUOUS
62
7
370
0
100
AcDbMText
10
790.625
20
940.660555556
30
0
40
12.5
41
36.1111111111
71
5
72
1
1
31.75
7
standard
210
0
220
0
230
1
50
90
73
2
44
1
0
LINE
5
1C9
100
AcDbEntity
8
dimensions
6
CONTINUOUS
62
7
370
0
100
AcDbLine
10
723.215
20
887.73
11
806.25
21
887.73
0
LINE
5
1CA
100
AcDbEntity
8
dimensions
6
CONTINUOUS
62
7
370
0
100
AcDbLine
10
730.327
20
919.48
11
806.25
21
919.48
0
ENDBLK
5
C2
330
C0
100
AcDbEntity
8
0
100
AcDbBlockEnd
0
BLOCK
5
C4
330
C3
100
AcDbEntity
8
0
100
AcDbBlockBegin
2
*D13
70
1
10
0
20
0
3
*D13
1

0
LINE
5
1CB
100
AcDbEntity
8
dimensions
6
CONTINUOUS
62
7
370
0
100
AcDbLine
10
740
20
1485.9
11
740
21
1587.5
0
SOLID
5
1CC
100
AcDbEntity
8
dimensions
6
CONTINUOUS
62
7
370
0
100
AcDbTrace
10
740
20
1485.9
30
0
11
737.918576711
21
1498.4
31
0
12
742.081423289
22
1498.4
32
0
13
742.081423289
23
1498.4
33
0
0
SOLID
5
1CD
100
AcDbEntity
8
dimensions
6
CONTINUOUS
62
7
370
0
100
AcDbTrace
10
740
20
1587.5
30
0
11
742.081423289
21
1575
31
0
12
737.918576711
22
1575
32
0
13
737.918576711
23
1575
33
0
0
MTEXT
5
1CE
100
AcDbEntity
8
dimensions
6
CONTINUOUS
62
7
370
0
100
AcDbMText
10
730.625
20
1536.7
30
0
40
12.5
41
33.3333333333
71
5
72
1
1
101.6
7
standard
210
0
220
0
230
1
50
90
73
2
44
1
0
LINE
5
1CF
100
AcDbEntity
8
dimensions
6
CONTINUOUS
62
7
370
0
100
AcDbLine
10
492.075
20
1485.9
11
746.25
21
1485.9
0
LINE
5
1D0
100
AcDbEntity
8
dimensions
6
CONTINUOUS
62
7
370
0
100
AcDbLine
10
669.875
20
1587.5
11
746.25
21
1587.5
0
ENDBLK
5
C5
330
C3
100
AcDbEntity
8
0
100
AcDbBlockEnd
0
BLOCK
5
C7
330
C6
100
AcDbEntity
8
0
100
AcDbBlockBegin
2
*D5
70
1
10
0
20
0
3
*D5
1

0
LINE
5
1D1
100
AcDbEntity
8
dimensions
6
CONTINUOUS
62
7
370
0
100
AcDbLine
10
800
20
745.49
11
800
21
887.73
0
SOLID
5
1D2
100
AcDbEntity
8
dimensions
6
CONTINUOUS
62
7
370
0
100
AcDbTrace
10
800
20
745.49
30
0
11
797.918576711
21
757.99
31
0
12
802.081423289
22
757.99
32
0
13
802.081423289
23
757.99
33
0
0
SOLID
5
1D3
100
AcDbEntity
8
dimensions
6
CONTINUOUS
62
7
370
0
100
AcDbTrace
10
800
20
887.73
30
0
11
802.081423289
21
875.23
31
0
12
797.918576711
22
875.23
32
0
13
797.918576711
23
875.23
33
0
0
MTEXT
5
1D4
100
AcDbEntity
8
dimensions
6
CONTINUOUS
62
7
370
0
100
AcDbMText
10
790.625
20
816.61
30
0
40
12.5
41
48.6111111111
71
5
72
1
1
142.24
7
standard
210
0
220
0
230
1
50
90
73
2
44
1
0
LINE
5
1D5
100
AcDbEntity
8
dimensions
6
CONTINUOUS
62
7
370
0
100
AcDbLine
10
657.937
20
745.49
11
806.25
21
745.49
0
LINE
5
1D6
100
AcDbEntity
8
dimensions
6
CONTINUOUS
62
7
370
0
100
AcDbLine
10
723.215
20
887.73
11
806.25
21
887.73
0
ENDBLK
5
C8
330
C6
100
AcDbEntity
8
0
100
AcDbBlockEnd
0
BLOCK
5
CA
330
C9
100
AcDbEntity
8
0
100
AcDbBlockBegin
2
*D40
70
1
10
0
20
0
3
*D40
1

0
LINE
5
1D7
100
AcDbEntity
8
dimensions
6
CONTINUOUS
62
7
370
0
100
AcDbLine
10
1635.16523118
20
1582.28001151
11
1665.75444629
21
1498.8548794
0
LINE
5
1D8
100
AcDbEntity
8
dimensions
6
CONTINUOUS
62
7
370
0
100
AcDbLine
10
1664.69401486
20
1593.1072322
11
1695.28322997
21
1509.68210009
0
LINE
5
1D9
100
AcDbEntity
8
dimensions
6
CONTINUOUS
62
7
370
0
100
AcDbLine
10
1663.60285473
20
1504.72285638
11
1693.13163841
21
1515.55007706
0
SOLID
5
1DA
100
AcDbEntity
8
dimensions
6
CONTINUOUS
62
7
370
0
100
AcDbTrace
10
1663.60285473
20
1504.72285638
30
0
11
1674.62226903
21
1510.98023852
31
0
12
1676.05534832
22
1507.07184046
32
0
13
1676.05534832
23
1507.07184046
33
0
0
SOLID
5
1DB
100
AcDbEntity
8
dimensions
6
CONTINUOUS
62
7
370
0
100
AcDbTrace
10
1693.13163841
20
1515.55007706
30
0
11
1682.11222411
21
1509.29269492
31
0
12
1680.67914482
22
1513.20109298
32
0
13
1680.67914482
23
1513.20109298
33
0
0
MTEXT
5
1DC
100
AcDbEntity
8
dimensions
6
CONTINUOUS
62
7
370
0
100
AcDbMText
10
1718.26613978
20
1534.75140172
30
0
40
12.5
41
54.1666666667
71
5
72
1
1
31.4512
7
standard
210
0
220
0
230
1
50
20.1363034282
73
2
44
1
0
ENDBLK
5
CB
330
C9
100
AcDbEntity
8
0
100
AcDbBlockEnd
0
BLOCK
5
CD
330
CC
100
AcDbEntity
8
0
100
AcDbBlockBegin
2
*D43
70
1
10
0
20
0
3
*D43
1

0
LINE
5
1DD
100
AcDbEntity
8
dimensions
6
CONTINUOUS
62
7
370
0
100
AcDbLine
10
1585.65
20
-100
11
1653.65
21
-100
0
SOLID
5
1DE
100
AcDbEntity
8
dimensions
6
CONTINUOUS
62
7
370
0
100
AcDbTrace
10
1610.65
20
-100
30
0
11
1598.15
21
-102.081423289
31
0
12
1598.15
22
-97.9185767111
32
0
13
1598.15
23
-97.9185767111
33
0
0
SOLID
5
1DF
100
AcDbEntity
8
dimensions
6
CONTINUOUS
62
7
370
0
100
AcDbTrace
10
1628.65
20
-100
30
0
11
1641.15
21
-97.9185767111
31
0
12
1641.15
22
-102.081423289
32
0
13
1641.15
23
-102.081423289
33
0
0
MTEXT
5
1E0
100
AcDbEntity
8
dimensions
6
CONTINUOUS
62
7
370
0
100
AcDbMText
10
1619.65
20
-90.625
30
0
40
12.5
41
12.5
71
5
72
1
1
18
7
standard
210
0
220
0
230
1
50
0
73
2
44
1
0
LINE
5
1E1
100
AcDbEntity
8
dimensions
6
CONTINUOUS
62
7
370
0
100
AcDbLine
10
1610.65
20
-3.125
11
1610.65
21
-106.25
0
LINE
5
1E2
100
AcDbEntity
8
dimensions
6
CONTINUOUS
62
7
370
0
100
AcDbLine
10
1628.65
20
-3.125
11
1628.65
21
-106.25
0
ENDBLK
5
CE
330
CC
100
AcDbEntity
8
0
100
AcDbBlockEnd
0
BLOCK
5
D0
330
CF
100
AcDbEntity
8
0
100
AcDbBlockBegin
2
*D34
70
1
10
0
20
0
3
*D34
1

0
LINE
5
1E3
100
AcDbEntity
8
dimensions
6
CONTINUOUS
62
7
370
0
100
AcDbLine
10
-100
20
-1215.257
11
-100
21
-1006.803
0
SOLID
5
1E4
100
AcDbEntity
8
dimensions
6
CONTINUOUS
62
7
370
0
100
AcDbTrace
10
-100
20
-1215.257
30
0
11
-102.081423289
21
-1202.757
31
0
12
-97.9185767111
22
-1202.757
32
0
13
-97.9185767111
23
-1202.757
33
0
0
SOLID
5
1E5
100
AcDbEntity
8
dimensions
6
CONTINUOUS
62
7
370
0
100
AcDbTrace
10
-100
20
-1006.803
30
0
11
-97.9185767111
21
-1019.303
31
0
12
-102.081423289
22
-1019.303
32
0
13
-102.081423289
23
-1019.303
33
0
0
MTEXT
5
1E6
100
AcDbEntity
8
dimensions
6
CONTINUOUS
62
7
370
0
100
AcDbMText
10
-109.375
20
-1111.03
30
0
40
12.5
41
61.1111111111
71
5
72
1
1
208.454
7
standard
210
0
220
0
230
1
50
90
73
2
44
1
0
LINE
5
1E7
100
AcDbEntity
8
dimensions
6
CONTINUOUS
62
7
370
0
100
AcDbLine
10
-3.125
20
-1215.257
11
-106.25
21
-1215.257
0
LINE
5
1E8
100
AcDbEntity
8
dimensions
6
CONTINUOUS
62
7
370
0
100
AcDbLine
10
-3.125
20
-1006.803
11
-106.25
21
-1006.803
0
ENDBLK
5
D1
330
CF
100
AcDbEntity
8
0
100
AcDbBlockEnd
0
BLOCK
5
D3
330
D2
100
AcDbEntity
8
0
100
AcDbBlockBegin
2
*D49
70
1
10
0
20
0
3
*D49
1

0
LINE
5
1E9
100
AcDbEntity
8
dimensions
6
CONTINUOUS
62
7
370
0
100
AcDbLine
10
1731.31355174
20
1.42108547152e-14
11
1731.31355174
21
50
0
SOLID
5
1EA
100
AcDbEntity
8
dimensions
6
CONTINUOUS
62
7
370
0
100
AcDbTrace
10
1731.31355174
20
1.42108547152e-14
30
0
11
1729.23212845
21
12.5
31
0
12
1733.39497503
22
12.5
32
0
13
1733.39497503
23
12.5
33
0
0
SOLID
5
1EB
100
AcDbEntity
8
dimensions
6
CONTINUOUS
62
7
370
0
100
AcDbTrace
10
1731.31355174
20
50
30
0
11
1733.39497503
21
37.5
31
0
12
1729.23212845
22
37.5
32
0
13
1729.23212845
23
37.5
33
0
0
MTEXT
5
1EC
100
AcDbEntity
8
dimensions
6
CONTINUOUS
62
7
370
0
100
AcDbMText
10
1721.93855174
20
25
30
0
40
12.5
41
15.2777777778
71
5
72
1
1
50
7
standard
210
0
220
0
230
1
50
90
73
2
44
1
0
LINE
5
1ED
100
AcDbEntity
8
dimensions
6
CONTINUOUS
62
7
370
0
100
AcDbLine
10
1613.775
20
6.87004164494e-15
11
1737.56355174
21
1.42108547152e-14
0
LINE
5
1EE
100
AcDbEntity
8
dimensions
6
CONTINUOUS
62
7
370
0
100
AcDbLine
10
1613.775
20
50
11
1737.56355174
21
50
0
ENDBLK
5
D4
330
D2
100
AcDbEntity
8
0
100
AcDbBlockEnd
0
BLOCK
5
D6
330
D5
100
AcDbEntity
8
0
100
AcDbBlockBegin
2
*D9
70
1
10
0
20
0
3
*D9
1

0
LINE
5
1EF
100
AcDbEntity
8
dimensions
6
CONTINUOUS
62
7
370
0
100
AcDbLine
10
610
20
1057.04
11
610
21
1134.298
0
SOLID
5
1F0
100
AcDbEntity
8
dimensions
6
CONTINUOUS
62
7
370
0
100
AcDbTrace
10
610
20
1082.04
30
0
11
612.081423289
21
1069.54
31
0
12
607.918576711
22
1069.54
32
0
13
607.918576711
23
1069.54
33
0
0
SOLID
5
1F1
100
AcDbEntity
8
dimensions
6
CONTINUOUS
62
7
370
0
100
AcDbTrace
10
610
20
1109.298
30
0
11
607.918576711
21
1121.798
31
0
12
612.081423289
22
1121.798
32
0
13
612.081423289
23
1121.798
33
0
0
MTEXT
5
1F2
100
AcDbEntity
8
dimensions
6
CONTINUOUS
62
7
370
0
100
AcDbMText
10
600.625
20
1136.72855556
30
0
40
12.5
41
48.6111111111
71
5
72
1
1
27.258
7
standard
210
0
220
0
230
1
50
90
73
2
44
1
0
LINE
5
1F3
100
AcDbEntity
8
dimensions
6
CONTINUOUS
62
7
370
0
100
AcDbLine
10
569.799
20
1082.04
11
616.25
21
1082.04
0
LINE
5
1F4
100
AcDbEntity
8
dimensions
6
CONTINUOUS
62
7
370
0
100
AcDbLine
10
541.097
20
1109.298
11
616.25
21
1109.298
0
ENDBLK
5
D7
330
D5
100
AcDbEntity
8
0
100
AcDbBlockEnd
0
BLOCK
5
D9
330
D8
100
AcDbEntity
8
0
100
AcDbBlockBegin
2
*D2
70
1
10
0
20
0
3
*D2
1

0
LINE
5
1F5
100
AcDbEntity
8
dimensions
6
CONTINUOUS
62
7
370
0
100
AcDbLine
10
-100
20
1651
11
-100
21
1778
0
SOLID
5
1F6
100
AcDbEntity
8
dimensions
6
CONTINUOUS
62
7
370
0
100
AcDbTrace
10
-100
20
1651
30
0
11
-102.081423289
21
1663.5
31
0
12
-97.9185767111
22
1663.5
32
0
13
-97.9185767111
23
1663.5
33
0
0
SOLID
5
1F7
100
AcDbEntity
8
dimensions
6
CONTINUOUS
62
7
370
0
100
AcDbTrace
10
-100
20
1778
30
0
11
-97.9185767111
21
1765.5
31
0
12
-102.081423289
22
1765.5
32
0
13
-102.081423289
23
1765.5
33
0
0
MTEXT
5
1F8
100
AcDbEntity
8
dimensions
6
CONTINUOUS
62
7
370
0
100
AcDbMText
10
-109.375
20
1714.5
30
0
40
12.5
41
22.2222222222
71
5
72
1
1
127
7
standard
210
0
220
0
230
1
50
90
73
2
44
1
0
LINE
5
1F9
100
AcDbEntity
8
dimensions
6
CONTINUOUS
62
7
370
0
100
AcDbLine
10
-3.125
20
1651
11
-106.25
21
1651
0
LINE
5
1FA
100
AcDbEntity
8
dimensions
6
CONTINUOUS
62
7
370
0
100
AcDbLine
10
593.775
20
1778
11
-106.25
21
1778
0
ENDBLK
5
DA
330
D8
100
AcDbEntity
8
0
100
AcDbBlockEnd
0
BLOCK
5
DC
330
DB
100
AcDbEntity
8
0
100
AcDbBlockBegin
2
*D15
70
1
10
0
20
0
3
*D15
1

0
LINE
5
1FB
100
AcDbEntity
8
dimensions
6
CONTINUOUS
62
7
370
0
100
AcDbLine
10
0
20
-100
11
647.7
21
-100
0
SOLID
5
1FC
100
AcDbEntity
8
dimensions
6
CONTINUOUS
62
7
370
0
100
AcDbTrace
10
0
20
-100
30
0
11
12.5
21
-97.9185767111
31
0
12
12.5
22
-102.081423289
32
0
13
12.5
23
-102.081423289
33
0
0
SOLID
5
1FD
100
AcDbEntity
8
dimensions
6
CONTINUOUS
62
7
370
0
100
AcDbTrace
10
647.7
20
-100
30
0
11
635.2
21
-102.081423289
31
0
12
635.2
22
-97.9185767111
32
0
13
635.2
23
-97.9185767111
33
0
0
MTEXT
5
1FE
100
AcDbEntity
8
dimensions
6
CONTINUOUS
62
7
370
0
100
AcDbMText
10
323.85
20
-90.625
30
0
40
12.5
41
40.2777777778
71
5
72
1
1
647.7
7
standard
210
0
220
0
230
1
50
0
73
2
44
1
0
LINE
5
1FF
100
AcDbEntity
8
dimensions
6
CONTINUOUS
62
7
370
0
100
AcDbLine
10
-5.74034228354e-16
20
-3.125
11
-1.14806845671e-15
21
-106.25
0
LINE
5
200
100
AcDbEntity
8
dimensions
6
CONTINUOUS
62
7
370
0
100
AcDbLine
10
647.7
20
-3.125
11
647.7
21
-106.25
0
ENDBLK
5
DD
330
DB
100
AcDbEntity
8
0
100
AcDbBlockEnd
0
BLOCK
5
DF
330
DE
100
AcDbEntity
8
0
100
AcDbBlockBegin
2
*D11
70
1
10
0
20
0
3
*D11
1

0
LINE
5
201
100
AcDbEntity
8
dimensions
6
CONTINUOUS
62
7
370
0
100
AcDbLine
10
320
20
1109.298
11
320
21
1430.1
0
SOLID
5
202
100
AcDbEntity
8
dimensions
6
CONTINUOUS
62
7
370
0
100
AcDbTrace
10
320
20
1109.298
30
0
11
317.918576711
21
1121.798
31
0
12
322.081423289
22
1121.798
32
0
13
322.081423289
23
1121.798
33
0
0
SOLID
5
203
100
AcDbEntity
8
dimensions
6
CONTINUOUS
62
7
370
0
100
AcDbTrace
10
320
20
1430.1
30
0
11
322.081423289
21
1417.6
31
0
12
317.918576711
22
1417.6
32
0
13
317.918576711
23
1417.6
33
0
0
MTEXT
5
204
100
AcDbEntity
8
dimensions
6
CONTINUOUS
62
7
370
0
100
AcDbMText
10
310.625
20
1269.699
30
0
40
12.5
41
58.3333333333
71
5
72
1
1
320.802
7
standard
210
0
220
0
230
1
50
90
73
2
44
1
0
LINE
5
205
100
AcDbEntity
8
dimensions
6
CONTINUOUS
62
7
370
0
100
AcDbLine
10
534.847
20
1109.298
11
313.75
21
1109.298
0
LINE
5
206
100
AcDbEntity
8
dimensions
6
CONTINUOUS
62
7
370
0
100
AcDbLine
10
460.425
20
1430.1
11
313.75
21
1430.1
0
ENDBLK
5
E0
330
DE
100
AcDbEntity
8
0
100
AcDbBlockEnd
0
ENDSEC
0
SECTION
2
ENTITIES
0
IMAGE
5
209
100
AcDbEntity
8
glass
6
ByLayer
62
256
370
-1
100
AcDbRasterImage
10
4000
20
0
30
0
11
0.352777777778
21
0
31
0
12
2.16006954077e-17
22
0.352777777778
32
0
13
1656
23
1601
340
207
70
1
280
0
281
50
282
50
283
0
360
208
0
LINE
5
20A
100
AcDbEntity
8
wood
6
ByLayer
62
256
370
-1
100
AcDbLine
10
0
20
0
11
1.011e-13
21
1651
0
LINE
5
20B
100
AcDbEntity
8
wood
6
ByLayer
62
256
370
-1
100
AcDbLine
10
0
20
0
11
647.7
21
0
0
LINE
5
20C
100
AcDbEntity
8
wood
6
ByLayer
62
256
370
-1
100
AcDbLine
10
1.011e-13
20
1651
11
596.9
21
1778
0
LINE
5
20D
100
AcDbEntity
8
wood
6
ByLayer
62
256
370
-1
100
AcDbLine
10
596.9
20
1778
11
666.75
21
1587.5
0
LINE
5
20E
100
AcDbEntity
8
wood
6
ByLayer
62
256
370
-1
100
AcDbLine
10
488.95
20
1485.9
11
666.75
21
1587.5
0
LINE
5
20F
100
AcDbEntity
8
wood
6
ByLayer
62
256
370
-1
100
AcDbLine
10
463.55
20
1430.1
11
537.972
21
1109.298
0
LINE
5
210
100
AcDbEntity
8
wood
6
ByLayer
62
256
370
-1
100
AcDbLine
10
647.7
20
0
11
647.7
21
713.74
0
LINE
5
211
100
AcDbEntity
8
wood
6
ByLayer
62
256
370
-1
100
AcDbLine
10
654.812
20
745.49
11
720.09
21
887.73
0
LINE
5
212
100
AcDbEntity
8
wood
6
ByLayer
62
256
370
-1
100
AcDbLine
10
727.202
20
919.48
11
727.202
21
1027.43
0
LINE
5
213
100
AcDbEntity
8
wood
6
ByLayer
62
256
370
-1
100
AcDbLine
10
697.484
20
1061.974
11
566.674
21
1082.04
0
LINE
5
214
100
AcDbEntity
8
wood
6
ByLayer
62
256
370
-1
100
AcDbLine
10
2000
20
0
11
2018
21
0
0
LINE
5
215
100
AcDbEntity
8
wood
6
ByLayer
62
256
370
-1
100
AcDbLine
10
2018
20
0
11
2602.2
21
0
0
LINE
5
216
100
AcDbEntity
8
wood
6
ByLayer
62
256
370
-1
100
AcDbLine
10
2602.2
20
0
11
2620.2
21
0
0
LINE
5
217
100
AcDbEntity
8
wood
6
ByLayer
62
256
370
-1
100
AcDbLine
10
2018
20
0
11
2018
21
904.24
0
LINE
5
218
100
AcDbEntity
8
wood
6
ByLayer
62
256
370
-1
100
AcDbLine
10
2602.2
20
0
11
2602.2
21
904.24
0
LINE
5
219
100
AcDbEntity
8
wood
6
ByLayer
62
256
370
-1
100
AcDbLine
10
2018
20
904.24
11
2602.2
21
904.24
0
LINE
5
21A
100
AcDbEntity
8
wood
6
ByLayer
62
256
370
-1
100
AcDbLine
10
2018
20
904.24
11
2018
21
1080.77
0
LINE
5
21B
100
AcDbEntity
8
wood
6
ByLayer
62
256
370
-1
100
AcDbLine
10
2602.2
20
904.24
11
2602.2
21
1080.77
0
LINE
5
21C
100
AcDbEntity
8
wood
6
ByLayer
62
256
370
-1
100
AcDbLine
10
2018
20
1080.77
11
2602.2
21
1080.77
0
LINE
5
21D
100
AcDbEntity
8
wood
6
ByLayer
62
256
370
-1
100
AcDbLine
10
2018
20
1080.77
11
2018
21
1516.38
0
LINE
5
21E
100
AcDbEntity
8
wood
6
ByLayer
62
256
370
-1
100
AcDbLine
10
2602.2
20
1080.77
11
2602.2
21
1516.38
0
LINE
5
21F
100
AcDbEntity
8
wood
6
ByLayer
62
256
370
-1
100
AcDbLine
10
2018
20
1516.38
11
2018
21
1584.96
0
LINE
5
220
100
AcDbEntity
8
wood
6
ByLayer
62
256
370
-1
100
AcDbLine
10
2602.2
20
1516.38
11
2602.2
21
1584.96
0
LINE
5
221
100
AcDbEntity
8
wood
6
ByLayer
62
256
370
-1
100
AcDbLine
10
2018
20
1516.38
11
2602.2
21
1516.38
0
LINE
5
222
100
AcDbEntity
8
wood
6
ByLayer
62
256
370
-1
100
AcDbLine
10
2602.2
20
1516.38
11
2602.2
21
1584.96
0
LINE
5
223
100
AcDbEntity
8
wood
6
ByLayer
62
256
370
-1
100
AcDbLine
10
2602.2
20
1584.96
11
2018
21
1584.96
0
LINE
5
224
100
AcDbEntity
8
wood
6
ByLayer
62
256
370
-1
100
AcDbLine
10
2018
20
1584.96
11
2018
21
1760.22
0
LINE
5
225
100
AcDbEntity
8
wood
6
ByLayer
62
256
370
-1
100
AcDbLine
10
2602.2
20
1584.96
11
2602.2
21
1760.22
0
LINE
5
226
100
AcDbEntity
8
wood
6
ByLayer
62
256
370
-1
100
AcDbLine
10
2018
20
1760.22
11
2602.2
21
1760.22
0
LINE
5
227
100
AcDbEntity
8
wood
6
ByLayer
62
256
370
-1
100
AcDbLine
10
2018
20
1760.22
11
2018
21
1779.27
0
LINE
5
228
100
AcDbEntity
8
wood
6
ByLayer
62
256
370
-1
100
AcDbLine
10
2602.2
20
1760.22
11
2602.2
21
1779.27
0
LINE
5
229
100
AcDbEntity
8
wood
6
ByLayer
62
256
370
-1
100
AcDbLine
10
2000
20
0
11
2000
21
1778
0
LINE
5
22A
100
AcDbEntity
8
wood
6
ByLayer
62
256
370
-1
100
AcDbLine
10
2620.2
20
0
11
2620.2
21
1778
0
LINE
5
22B
100
AcDbEntity
8
wood
6
ByLayer
62
256
370
-1
100
AcDbLine
10
2000
20
1778
11
2018
21
1778
0
LINE
5
22C
100
AcDbEntity
8
wood
6
ByLayer
62
256
370
-1
100
AcDbLine
10
2620.2
20
1778
11
2602.2
21
1778
0
LINE
5
22D
100
AcDbEntity
8
construction
6
ByLayer
62
256
370
-1
100
AcDbLine
10
596.9
20
1778
11
3000
21
1778
0
ARC
5
22E
100
AcDbEntity
8
curves_outer
6
ByLayer
62
256
370
-1
100
AcDbCircle
10
692.277
20
1027.43922347
40
34.925
100
AcDbArc
50
0
51
81.2789197931
0
ARC
5
22F
100
AcDbEntity
8
curves_outer
6
ByLayer
62
256
370
-1
100
AcDbCircle
10
692.277
20
910.858367743
40
34.925
100
AcDbArc
50
335.348257541
51
0
0
ARC
5
230
100
AcDbEntity
8
curves_outer
6
ByLayer
62
256
370
-1
100
AcDbCircle
10
682.625
20
722.361632257
40
34.925
100
AcDbArc
50
155.348257541
51
180
0
ARC
5
231
100
AcDbEntity
8
curves_outer
6
ByLayer
62
256
370
-1
100
AcDbCircle
10
572.145786453
20
1116.5341588
40
34.925
100
AcDbArc
50
193.060862316
51
261.278919793
0
ARC
5
232
100
AcDbEntity
8
curves_outer
6
ByLayer
62
256
370
-1
100
AcDbCircle
10
494.988738923
20
1449.12580055
40
34.925
100
AcDbArc
50
119.744881297
51
193.060862316
0
ARC
5
233
100
AcDbEntity
8
curves_outer
6
ByLayer
62
256
370
-1
100
AcDbCircle
10
623.800985437
20
1603.18261337
40
34.925
100
AcDbArc
50
299.744881297
51
20.1363034282
0
ARC
5
234
100
AcDbEntity
8
curves_outer
6
ByLayer
62
256
370
-1
100
AcDbCircle
10
574.538288717
20
1737.53542261
40
34.925
100
AcDbArc
50
20.1363034282
51
102.011478386
0
LINE
5
235
100
AcDbEntity
8
wood
6
ByLayer
62
256
370
-1
100
AcDbLine
10
1000
20
0
11
1647.7
21
0
0
LINE
5
236
100
AcDbEntity
8
wood
6
ByLayer
62
256
370
-1
100
AcDbLine
10
1000
20
1651
11
1596.9
21
1778
0
LINE
5
237
100
AcDbEntity
8
wood
6
ByLayer
62
256
370
-1
100
AcDbLine
10
1596.9
20
1778
11
1666.75
21
1587.5
0
LINE
5
238
100
AcDbEntity
8
wood
6
ByLayer
62
256
370
-1
100
AcDbLine
10
1488.95
20
1485.9
11
1666.75
21
1587.5
0
LINE
5
239
100
AcDbEntity
8
wood
6
ByLayer
62
256
370
-1
100
AcDbLine
10
1463.55
20
1430.1
11
1537.972
21
1109.298
0
LINE
5
23A
100
AcDbEntity
8
wood
6
ByLayer
62
256
370
-1
100
AcDbLine
10
1647.7
20
0
11
1647.7
21
713.74
0
LINE
5
23B
100
AcDbEntity
8
wood
6
ByLayer
62
256
370
-1
100
AcDbLine
10
1654.812
20
745.49
11
1720.09
21
887.73
0
LINE
5
23C
100
AcDbEntity
8
wood
6
ByLayer
62
256
370
-1
100
AcDbLine
10
1727.202
20
919.48
11
1727.202
21
1027.43
0
LINE
5
23D
100
AcDbEntity
8
wood
6
ByLayer
62
256
370
-1
100
AcDbLine
10
1697.484
20
1061.974
11
1566.674
21
1082.04
0
LINE
5
23E
100
AcDbEntity
8
wood_inner
6
ByLayer
62
256
370
-1
100
AcDbLine
10
1628.65
20
4.66575020806e-15
11
1628.65
21
903.224
0
LINE
5
23F
100
AcDbEntity
8
wood_inner
6
ByLayer
62
256
370
-1
100
AcDbLine
10
1628.65
20
903.224
11
1718.1634354
21
903.224
0
LINE
5
240
100
AcDbEntity
8
wood_inner
6
ByLayer
62
256
370
-1
100
AcDbLine
10
1718.1634354
20
903.224
11
1718.1634354
21
1030.224
0
LINE
5
241
100
AcDbEntity
8
wood_inner
6
ByLayer
62
256
370
-1
100
AcDbLine
10
1437.2394354
20
1516.634
11
1634.0894354
21
1585.214
0
LINE
5
242
100
AcDbEntity
8
wood_inner
6
ByLayer
62
256
370
-1
100
AcDbLine
10
1000
20
1619.25
11
1569.214
21
1759.458
0
ARC
5
243
100
AcDbEntity
8
curves_inner
6
ByLayer
62
256
370
-1
100
AcDbCircle
10
1692.7634354
20
1030.71346103
40
25.4
100
AcDbArc
50
0
51
80.9240024009
0
ARC
5
244
100
AcDbEntity
8
curves_outer
6
ByLayer
62
256
370
-1
100
AcDbCircle
10
1574.53911755
20
1737.54
40
34.925
100
AcDbArc
50
20.1363
51
102.011
0
ARC
5
245
100
AcDbEntity
8
curves_outer
6
ByLayer
62
256
370
-1
100
AcDbCircle
10
1623.79911755
20
1603.18
40
34.925
100
AcDbArc
50
299.745
51
20.1363
0
ARC
5
246
100
AcDbEntity
8
curves_outer
6
ByLayer
62
256
370
-1
100
AcDbCircle
10
1494.98911755
20
1449.13
40
34.925
100
AcDbArc
50
119.745
51
193.061
0
ARC
5
247
100
AcDbEntity
8
curves_outer
6
ByLayer
62
256
370
-1
100
AcDbCircle
10
1572.14911755
20
1116.53
40
34.925
100
AcDbArc
50
193.061
51
261.279
0
ARC
5
248
100
AcDbEntity
8
curves_outer
6
ByLayer
62
256
370
-1
100
AcDbCircle
10
1692.27911755
20
1027.44
40
34.925
100
AcDbArc
50
0
51
81.2789
0
ARC
5
249
100
AcDbEntity
8
curves_outer
6
ByLayer
62
256
370
-1
100
AcDbCircle
10
1692.27911755
20
910.858
40
34.925
100
AcDbArc
50
335.348
51
0
0
ARC
5
24A
100
AcDbEntity
8
curves_outer
6
ByLayer
62
256
370
-1
100
AcDbCircle
10
1682.62911755
20
722.362
40
34.925
100
AcDbArc
50
155.348
51
180
0
LINE
5
24B
100
AcDbEntity
8
wood_inner
6
ByLayer
62
256
370
-1
100
AcDbLine
10
1569.214
20
1759.458
11
1573.51905792
21
1741.98040073
0
LINE
5
24C
100
AcDbEntity
8
wood_inner
6
ByLayer
62
256
370
-1
100
AcDbLine
10
1700.1634354
20
1030.224
11
1718.1634354
21
1030.224
0
LINE
5
24D
100
AcDbEntity
8
wood_inner
6
ByLayer
62
256
370
-1
100
AcDbLine
10
1697.8434354
20
1055.624
11
1695.00403611
21
1037.84936044
0
LINE
5
24E
100
AcDbEntity
8
wood_inner
6
ByLayer
62
256
370
-1
100
AcDbLine
10
1628.65
20
903.224
11
1610.65
21
903.224
0
LINE
5
24F
100
AcDbEntity
8
wood_inner
6
ByLayer
62
256
370
-1
100
AcDbLine
10
1000
20
1600.71198486
11
1573.51905792
21
1741.98040073
0
LINE
5
250
100
AcDbEntity
8
construction
6
ByLayer
62
256
370
-1
100
AcDbLine
10
1569.214
20
1759.458
11
3000
21
1759.458
0
LINE
5
251
100
AcDbEntity
8
construction
6
ByLayer
62
256
370
-1
100
AcDbLine
10
1634.0894354
20
1585.214
11
3000
21
1585.214
0
LINE
5
252
100
AcDbEntity
8
construction
6
ByLayer
62
256
370
-1
100
AcDbLine
10
1437.2394354
20
1516.634
11
3000
21
1516.634
0
LINE
5
253
100
AcDbEntity
8
construction
6
ByLayer
62
256
370
-1
100
AcDbLine
10
1538.8394354
20
1081.024
11
3000
21
1081.024
0
LINE
5
254
100
AcDbEntity
8
construction
6
ByLayer
62
256
370
-1
100
AcDbLine
10
1718.1634354
20
903.224
11
3000
21
903.224
0
LINE
5
255
100
AcDbEntity
8
glass
6
ByLayer
62
256
370
-1
100
AcDbLine
10
4292.1
20
564.797222222
11
4292.1
21
0
0
LINE
5
256
100
AcDbEntity
8
glass
6
ByLayer
62
256
370
-1
100
AcDbLine
10
4000
20
282.398611111
11
4584.2
21
282.398611111
0
DIMENSION
5
257
100
AcDbEntity
8
dimensions
6
ByLayer
62
256
370
-1
100
AcDbDimension
2
*D1
10
-100
20
1651
30
0
11
-109.375
21
825.5
31
0
70
32
71
5
72
0
3
Standard
53
0
210
0
220
0
230
1
100
AcDbAlignedDimension
13
0
23
0
33
0
14
1.011e-13
24
1651
34
0
50
90
100
AcDbRotatedDimension
0
DIMENSION
5
258
100
AcDbEntity
8
dimensions
6
ByLayer
62
256
370
-1
100
AcDbDimension
2
*D2
10
-100
20
1778
30
0
11
-109.375
21
1714.5
31
0
70
32
71
5
72
0
3
Standard
53
0
210
0
220
0
230
1
100
AcDbAlignedDimension
13
1.011e-13
23
1651
33
0
14
596.9
24
1778
34
0
50
90
100
AcDbRotatedDimension
0
DIMENSION
5
259
100
AcDbEntity
8
dimensions
6
ByLayer
62
256
370
-1
100
AcDbDimension
2
*D3
10
800
20
713.74
30
0
11
790.625
21
356.87
31
0
70
32
71
5
72
0
3
Standard
53
0
210
0
220
0
230
1
100
AcDbAlignedDimension
13
647.7
23
0
33
0
14
647.7
24
713.74
34
0
50
90
100
AcDbRotatedDimension
0
DIMENSION
5
25A
100
AcDbEntity
8
dimensions
6
ByLayer
62
256
370
-1
100
AcDbDimension
2
*D4
10
800
20
745.49
30
0
11
790.625
21
729.615
31
0
70
32
71
5
72
0
3
Standard
53
0
210
0
220
0
230
1
100
AcDbAlignedDimension
13
647.7
23
713.74
33
0
14
654.812
24
745.49
34
0
50
90
100
AcDbRotatedDimension
0
DIMENSION
5
25B
100
AcDbEntity
8
dimensions
6
ByLayer
62
256
370
-1
100
AcDbDimension
2
*D5
10
800
20
887.73
30
0
11
790.625
21
816.61
31
0
70
32
71
5
72
0
3
Standard
53
0
210
0
220
0
230
1
100
AcDbAlignedDimension
13
654.812
23
745.49
33
0
14
720.09
24
887.73
34
0
50
90
100
AcDbRotatedDimension
0
DIMENSION
5
25C
100
AcDbEntity
8
dimensions
6
ByLayer
62
256
370
-1
100
AcDbDimension
2
*D6
10
800
20
919.48
30
0
11
790.625
21
903.605
31
0
70
32
71
5
72
0
3
Standard
53
0
210
0
220
0
230
1
100
AcDbAlignedDimension
13
720.09
23
887.73
33
0
14
727.202
24
919.48
34
0
50
90
100
AcDbRotatedDimension
0
DIMENSION
5
25D
100
AcDbEntity
8
dimensions
6
ByLayer
62
256
370
-1
100
AcDbDimension
2
*D7
10
830
20
1027.43922347
30
0
11
820.625
21
973.459611735
31
0
70
32
71
5
72
0
3
Standard
53
0
210
0
220
0
230
1
100
AcDbAlignedDimension
13
727.202
23
919.48
33
0
14
727.202
24
1027.43922347
34
0
50
90
100
AcDbRotatedDimension
0
DIMENSION
5
25E
100
AcDbEntity
8
dimensions
6
ByLayer
62
256
370
-1
100
AcDbDimension
2
*D8
10
800
20
1061.96042649
30
0
11
790.625
21
1044.69521325
31
0
70
32
71
5
72
0
3
Standard
53
0
210
0
220
0
230
1
100
AcDbAlignedDimension
13
727.202
23
1027.43
33
0
14
697.572485512
24
1061.96042649
34
0
50
90
100
AcDbRotatedDimension
0
DIMENSION
5
25F
100
AcDbEntity
8
dimensions
6
ByLayer
62
256
370
-1
100
AcDbDimension
2
*D9
10
610
20
1109.298
30
0
11
600.625
21
1095.669
31
0
70
32
71
5
72
0
3
Standard
53
0
210
0
220
0
230
1
100
AcDbAlignedDimension
13
566.674
23
1082.04
33
0
14
537.972
24
1109.298
34
0
50
90
100
AcDbRotatedDimension
0
DIMENSION
5
260
100
AcDbEntity
8
dimensions
6
ByLayer
62
256
370
-1
100
AcDbDimension
2
*D10
10
660
20
1082.04
30
0
11
650.625
21
1072.007
31
0
70
32
71
5
72
0
3
Standard
53
0
210
0
220
0
230
1
100
AcDbAlignedDimension
13
697.484
23
1061.974
33
0
14
566.674
24
1082.04
34
0
50
90
100
AcDbRotatedDimension
0
DIMENSION
5
261
100
AcDbEntity
8
dimensions
6
ByLayer
62
256
370
-1
100
AcDbDimension
2
*D11
10
320
20
1430.1
30
0
11
310.625
21
1269.699
31
0
70
32
71
5
72
0
3
Standard
53
0
210
0
220
0
230
1
100
AcDbAlignedDimension
13
537.972
23
1109.298
33
0
14
463.55
24
1430.1
34
0
50
90
100
AcDbRotatedDimension
0
DIMENSION
5
262
100
AcDbEntity
8
dimensions
6
ByLayer
62
256
370
-1
100
AcDbDimension
2
*D12
10
630
20
1485.9
30
0
11
620.625
21
1458
31
0
70
32
71
5
72
0
3
Standard
53
0
210
0
220
0
230
1
100
AcDbAlignedDimension
13
463.55
23
1430.1
33
0
14
488.95
24
1485.9
34
0
50
90
100
AcDbRotatedDimension
0
DIMENSION
5
263
100
AcDbEntity
8
dimensions
6
ByLayer
62
256
370
-1
100
AcDbDimension
2
*D13
10
740
20
1587.5
30
0
11
730.625
21
1536.7
31
0
70
32
71
5
72
0
3
Standard
53
0
210
0
220
0
230
1
100
AcDbAlignedDimension
13
488.95
23
1485.9
33
0
14
666.75
24
1587.5
34
0
50
90
100
AcDbRotatedDimension
0
DIMENSION
5
264
100
AcDbEntity
8
dimensions
6
ByLayer
62
256
370
-1
100
AcDbDimension
2
*D14
10
740
20
1778
30
0
11
730.625
21
1682.75
31
0
70
32
71
5
72
0
3
Standard
53
0
210
0
220
0
230
1
100
AcDbAlignedDimension
13
666.75
23
1587.5
33
0
14
596.9
24
1778
34
0
50
90
100
AcDbRotatedDimension
0
DIMENSION
5
265
100
AcDbEntity
8
dimensions
6
ByLayer
62
256
370
-1
100
AcDbDimension
2
*D15
10
647.7
20
-100
30
0
11
323.85
21
-90.625
31
0
70
32
71
5
72
0
3
Standard
53
0
210
0
220
0
230
1
100
AcDbAlignedDimension
13
0
23
0
33
0
14
647.7
24
0
34
0
100
AcDbRotatedDimension
0
DIMENSION
5
266
100
AcDbEntity
8
dimensions
6
ByLayer
62
256
370
-1
100
AcDbDimension
2
*D16
10
654.812
20
-200
30
0
11
651.256
21
-190.625
31
0
70
32
71
5
72
0
3
Standard
53
0
210
0
220
0
230
1
100
AcDbAlignedDimension
13
647.7
23
0
33
0
14
654.812
24
745.49
34
0
100
AcDbRotatedDimension
0
DIMENSION
5
267
100
AcDbEntity
8
dimensions
6
ByLayer
62
256
370
-1
100
AcDbDimension
2
*D17
10
720.09
20
-100
30
0
11
687.451
21
-90.625
31
0
70
32
71
5
72
0
3
Standard
53
0
210
0
220
0
230
1
100
AcDbAlignedDimension
13
654.812
23
745.49
33
0
14
720.09
24
887.73
34
0
100
AcDbRotatedDimension
0
DIMENSION
5
268
100
AcDbEntity
8
dimensions
6
ByLayer
62
256
370
-1
100
AcDbDimension
2
*D18
10
727.202
20
-200
30
0
11
723.646
21
-190.625
31
0
70
32
71
5
72
0
3
Standard
53
0
210
0
220
0
230
1
100
AcDbAlignedDimension
13
720.09
23
887.73
33
0
14
727.202
24
919.48
34
0
100
AcDbRotatedDimension
0
DIMENSION
5
269
100
AcDbEntity
8
dimensions
6
ByLayer
62
256
370
-1
100
AcDbDimension
2
*D19
10
566.674
20
1010
30
0
11
552.399138299
21
1019.375
31
0
70
32
71
5
72
0
3
Standard
53
0
210
0
220
0
230
1
100
AcDbAlignedDimension
13
538.124276598
23
1108.64159951
33
0
14
566.674
24
1082.04
34
0
100
AcDbRotatedDimension
0
DIMENSION
5
26A
100
AcDbEntity
8
dimensions
6
ByLayer
62
256
370
-1
100
AcDbDimension
2
*D20
10
697.484
20
950
30
0
11
632.079
21
959.375
31
0
70
32
71
5
72
0
3
Standard
53
0
210
0
220
0
230
1
100
AcDbAlignedDimension
13
566.674
23
1082.04
33
0
14
697.484
24
1061.974
34
0
100
AcDbRotatedDimension
0
DIMENSION
5
26B
100
AcDbEntity
8
dimensions
6
ByLayer
62
256
370
-1
100
AcDbDimension
2
*D21
10
727.202
20
1170
30
0
11
712.343
21
1179.375
31
0
70
32
71
5
72
0
3
Standard
53
0
210
0
220
0
230
1
100
AcDbAlignedDimension
13
697.484
23
1061.974
33
0
14
727.202
24
1027.43
34
0
100
AcDbRotatedDimension
0
DIMENSION
5
26C
100
AcDbEntity
8
dimensions
6
ByLayer
62
256
370
-1
100
AcDbDimension
2
*D22
10
463.55
20
1830
30
0
11
231.775
21
1839.375
31
0
70
32
71
5
72
0
3
Standard
53
0
210
0
220
0
230
1
100
AcDbAlignedDimension
13
1.011e-13
23
1651
33
0
14
463.55
24
1430.1
34
0
100
AcDbRotatedDimension
0
DIMENSION
5
26D
100
AcDbEntity
8
dimensions
6
ByLayer
62
256
370
-1
100
AcDbDimension
2
*D23
10
488.95
20
1900
30
0
11
476.25
21
1909.375
31
0
70
32
71
5
72
0
3
Standard
53
0
210
0
220
0
230
1
100
AcDbAlignedDimension
13
463.55
23
1430.1
33
0
14
488.95
24
1485.9
34
0
100
AcDbRotatedDimension
0
DIMENSION
5
26E
100
AcDbEntity
8
dimensions
6
ByLayer
62
256
370
-1
100
AcDbDimension
2
*D24
10
596.9
20
1940
30
0
11
298.45
21
1949.375
31
0
70
32
71
5
72
0
3
Standard
53
0
210
0
220
0
230
1
100
AcDbAlignedDimension
13
1.011e-13
23
1651
33
0
14
596.9
24
1778
34
0
100
AcDbRotatedDimension
0
DIMENSION
5
26F
100
AcDbEntity
8
dimensions
6
ByLayer
62
256
370
-1
100
AcDbDimension
2
*D25
10
666.75
20
1940
30
0
11
631.825
21
1949.375
31
0
70
32
71
5
72
0
3
Standard
53
0
210
0
220
0
230
1
100
AcDbAlignedDimension
13
596.9
23
1778
33
0
14
666.75
24
1587.5
34
0
100
AcDbRotatedDimension
0
DIMENSION
5
270
100
AcDbEntity
8
dimensions
6
ByLayer
62
256
370
-1
100
AcDbDimension
2
*D26
10
-140
20
1061.96042649
30
0
11
-149.375
21
530.980213247
31
0
70
32
71
5
3
Standard
53
0
210
0
220
0
230
1
100
AcDbAlignedDimension
13
0
23
0
33
0
14
697.572485512
24
1061.96042649
34
0
50
90
100
AcDbRotatedDimension
0
DIMENSION
5
271
100
AcDbEntity
8
dimensions
6
ByLayer
62
256
370
-1
100
AcDbDimension
2
*D27
10
-180
20
1082.01295578
30
0
11
-189.375
21
541.006477888
31
0
70
32
71
5
3
Standard
53
0
210
0
220
0
230
1
100
AcDbAlignedDimension
13
0
23
0
33
0
14
566.850300941
24
1082.01295578
34
0
50
90
100
AcDbRotatedDimension
0
DIMENSION
5
272
100
AcDbEntity
8
dimensions
6
ByLayer
62
256
370
-1
100
AcDbDimension
2
*D28
10
-220
20
1109.298
30
0
11
-229.375
21
554.649
31
0
70
32
71
5
3
Standard
53
0
210
0
220
0
230
1
100
AcDbAlignedDimension
13
0
23
0
33
0
14
537.972
24
1109.298
34
0
50
90
100
AcDbRotatedDimension
0
LINE
5
273
100
AcDbEntity
8
glass
6
ByLayer
62
256
370
-1
100
AcDbLine
10
4700
20
0
11
5110
21
0
0
LINE
5
274
100
AcDbEntity
8
glass
6
ByLayer
62
256
370
-1
100
AcDbLine
10
4700
20
0
11
4700
21
340
0
LINE
5
275
100
AcDbEntity
8
glass
6
ByLayer
62
256
370
-1
100
AcDbLine
10
5110
20
0
11
5110
21
340
0
LINE
5
276
100
AcDbEntity
8
glass
6
ByLayer
62
256
370
-1
100
AcDbLine
10
4700
20
340
11
5110
21
340
0
LINE
5
277
100
AcDbEntity
8
glass
6
ByLayer
62
256
370
-1
100
AcDbLine
10
5110
20
340
11
4700
21
0
0
LINE
5
278
100
AcDbEntity
8
glass
6
ByLayer
62
256
370
-1
100
AcDbLine
10
4700
20
340
11
5110
21
0
0
LINE
5
279
100
AcDbEntity
8
glass
6
ByLayer
62
256
370
-1
100
AcDbLine
10
4087.24524201
20
138.629471288
11
4497.24524201
21
138.629471288
0
LINE
5
27A
100
AcDbEntity
8
glass
6
ByLayer
62
256
370
-1
100
AcDbLine
10
4087.24524201
20
138.629471288
11
4087.24524201
21
478.629471288
0
LINE
5
27B
100
AcDbEntity
8
glass
6
ByLayer
62
256
370
-1
100
AcDbLine
10
4497.24524201
20
138.629471288
11
4497.24524201
21
478.629471288
0
LINE
5
27C
100
AcDbEntity
8
glass
6
ByLayer
62
256
370
-1
100
AcDbLine
10
4087.24524201
20
478.629471288
11
4497.24524201
21
478.629471288
0
LINE
5
27D
100
AcDbEntity
8
glass
6
ByLayer
62
256
370
-1
100
AcDbLine
10
4497.24524201
20
478.629471288
11
4087.24524201
21
138.629471288
0
LINE
5
27E
100
AcDbEntity
8
glass
6
ByLayer
62
256
370
-1
100
AcDbLine
10
4087.24524201
20
478.629471288
11
4497.24524201
21
138.629471288
0
LINE
5
27F
100
AcDbEntity
8
glass
6
ByLayer
62
256
370
-1
100
AcDbLine
10
5692.1
20
564.797222222
11
5692.1
21
0
0
LINE
5
280
100
AcDbEntity
8
glass
6
ByLayer
62
256
370
-1
100
AcDbLine
10
5400
20
282.398611111
11
5984.2
21
282.398611111
0
LINE
5
281
100
AcDbEntity
8
glass
6
ByLayer
62
256
370
-1
100
AcDbLine
10
5487.24524201
20
138.629471288
11
5897.24524201
21
138.629471288
0
LINE
5
282
100
AcDbEntity
8
glass
6
ByLayer
62
256
370
-1
100
AcDbLine
10
5487.24524201
20
138.629471288
11
5487.24524201
21
478.629471288
0
LINE
5
283
100
AcDbEntity
8
glass
6
ByLayer
62
256
370
-1
100
AcDbLine
10
5897.24524201
20
138.629471288
11
5897.24524201
21
478.629471288
0
LINE
5
284
100
AcDbEntity
8
glass
6
ByLayer
62
256
370
-1
100
AcDbLine
10
5487.24524201
20
478.629471288
11
5897.24524201
21
478.629471288
0
LINE
5
285
100
AcDbEntity
8
glass
6
ByLayer
62
256
370
-1
100
AcDbLine
10
5897.24524201
20
478.629471288
11
5487.24524201
21
138.629471288
0
LINE
5
286
100
AcDbEntity
8
glass
6
ByLayer
62
256
370
-1
100
AcDbLine
10
5487.24524201
20
478.629471288
11
5897.24524201
21
138.629471288
0
LINE
5
287
100
AcDbEntity
8
wood_inner
6
ByLayer
62
256
370
-1
100
AcDbLine
10
1431.31755804
20
1533.63198131
11
1628.16755804
21
1602.21198131
0
LINE
5
288
100
AcDbEntity
8
wood_inner
6
ByLayer
62
256
370
-1
100
AcDbLine
10
1536.00003611
20
1063.24936044
11
1695.00403611
21
1037.84936044
0
LINE
5
289
100
AcDbEntity
8
wood_inner
6
ByLayer
62
256
370
-1
100
AcDbLine
10
1431.31755804
20
1533.63198131
11
1437.2394354
21
1516.634
0
LINE
5
28A
100
AcDbEntity
8
wood_inner
6
ByLayer
62
256
370
-1
100
AcDbLine
10
1538.8394354
20
1081.024
11
1536.00003611
21
1063.24936044
0
LINE
5
28B
100
AcDbEntity
8
wood_inner
6
ByLayer
62
256
370
-1
100
AcDbLine
10
1610.65
20
6.87004164494e-15
11
1610.65
21
903.224
0
LINE
5
28C
100
AcDbEntity
8
wood_inner
6
ByLayer
62
256
370
-1
100
AcDbLine
10
1628.65
20
903.224
11
1628.65
21
921.224
0
LINE
5
28D
100
AcDbEntity
8
wood_inner
6
ByLayer
62
256
370
-1
100
AcDbLine
10
1628.65
20
921.224
11
1700.1634354
21
921.224
0
LINE
5
28E
100
AcDbEntity
8
glass
6
ByLayer
62
256
370
-1
100
AcDbLine
10
1427.95500176
20
1547.7864943
11
1487.14697241
21
1298.62084537
0
LINE
5
28F
100
AcDbEntity
8
glass
6
ByLayer
62
256
370
-1
100
AcDbLine
10
1487.14697241
20
1298.62084537
11
1558.49629432
21
998.279432533
0
LINE
5
290
100
AcDbEntity
8
glass
6
ByLayer
62
256
370
-1
100
AcDbLine
10
1481.3094328
20
1297.23407526
11
1552.65875471
21
996.892662428
0
LINE
5
291
100
AcDbEntity
8
glass
6
ByLayer
62
256
370
-1
100
AcDbLine
10
1422.11746215
20
1546.3997242
11
1481.3094328
21
1297.23407526
0
LINE
5
292
100
AcDbEntity
8
glass
6
ByLayer
62
256
370
-1
100
AcDbLine
10
1422.11746215
20
1546.3997242
11
1427.95500176
21
1547.7864943
0
LINE
5
293
100
AcDbEntity
8
glass
6
ByLayer
62
256
370
-1
100
AcDbLine
10
1552.65875471
20
996.892662428
11
1558.49629432
21
998.279432533
0
LINE
5
294
100
AcDbEntity
8
construction
6
ByLayer
62
256
370
-1
100
AcDbLine
10
1481.3094328
20
1297.23407526
11
2460.07024042
21
1529.74919622
0
LINE
5
295
100
AcDbEntity
8
construction
6
ByLayer
62
256
370
-1
100
AcDbLine
10
1533.00189579
20
1079.63722989
11
2511.76270341
21
1312.15235085
0
LINE
5
296
100
AcDbEntity
8
construction
6
ByLayer
62
256
370
-1
100
AcDbLine
10
1429.6187056
20
1514.82361395
11
2410.16270341
21
1747.76235085
0
LINE
5
297
100
AcDbEntity
8
wood_inner
6
ByLayer
62
256
370
-1
100
AcDbLine
10
1538.8394354
20
1081.024
11
1700.1634354
21
1055.25339297
0
CIRCLE
5
298
100
AcDbEntity
8
construction
6
ByLayer
62
256
370
-1
100
AcDbCircle
10
1692.7634354
20
1030.71346103
40
25.4
0
LINE
5
299
100
AcDbEntity
8
construction
6
ByLayer
62
256
370
-1
100
AcDbLine
10
1692.7634354
20
1030.71346103
11
1718.1634354
21
1030.71346103
0
LINE
5
29A
100
AcDbEntity
8
construction
6
ByLayer
62
256
370
-1
100
AcDbLine
10
1692.7634354
20
1030.71346103
11
1692.7634354
21
1056.4355016
0
LINE
5
29B
100
AcDbEntity
8
wood_inner
6
ByLayer
62
256
370
-1
100
AcDbLine
10
1700.1634354
20
903.224
11
1700.1634354
21
1030.71346103
0
LINE
5
29C
100
AcDbEntity
8
wood_inner
6
ByLayer
62
256
370
-1
100
AcDbLine
10
1628.65
20
921.224
11
1628.65
21
1048.44904672
0
LINE
5
29D
100
AcDbEntity
8
wood_inner
6
ByLayer
62
256
370
-1
100
AcDbLine
10
0
20
-3000
11
584.2
21
-3000
0
LINE
5
29E
100
AcDbEntity
8
wood_inner
6
ByLayer
62
256
370
-1
100
AcDbLine
10
0
20
-3000
11
3.61663606778e-14
21
-2409.339
0
LINE
5
29F
100
AcDbEntity
8
wood_inner
6
ByLayer
62
256
370
-1
100
AcDbLine
10
584.2
20
-3000
11
584.2
21
-2409.339
0
LINE
5
2A0
100
AcDbEntity
8
wood_inner
6
ByLayer
62
256
370
-1
100
AcDbLine
10
3.61663606778e-14
20
-2409.339
11
584.2
21
-2409.339
0
MTEXT
5
2A1
100
AcDbEntity
8
text
6
ByLayer
62
256
370
-1
100
AcDbMText
10
246.354405624
20
-2672.44457265
30
0
40
100
41
211.111111111
71
5
72
1
1
Top
7
standard
210
0
220
0
230
1
50
0
73
2
44
1
0
LINE
5
2A2
100
AcDbEntity
8
wood_inner
6
ByLayer
62
256
370
-1
100
AcDbLine
10
3.61663606778e-14
20
-2409.339
11
9.1471053144e-14
21
-1506.115
0
LINE
5
2A3
100
AcDbEntity
8
wood_inner
6
ByLayer
62
256
370
-1
100
AcDbLine
10
584.2
20
-2409.339
11
584.2
21
-1506.115
0
LINE
5
2A4
100
AcDbEntity
8
wood_inner
6
ByLayer
62
256
370
-1
100
AcDbLine
10
9.1471053144e-14
20
-1506.115
11
584.2
21
-1506.115
0
MTEXT
5
2A5
100
AcDbEntity
8
text
6
ByLayer
62
256
370
-1
100
AcDbMText
10
285.564292454
20
-1959.83165095
30
0
40
100
41
233.333333333
71
5
72
1
1
Coin
7
standard
210
0
220
0
230
1
50
0
73
2
44
1
0
LINE
5
2A6
100
AcDbEntity
8
wood_inner
6
ByLayer
62
256
370
-1
100
AcDbLine
10
9.1471053144e-14
20
-1506.115
11
1.01474188915e-13
21
-1342.746
0
LINE
5
2A7
100
AcDbEntity
8
wood_inner
6
ByLayer
62
256
370
-1
100
AcDbLine
10
584.2
20
-1506.115
11
584.2
21
-1342.746
0
LINE
5
2A8
100
AcDbEntity
8
wood_inner
6
ByLayer
62
256
370
-1
100
AcDbLine
10
1.01474188915e-13
20
-1342.746
11
584.2
21
-1342.746
0
LINE
5
2A9
100
AcDbEntity
8
wood_inner
6
ByLayer
62
256
370
-1
100
AcDbLine
10
1.01474188915e-13
20
-1342.746
11
1.09280380887e-13
21
-1215.257
0
LINE
5
2AA
100
AcDbEntity
8
wood_inner
6
ByLayer
62
256
370
-1
100
AcDbLine
10
584.2
20
-1342.746
11
584.2
21
-1215.257
0
LINE
5
2AB
100
AcDbEntity
8
wood_inner
6
ByLayer
62
256
370
-1
100
AcDbLine
10
1.09280380887e-13
20
-1215.257
11
584.2
21
-1215.257
0
MTEXT
5
2AC
100
AcDbEntity
8
text
6
ByLayer
62
256
370
-1
100
AcDbMText
10
289.693943307
20
-1274.14061791
30
0
40
80
41
460
71
5
72
1
1
CP Front
7
standard
210
0
220
0
230
1
50
0
73
2
44
1
0
MTEXT
5
2AD
100
AcDbEntity
8
text
6
ByLayer
62
256
370
-1
100
AcDbMText
10
271.748300801
20
-1413.86026313
30
0
40
80
41
362.222222222
71
5
72
1
1
CP Top
7
standard
210
0
220
0
230
1
50
0
73
2
44
1
0
LINE
5
2AE
100
AcDbEntity
8
wood_inner
6
ByLayer
62
256
370
-1
100
AcDbLine
10
1.09280380887e-13
20
-1215.257
11
1.22044085531e-13
21
-1006.803
0
LINE
5
2AF
100
AcDbEntity
8
wood_inner
6
ByLayer
62
256
370
-1
100
AcDbLine
10
584.2
20
-1215.257
11
584.2
21
-1006.803
0
LINE
5
2B0
100
AcDbEntity
8
wood_inner
6
ByLayer
62
256
370
-1
100
AcDbLine
10
1.22044085531e-13
20
-1006.803
11
584.2
21
-1006.803
0
MTEXT
5
2B1
100
AcDbEntity
8
text
6
ByLayer
62
256
370
-1
100
AcDbMText
10
287.911396228
20
-1098.44456604
30
0
40
80
41
408.888871929
71
5
72
1
1
Speaker
7
standard
210
0
220
0
230
1
50
0
73
2
44
1
0
LINE
5
2B2
100
AcDbEntity
8
wood
6
ByLayer
62
256
370
-1
100
AcDbLine
10
1000
20
0
11
1000
21
1651
0
LINE
5
2B3
100
AcDbEntity
8
wood_inner
6
ByLayer
62
256
370
-1
100
AcDbLine
10
1000
20
68
11
1610.65
21
68
0
LINE
5
2B4
100
AcDbEntity
8
wood_inner
6
ByLayer
62
256
370
-1
100
AcDbLine
10
1000
20
50
11
1610.65
21
50
0
LINE
5
2B5
100
AcDbEntity
8
construction
6
ByLayer
62
256
370
-1
100
AcDbLine
10
1000
20
50
11
1062.5
21
50
0
LINE
5
2B6
100
AcDbEntity
8
construction
6
ByLayer
62
256
370
-1
100
AcDbLine
10
1062.5
20
50
11
1125
21
50
0
LINE
5
2B7
100
AcDbEntity
8
construction
6
ByLayer
62
256
370
-1
100
AcDbLine
10
1062.5
20
50
11
1062.5
21
-11.5
0
LINE
5
2B8
100
AcDbEntity
8
construction
6
ByLayer
62
256
370
-1
100
AcDbLine
10
1062.5
20
-11.5
11
1062.5
21
-49
0
CIRCLE
5
2B9
100
AcDbEntity
8
wood_inner
6
ByLayer
62
256
370
-1
100
AcDbCircle
10
1062.5
20
-11.5
40
37.5
0
LINE
5
2BA
100
AcDbEntity
8
wood_inner
6
ByLayer
62
256
370
-1
100
AcDbLine
10
1000
20
50
11
1062.5
21
-11.5
0
LINE
5
2BB
100
AcDbEntity
8
wood_inner
6
ByLayer
62
256
370
-1
100
AcDbLine
10
1062.5
20
-11.5
11
1125
21
50
0
LINE
5
2BC
100
AcDbEntity
8
wood_inner
6
ByLayer
62
256
370
-1
100
AcDbLine
10
1125
20
50
11
1125
21
-49
0
LINE
5
2BD
100
AcDbEntity
8
wood_inner
6
ByLayer
62
256
370
-1
100
AcDbLine
10
1125
20
-49
11
1610.65
21
-49
0
LINE
5
2BE
100
AcDbEntity
8
wood_inner
6
ByLayer
62
256
370
-1
100
AcDbLine
10
1018
20
68
11
1018
21
1605.14571979
0
LINE
5
2BF
100
AcDbEntity
8
wood_inner
6
ByLayer
62
256
370
-1
100
AcDbLine
10
1610.65
20
0
11
1610.65
21
-49
0
LINE
5
2C0
100
AcDbEntity
8
construction
6
ByLayer
62
256
370
-1
100
AcDbLine
10
1000
20
0
11
1000
21
18
0
LINE
5
2C1
100
AcDbEntity
8
construction
6
ByLayer
62
256
370
-1
100
AcDbLine
10
1000
20
0
11
1018
21
0
0
LINE
5
2C2
100
AcDbEntity
8
construction
6
ByLayer
62
256
370
-1
100
AcDbLine
10
1000
20
18
11
1067
21
-49
0
LINE
5
2C3
100
AcDbEntity
8
wood_inner
6
ByLayer
62
256
370
-1
100
AcDbLine
10
1.22044085531e-13
20
-1006.803
11
1.26422873732e-13
21
-935.2896
0
LINE
5
2C4
100
AcDbEntity
8
wood_inner
6
ByLayer
62
256
370
-1
100
AcDbLine
10
584.2
20
-1006.803
11
584.2
21
-935.2896
0
LINE
5
2C5
100
AcDbEntity
8
wood_inner
6
ByLayer
62
256
370
-1
100
AcDbLine
10
584.2
20
-935.2896
11
1.26422873732e-13
21
-935.2896
0
MTEXT
5
2C6
100
AcDbEntity
8
text
6
ByLayer
62
256
370
-1
100
AcDbMText
10
284.669163405
20
-969.679974482
30
0
40
50
41
304.166666667
71
5
72
1
1
CP Lower
7
standard
210
0
220
0
230
1
50
0
73
2
44
1
0
LINE
5
2C7
100
AcDbEntity
8
wood_inner
6
ByLayer
62
256
370
-1
100
AcDbLine
10
0
20
-3000
11
-3.73902934981e-14
21
-3610.65
0
LINE
5
2C8
100
AcDbEntity
8
wood_inner
6
ByLayer
62
256
370
-1
100
AcDbLine
10
584.2
20
-3000
11
584.2
21
-3610.65
0
LINE
5
2C9
100
AcDbEntity
8
wood_inner
6
ByLayer
62
256
370
-1
100
AcDbLine
10
-3.73902934981e-14
20
-3610.65
11
584.2
21
-3610.65
0
MTEXT
5
2CA
100
AcDbEntity
8
text
6
ByLayer
62
256
370
-1
100
AcDbMText
10
290.331846994
20
-3292.97436986
30
0
40
100
41
311.111111111
71
5
72
1
1
Floor
7
standard
210
0
220
0
230
1
50
0
73
2
44
1
0
DIMENSION
5
2CB
100
AcDbEntity
8
dimensions
6
ByLayer
62
256
370
-1
100
AcDbDimension
2
*D29
10
-100
20
-3000
30
0
11
-109.375
21
-3305.325
31
0
70
32
71
5
3
Standard
53
0
210
0
220
0
230
1
100
AcDbAlignedDimension
13
-3.73902934981e-14
23
-3610.65
33
0
14
0
24
-3000
34
0
50
90
100
AcDbRotatedDimension
0
DIMENSION
5
2CC
100
AcDbEntity
8
dimensions
6
ByLayer
62
256
370
-1
100
AcDbDimension
2
*D30
10
-100
20
-2409.339
30
0
11
-109.375
21
-2704.6695
31
0
70
32
71
5
3
Standard
53
0
210
0
220
0
230
1
100
AcDbAlignedDimension
13
0
23
-3000
33
0
14
3.61663606778e-14
24
-2409.339
34
0
50
90
100
AcDbRotatedDimension
0
DIMENSION
5
2CD
100
AcDbEntity
8
dimensions
6
ByLayer
62
256
370
-1
100
AcDbDimension
2
*D31
10
-100
20
-1506.115
30
0
11
-109.375
21
-1957.727
31
0
70
32
71
5
3
Standard
53
0
210
0
220
0
230
1
100
AcDbAlignedDimension
13
3.61663606778e-14
23
-2409.339
33
0
14
9.1471053144e-14
24
-1506.115
34
0
50
90
100
AcDbRotatedDimension
0
DIMENSION
5
2CE
100
AcDbEntity
8
dimensions
6
ByLayer
62
256
370
-1
100
AcDbDimension
2
*D32
10
-100
20
-1342.746
30
0
11
-109.375
21
-1424.4305
31
0
70
32
71
5
3
Standard
53
0
210
0
220
0
230
1
100
AcDbAlignedDimension
13
9.1471053144e-14
23
-1506.115
33
0
14
1.01474188915e-13
24
-1342.746
34
0
50
90
100
AcDbRotatedDimension
0
DIMENSION
5
2CF
100
AcDbEntity
8
dimensions
6
ByLayer
62
256
370
-1
100
AcDbDimension
2
*D33
10
-100
20
-1215.257
30
0
11
-109.375
21
-1279.0015
31
0
70
32
71
5
3
Standard
53
0
210
0
220
0
230
1
100
AcDbAlignedDimension
13
1.01474188915e-13
23
-1342.746
33
0
14
1.09280380887e-13
24
-1215.257
34
0
50
90
100
AcDbRotatedDimension
0
DIMENSION
5
2D0
100
AcDbEntity
8
dimensions
6
ByLayer
62
256
370
-1
100
AcDbDimension
2
*D34
10
-100
20
-1006.803
30
0
11
-109.375
21
-1111.03
31
0
70
32
71
5
3
Standard
53
0
210
0
220
0
230
1
100
AcDbAlignedDimension
13
1.09280380887e-13
23
-1215.257
33
0
14
1.22044085531e-13
24
-1006.803
34
0
50
90
100
AcDbRotatedDimension
0
DIMENSION
5
2D1
100
AcDbEntity
8
dimensions
6
ByLayer
62
256
370
-1
100
AcDbDimension
2
*D35
10
-100
20
-935.2896
30
0
11
-109.375
21
-971.0463
31
0
70
32
71
5
3
Standard
53
0
210
0
220
0
230
1
100
AcDbAlignedDimension
13
1.22044085531e-13
23
-1006.803
33
0
14
1.26422873732e-13
24
-935.2896
34
0
50
90
100
AcDbRotatedDimension
0
DIMENSION
5
2D2
100
AcDbEntity
8
dimensions
6
ByLayer
62
256
370
-1
100
AcDbDimension
2
*D36
10
584.2
20
-3700
30
0
11
292.1
21
-3690.625
31
0
70
32
71
5
3
Standard
53
0
210
0
220
0
230
1
100
AcDbAlignedDimension
13
-3.73902934981e-14
23
-3610.65
33
0
14
584.2
24
-3610.65
34
0
100
AcDbRotatedDimension
0
LINE
5
2D3
100
AcDbEntity
8
construction
6
ByLayer
62
256
370
-1
100
AcDbLine
10
1569.214
20
1759.458
11
1566.63879861
21
1771.56144651
0
LINE
5
2D4
100
AcDbEntity
8
construction
6
ByLayer
62
256
370
-1
100
AcDbLine
10
1569.214
20
1759.458
11
1599.61190402
21
1770.60389814
0
DIMENSION
5
2D5
100
AcDbEntity
8
dimensions
6
ByLayer
62
256
370
-1
100
AcDbDimension
2
*D37
10
1577.96791926
20
1829.63294747
30
0
11
1559.54157992
21
1832.86196386
31
0
70
33
71
5
3
Standard
53
0
210
0
220
0
230
1
100
AcDbAlignedDimension
13
1569.214
23
1759.458
33
0
14
1599.61190402
24
1770.60389814
34
0
0
DIMENSION
5
2D6
100
AcDbEntity
8
dimensions
6
ByLayer
62
256
370
-1
100
AcDbDimension
2
*D38
10
1664.73961346
20
1779.78259861
30
0
11
1672.62175585
21
1787.78533103
31
0
70
33
71
5
3
Standard
53
0
210
0
220
0
230
1
100
AcDbAlignedDimension
13
1566.63879861
23
1771.56144651
33
0
14
1569.214
24
1759.458
34
0
0
LINE
5
2D7
100
AcDbEntity
8
wood_inner
6
ByLayer
62
256
370
-1
100
AcDbLine
10
1628.16755805
20
1602.21198131
11
1634.0894354
21
1585.214
0
LINE
5
2D8
100
AcDbEntity
8
construction
6
ByLayer
62
256
370
-1
100
AcDbLine
10
1634.0894354
20
1585.214
11
1663.61821908
21
1596.04122068
0
LINE
5
2D9
100
AcDbEntity
8
construction
6
ByLayer
62
256
370
-1
100
AcDbLine
10
1641.14422053
20
1572.86812602
11
1634.0894354
21
1585.214
0
DIMENSION
5
2DA
100
AcDbEntity
8
dimensions
6
ByLayer
62
256
370
-1
100
AcDbDimension
2
*D39
10
1749.17082732
20
1634.59761561
30
0
11
1753.78321421
21
1645.42185515
31
0
70
33
71
5
3
Standard
53
0
210
0
220
0
230
1
100
AcDbAlignedDimension
13
1634.0894354
23
1585.214
33
0
14
1641.14422053
24
1572.86812602
34
0
0
DIMENSION
5
2DB
100
AcDbEntity
8
dimensions
6
ByLayer
62
256
370
-1
100
AcDbDimension
2
*D40
10
1693.13163841
20
1515.55007706
30
0
11
1675.13985923
21
1518.93843218
31
0
70
33
71
5
3
Standard
53
0
210
0
220
0
230
1
100
AcDbAlignedDimension
13
1634.0894354
23
1585.214
33
0
14
1663.61821908
24
1596.04122068
34
0
0
DIMENSION
5
2DC
100
AcDbEntity
8
dimensions
6
ByLayer
62
256
370
-1
100
AcDbDimension
2
*D41
10
945.068807619
20
1619.25
30
0
11
935.693807619
21
1635.125
31
0
70
32
71
5
3
Standard
53
0
210
0
220
0
230
1
100
AcDbAlignedDimension
13
1000
23
1651
33
0
14
1000
24
1619.25
34
0
50
90
100
AcDbRotatedDimension
0
DIMENSION
5
2DD
100
AcDbEntity
8
dimensions
6
ByLayer
62
256
370
-1
100
AcDbDimension
2
*D42
10
1610.65
20
-100
30
0
11
1305.325
21
-90.625
31
0
70
32
71
5
3
Standard
53
0
210
0
220
0
230
1
100
AcDbAlignedDimension
13
1000
23
0
33
0
14
1610.65
24
6.87004164494e-15
34
0
100
AcDbRotatedDimension
0
DIMENSION
5
2DE
100
AcDbEntity
8
dimensions
6
ByLayer
62
256
370
-1
100
AcDbDimension
2
*D43
10
1628.65
20
-100
30
0
11
1619.65
21
-90.625
31
0
70
32
71
5
3
Standard
53
0
210
0
220
0
230
1
100
AcDbAlignedDimension
13
1610.65
23
6.87004164494e-15
33
0
14
1628.65
24
4.66575020806e-15
34
0
100
AcDbRotatedDimension
0
DIMENSION
5
2DF
100
AcDbEntity
8
dimensions
6
ByLayer
62
256
370
-1
100
AcDbDimension
2
*D44
10
1647.7
20
-100
30
0
11
1638.175
21
-90.625
31
0
70
32
71
5
3
Standard
53
0
210
0
220
0
230
1
100
AcDbAlignedDimension
13
1628.65
23
4.66575020806e-15
33
0
14
1647.7
24
0
34
0
100
AcDbRotatedDimension
0
LINE
5
2E0
100
AcDbEntity
8
construction
6
ByLayer
62
256
370
-1
100
AcDbLine
10
1727.202
20
919.48
11
1718.1634354
21
919.48
0
LINE
5
2E1
100
AcDbEntity
8
construction
6
ByLayer
62
256
370
-1
100
AcDbLine
10
1697.484
20
1061.974
11
1696.5418178
21
1055.83192613
0
DIMENSION
5
2E2
100
AcDbEntity
8
dimensions
6
ByLayer
62
256
370
-1
100
AcDbDimension
2
*D45
10
1727.202
20
798.931767821
30
0
11
1722.6827177
21
808.306767821
31
0
70
33
71
5
3
Standard
53
0
210
0
220
0
230
1
100
AcDbAlignedDimension
13
1718.1634354
23
919.48
33
0
14
1727.202
24
919.48
34
0
0
DIMENSION
5
2E3
100
AcDbEntity
8
dimensions
6
ByLayer
62
256
370
-1
100
AcDbDimension
2
*D46
10
1782.03546813
20
1042.71736618
30
0
11
1773.23995141
21
1047.20988276
31
0
70
33
71
5
3
Standard
53
0
210
0
220
0
230
1
100
AcDbAlignedDimension
13
1697.484
23
1061.974
33
0
14
1696.5418178
24
1055.83192613
34
0
0
LINE
5
2E4
100
AcDbEntity
8
construction
6
ByLayer
62
256
370
-1
100
AcDbLine
10
1401.05289677
20
1699.49877603
11
1549.14171426
21
1061.15005083
0
LINE
5
2E5
100
AcDbEntity
8
construction
6
ByLayer
62
256
370
-1
100
AcDbLine
10
1641.14422053
20
1572.86812602
11
1442.76005776
21
1459.50574729
0
DIMENSION
5
2E6
100
AcDbEntity
8
dimensions
6
ByLayer
62
256
370
-1
100
AcDbDimension
2
*D47
10
1420.75998423
20
1578.0735618
30
0
11
1422.43978249
21
1588.10852481
31
0
70
33
71
5
3
Standard
53
0
210
0
220
0
230
1
100
AcDbAlignedDimension
13
1443.1494983
23
1518.03799879
33
0
14
1435.45624521
24
1516.21038405
34
0
0
LINE
5
2E7
100
AcDbEntity
8
construction
6
ByLayer
62
256
370
-1
100
AcDbLine
10
1437.2394354
20
1516.634
11
1463.2074513
21
1471.18997217
0
DIMENSION
5
2E8
100
AcDbEntity
8
dimensions
6
ByLayer
62
256
370
-1
100
AcDbDimension
2
*D48
10
1384.2768326
20
1426.08676148
30
0
11
1379.4326041
21
1453.46007794
31
0
70
33
71
5
3
Standard
53
0
210
0
220
0
230
1
100
AcDbAlignedDimension
13
1437.2394354
23
1516.634
33
0
14
1463.2074513
24
1471.18997217
34
0
0
LINE
5
2E9
100
AcDbEntity
8
construction
6
ByLayer
62
256
370
-1
100
AcDbLine
10
1030.65394089
20
-31.3009726859
11
1000
21
18
0
LINE
5
2EA
100
AcDbEntity
8
construction
6
ByLayer
62
256
370
-1
100
AcDbLine
10
1000
20
0
11
1025.4
21
0
0
LINE
5
2EB
100
AcDbEntity
8
construction
6
ByLayer
62
256
370
-1
100
AcDbLine
10
1000
20
0
11
1000
21
25.4
0
LINE
5
2EC
100
AcDbEntity
8
construction
6
ByLayer
62
256
370
-1
100
AcDbLine
10
1000
20
25.4
11
1025.4
21
25.4
0
LINE
5
2ED
100
AcDbEntity
8
construction
6
ByLayer
62
256
370
-1
100
AcDbLine
10
1025.4
20
0
11
1025.4
21
25.4
0
ARC
5
2EE
100
AcDbEntity
8
construction
6
ByLayer
62
256
370
-1
100
AcDbCircle
10
1025.4
20
25.4
40
25.4
100
AcDbArc
50
180.000022881
51
179.999977119
0
LINE
5
2EF
100
AcDbEntity
8
construction
6
ByLayer
62
256
370
-1
100
AcDbLine
10
1027.29345909
20
-24.4131513297
11
1000
21
50
0
DIMENSION
5
2F0
100
AcDbEntity
8
dimensions
6
ByLayer
62
256
370
-1
100
AcDbDimension
2
*D49
10
1731.31355174
20
50
30
0
11
1721.93855174
21
25
31
0
70
32
71
5
3
Standard
53
0
210
0
220
0
230
1
100
AcDbAlignedDimension
13
1610.65
23
6.87004164494e-15
33
0
14
1610.65
24
50
34
0
50
90
100
AcDbRotatedDimension
0
ENDSEC
0
SECTION
2
OBJECTS
0
DICTIONARY
5
C
330
0
100
AcDbDictionary
281
1
3
ACAD_GROUP
350
D
3
ACAD_IMAGE_DICT
350
2F1
0
DICTIONARY
5
D
330
C
100
AcDbDictionary
281
1
0
IMAGEDEF_REACTOR
5
208
330
209
100
AcDbRasterImageDefReactor
90
2
330
209
0
DICTIONARY
5
2F1
330
C
100
AcDbDictionary
281
1
3
Moon Patrol-bezel-print
350
207
0
IMAGEDEF
5
207
102
{ACAD_REACTORS
330
208
102
}
100
AcDbRasterImageDef
90
0
1
/home/dan/arcade/cab/moonpatrol/art/Moon Patrol-bezel-print.jpg
10
1656
20
1601
11
1
21
1
280
1
281
0
0
ENDSEC
0
EOF
