999
dxfrw 0.5.11
0
SECTION
2
HEADER
9
$ACADVER
1
AC1021
9
$HANDSEED
5
20000
9
$DWGCODEPAGE
3
ANSI_1252
9
$INSBASE
10
0
20
0
30
0
9
$EXTMIN
10
0
20
-4.40858287376e-15
30
0
9
$EXTMAX
10
3000
20
1779.27
30
0
9
$LIMMIN
10
0
20
0
9
$LIMMAX
10
420
20
297
9
$ORTHOMODE
70
0
9
$LTSCALE
40
1
9
$TEXTSTYLE
7
STANDARD
9
$CLAYER
8
wood
9
$DIMASZ
40
2.5
9
$DIMLFAC
40
1
9
$DIMSCALE
40
2
9
$DIMEXO
40
0.625
9
$DIMEXE
40
1.25
9
$DIMTXT
40
2.5
9
$DIMTSZ
40
0
9
$DIMAUNIT
70
0
9
$DIMADEC
70
2
9
$DIMLUNIT
70
2
9
$DIMSTYLE
2
Standard
9
$DIMGAP
40
0.625
9
$DIMTIH
70
0
9
$LUNITS
70
2
9
$LUPREC
70
4
9
$AUNITS
70
0
9
$AUPREC
70
2
9
$SPLINESEGS
70
8
9
$GRIDMODE
70
1
9
$SNAPSTYLE
70
0
9
$GRIDUNIT
10
0
20
0
9
$PINSBASE
10
0
20
0
30
0
9
$PLIMMIN
10
0
20
0
9
$PLIMMAX
10
210
20
297
9
$INSUNITS
70
4
9
$PSVPSCALE
40
1
0
ENDSEC
0
SECTION
2
CLASSES
0
ENDSEC
0
SECTION
2
TABLES
0
TABLE
2
VPORT
5
8
330
0
100
AcDbSymbolTable
70
1
0
VPORT
5
31
330
2
100
AcDbSymbolTableRecord
100
AcDbViewportTableRecord
2
*ACTIVE
70
0
10
0
20
0
11
1
21
1
12
2251.57898799
22
1014.04671505
13
0
23
0
14
10
24
10
15
10
25
10
16
0
26
0
36
1
17
0
27
0
37
0
40
2280.46487643
41
2.14666666667
42
50
43
0
44
0
50
0
51
0
71
0
72
100
73
1
74
3
75
0
76
1
77
0
78
0
281
0
65
1
110
0
120
0
130
0
111
1
121
0
131
0
112
0
122
1
132
0
79
0
146
0
348
10020
60
7
61
5
292
1
282
1
141
0
142
0
63
250
421
3358443
0
ENDTAB
0
TABLE
2
LTYPE
5
5
330
0
100
AcDbSymbolTable
70
4
0
LTYPE
5
14
330
5
100
AcDbSymbolTableRecord
100
AcDbLinetypeTableRecord
2
ByBlock
70
0
3

72
65
73
0
40
0
0
LTYPE
5
15
330
5
100
AcDbSymbolTableRecord
100
AcDbLinetypeTableRecord
2
ByLayer
70
0
3

72
65
73
0
40
0
0
LTYPE
5
16
330
5
100
AcDbSymbolTableRecord
100
AcDbLinetypeTableRecord
2
Continuous
70
0
3
Solid line
72
65
73
0
40
0
0
LTYPE
5
32
330
5
100
AcDbSymbolTableRecord
100
AcDbLinetypeTableRecord
2
DOT
70
0
3
Dot . . . . . . . . . . . . . . . . . . . . . .
72
65
73
2
40
6.35
49
0
74
0
49
-6.35
74
0
0
LTYPE
5
33
330
5
100
AcDbSymbolTableRecord
100
AcDbLinetypeTableRecord
2
DOT2
70
0
3
Dot (.5x) .....................................
72
65
73
2
40
3.175
49
0
74
0
49
-3.175
74
0
0
LTYPE
5
34
330
5
100
AcDbSymbolTableRecord
100
AcDbLinetypeTableRecord
2
DOTX2
70
0
3
Dot (2x) .  .  .  .  .  .  .  .  .  .  .  .  .
72
65
73
2
40
12.7
49
0
74
0
49
-12.7
74
0
0
LTYPE
5
35
330
5
100
AcDbSymbolTableRecord
100
AcDbLinetypeTableRecord
2
DASHED
70
0
3
Dot . . . . . . . . . . . . . . . . . . . . . .
72
65
73
2
40
19.05
49
12.7
74
0
49
-6.35
74
0
0
LTYPE
5
36
330
5
100
AcDbSymbolTableRecord
100
AcDbLinetypeTableRecord
2
DASHED2
70
0
3
Dashed (.5x) _ _ _ _ _ _ _ _ _ _ _ _ _ _ _ _ _
72
65
73
2
40
9.525
49
6.35
74
0
49
-3.175
74
0
0
LTYPE
5
37
330
5
100
AcDbSymbolTableRecord
100
AcDbLinetypeTableRecord
2
DASHEDX2
70
0
3
Dashed (2x) ____  ____  ____  ____  ____  ___
72
65
73
2
40
38.1
49
25.4
74
0
49
-12.7
74
0
0
LTYPE
5
38
330
5
100
AcDbSymbolTableRecord
100
AcDbLinetypeTableRecord
2
DASHDOT
70
0
3
Dash dot __ . __ . __ . __ . __ . __ . __ . __
72
65
73
4
40
25.4
49
12.7
74
0
49
-6.35
74
0
49
0
74
0
49
-6.35
74
0
0
LTYPE
5
39
330
5
100
AcDbSymbolTableRecord
100
AcDbLinetypeTableRecord
2
DASHDOT2
70
0
3
Dash dot (.5x) _._._._._._._._._._._._._._._.
72
65
73
4
40
12.7
49
6.35
74
0
49
-3.175
74
0
49
0
74
0
49
-3.175
74
0
0
LTYPE
5
3A
330
5
100
AcDbSymbolTableRecord
100
AcDbLinetypeTableRecord
2
DASHDOTX2
70
0
3
Dash dot (2x) ____  .  ____  .  ____  .  ___
72
65
73
4
40
50.8
49
25.4
74
0
49
-12.7
74
0
49
0
74
0
49
-12.7
74
0
0
LTYPE
5
3B
330
5
100
AcDbSymbolTableRecord
100
AcDbLinetypeTableRecord
2
DIVIDE
70
0
3
Divide ____ . . ____ . . ____ . . ____ . . ____
72
65
73
6
40
31.75
49
12.7
74
0
49
-6.35
74
0
49
0
74
0
49
-6.35
74
0
49
0
74
0
49
-6.35
74
0
0
LTYPE
5
3C
330
5
100
AcDbSymbolTableRecord
100
AcDbLinetypeTableRecord
2
DIVIDE2
70
0
3
Divide (.5x) __..__..__..__..__..__..__..__.._
72
65
73
6
40
15.875
49
6.35
74
0
49
-3.175
74
0
49
0
74
0
49
-3.175
74
0
49
0
74
0
49
-3.175
74
0
0
LTYPE
5
3D
330
5
100
AcDbSymbolTableRecord
100
AcDbLinetypeTableRecord
2
DIVIDEX2
70
0
3
Divide (2x) ________  .  .  ________  .  .  _
72
65
73
6
40
63.5
49
25.4
74
0
49
-12.7
74
0
49
0
74
0
49
-12.7
74
0
49
0
74
0
49
-12.7
74
0
0
LTYPE
5
3E
330
5
100
AcDbSymbolTableRecord
100
AcDbLinetypeTableRecord
2
BORDER
70
0
3
Border __ __ . __ __ . __ __ . __ __ . __ __ .
72
65
73
6
40
44.45
49
12.7
74
0
49
-6.35
74
0
49
12.7
74
0
49
-6.35
74
0
49
0
74
0
49
-6.35
74
0
0
LTYPE
5
3F
330
5
100
AcDbSymbolTableRecord
100
AcDbLinetypeTableRecord
2
BORDER2
70
0
3
Border (.5x) __.__.__.__.__.__.__.__.__.__.__.
72
65
73
6
40
22.225
49
6.35
74
0
49
-3.175
74
0
49
6.35
74
0
49
-3.175
74
0
49
0
74
0
49
-3.175
74
0
0
LTYPE
5
40
330
5
100
AcDbSymbolTableRecord
100
AcDbLinetypeTableRecord
2
BORDERX2
70
0
3
Border (2x) ____  ____  .  ____  ____  .  ___
72
65
73
6
40
88.9
49
25.4
74
0
49
-12.7
74
0
49
25.4
74
0
49
-12.7
74
0
49
0
74
0
49
-12.7
74
0
0
LTYPE
5
41
330
5
100
AcDbSymbolTableRecord
100
AcDbLinetypeTableRecord
2
CENTER
70
0
3
Center ____ _ ____ _ ____ _ ____ _ ____ _ ____
72
65
73
4
40
50.8
49
31.75
74
0
49
-6.35
74
0
49
6.35
74
0
49
-6.35
74
0
0
LTYPE
5
42
330
5
100
AcDbSymbolTableRecord
100
AcDbLinetypeTableRecord
2
CENTER2
70
0
3
Center (.5x) ___ _ ___ _ ___ _ ___ _ ___ _ ___
72
65
73
4
40
28.575
49
19.05
74
0
49
-3.175
74
0
49
3.175
74
0
49
-3.175
74
0
0
LTYPE
5
43
330
5
100
AcDbSymbolTableRecord
100
AcDbLinetypeTableRecord
2
CENTERX2
70
0
3
Center (2x) ________  __  ________  __  _____
72
65
73
4
40
101.6
49
63.5
74
0
49
-12.7
74
0
49
12.7
74
0
49
-12.7
74
0
0
ENDTAB
0
TABLE
2
LAYER
5
2
330
0
100
AcDbSymbolTable
70
1
0
LAYER
5
10
330
2
100
AcDbSymbolTableRecord
100
AcDbLayerTableRecord
2
0
70
0
62
7
6
CONTINUOUS
370
0
390
F
0
LAYER
5
44
330
2
100
AcDbSymbolTableRecord
100
AcDbLayerTableRecord
2
construction
70
0
62
3
6
CONTINUOUS
370
13
390
F
0
LAYER
5
45
330
2
100
AcDbSymbolTableRecord
100
AcDbLayerTableRecord
2
curves_inner
70
0
62
96
420
32768
6
CONTINUOUS
370
25
390
F
0
LAYER
5
46
330
2
100
AcDbSymbolTableRecord
100
AcDbLayerTableRecord
2
curves_outer
70
0
62
96
420
32768
6
CONTINUOUS
370
25
390
F
0
LAYER
5
47
330
2
100
AcDbSymbolTableRecord
100
AcDbLayerTableRecord
2
dimensions
70
0
62
6
6
CONTINUOUS
370
18
390
F
0
LAYER
5
48
330
2
100
AcDbSymbolTableRecord
100
AcDbLayerTableRecord
2
glass
70
0
62
176
420
128
6
CONTINUOUS
370
13
390
F
0
LAYER
5
49
330
2
100
AcDbSymbolTableRecord
100
AcDbLayerTableRecord
2
wood
70
0
62
7
6
CONTINUOUS
370
25
390
F
0
LAYER
5
4A
330
2
100
AcDbSymbolTableRecord
100
AcDbLayerTableRecord
2
wood_inner
70
0
62
4
6
CONTINUOUS
370
25
390
F
0
ENDTAB
0
TABLE
2
STYLE
5
3
330
0
100
AcDbSymbolTable
70
3
0
STYLE
5
4B
330
2
100
AcDbSymbolTableRecord
100
AcDbTextStyleTableRecord
2
Standard
70
0
40
0
41
1
50
0
71
0
42
1
3
txt
4

0
ENDTAB
0
TABLE
2
VIEW
5
6
330
0
100
AcDbSymbolTable
70
0
0
ENDTAB
0
TABLE
2
UCS
5
7
330
0
100
AcDbSymbolTable
70
0
0
ENDTAB
0
TABLE
2
APPID
5
9
330
0
100
AcDbSymbolTable
70
1
0
APPID
5
12
330
9
100
AcDbSymbolTableRecord
100
AcDbRegAppTableRecord
2
ACAD
70
0
0
ENDTAB
0
TABLE
2
DIMSTYLE
5
A
330
0
100
AcDbSymbolTable
70
1
100
AcDbDimStyleTable
71
1
0
DIMSTYLE
105
4C
330
A
100
AcDbSymbolTableRecord
100
AcDbDimStyleTableRecord
2
Standard
70
0
40
1
41
2.5
42
0.625
43
0.38
44
1.25
45
0
46
0
47
0
48
0
140
2.5
141
0.09
142
0
143
25.4
144
1
145
0
146
1
147
0.625
148
0
71
0
72
0
73
0
74
1
75
0
76
0
77
0
78
0
79
0
170
0
171
2
172
0
173
0
174
0
175
0
176
0
177
0
178
0
179
0
271
4
272
4
273
2
274
2
275
0
276
0
277
2
278
46
279
0
280
0
281
0
282
0
283
1
284
0
285
0
286
0
288
0
289
3
340
Standard
341

371
-2
372
-2
0
ENDTAB
0
TABLE
2
BLOCK_RECORD
5
1
330
0
100
AcDbSymbolTable
70
2
0
BLOCK_RECORD
5
1F
330
1
100
AcDbSymbolTableRecord
100
AcDbBlockTableRecord
2
*Model_Space
70
0
280
1
281
0
0
BLOCK_RECORD
5
1E
330
1
100
AcDbSymbolTableRecord
100
AcDbBlockTableRecord
2
*Paper_Space
70
0
280
1
281
0
0
ENDTAB
0
ENDSEC
0
SECTION
2
BLOCKS
0
BLOCK
5
20
330
1F
100
AcDbEntity
8
0
100
AcDbBlockBegin
2
*Model_Space
70
0
10
0
20
0
30
0
3
*Model_Space
1

0
ENDBLK
5
21
330
1F
100
AcDbEntity
8
0
100
AcDbBlockEnd
0
BLOCK
5
1C
330
1B
100
AcDbEntity
8
0
100
AcDbBlockBegin
2
*Paper_Space
70
0
10
0
20
0
30
0
3
*Paper_Space
1

0
ENDBLK
5
1D
330
1F
100
AcDbEntity
8
0
100
AcDbBlockEnd
0
ENDSEC
0
SECTION
2
ENTITIES
0
IMAGE
5
4F
100
AcDbEntity
8
glass
6
ByLayer
62
256
370
-1
100
AcDbRasterImage
10
1549.74145778
20
1034.27999622
30
0
11
0.343556982748
21
0.0801296455683
31
0
12
-0.0801296455683
22
0.343556982748
32
0
13
1656
23
1404
340
4D
70
1
280
0
281
50
282
50
283
0
360
4E
0
LINE
5
50
100
AcDbEntity
8
wood
6
ByLayer
62
256
370
-1
100
AcDbLine
10
0
20
0
11
1.011e-13
21
1651
0
LINE
5
51
100
AcDbEntity
8
wood
6
ByLayer
62
256
370
-1
100
AcDbLine
10
0
20
0
11
647.7
21
0
0
LINE
5
52
100
AcDbEntity
8
wood
6
ByLayer
62
256
370
-1
100
AcDbLine
10
1.011e-13
20
1651
11
596.9
21
1778
0
LINE
5
53
100
AcDbEntity
8
wood
6
ByLayer
62
256
370
-1
100
AcDbLine
10
596.9
20
1778
11
666.75
21
1587.5
0
LINE
5
54
100
AcDbEntity
8
wood
6
ByLayer
62
256
370
-1
100
AcDbLine
10
488.95
20
1485.9
11
666.75
21
1587.5
0
LINE
5
55
100
AcDbEntity
8
wood
6
ByLayer
62
256
370
-1
100
AcDbLine
10
463.55
20
1430.1
11
537.972
21
1109.298
0
LINE
5
56
100
AcDbEntity
8
wood
6
ByLayer
62
256
370
-1
100
AcDbLine
10
647.7
20
0
11
647.7
21
713.74
0
LINE
5
57
100
AcDbEntity
8
wood
6
ByLayer
62
256
370
-1
100
AcDbLine
10
654.812
20
745.49
11
720.09
21
887.73
0
LINE
5
58
100
AcDbEntity
8
wood
6
ByLayer
62
256
370
-1
100
AcDbLine
10
727.202
20
919.48
11
727.202
21
1027.43
0
LINE
5
59
100
AcDbEntity
8
wood
6
ByLayer
62
256
370
-1
100
AcDbLine
10
697.484
20
1061.974
11
566.674
21
1082.04
0
LINE
5
5A
100
AcDbEntity
8
wood
6
ByLayer
62
256
370
-1
100
AcDbLine
10
2000
20
0
11
2018
21
0
0
LINE
5
5B
100
AcDbEntity
8
wood
6
ByLayer
62
256
370
-1
100
AcDbLine
10
2018
20
0
11
2602.2
21
0
0
LINE
5
5C
100
AcDbEntity
8
wood
6
ByLayer
62
256
370
-1
100
AcDbLine
10
2602.2
20
0
11
2620.2
21
0
0
LINE
5
5D
100
AcDbEntity
8
wood
6
ByLayer
62
256
370
-1
100
AcDbLine
10
2018
20
0
11
2018
21
904.24
0
LINE
5
5E
100
AcDbEntity
8
wood
6
ByLayer
62
256
370
-1
100
AcDbLine
10
2602.2
20
0
11
2602.2
21
904.24
0
LINE
5
5F
100
AcDbEntity
8
wood
6
ByLayer
62
256
370
-1
100
AcDbLine
10
2018
20
904.24
11
2602.2
21
904.24
0
LINE
5
60
100
AcDbEntity
8
wood
6
ByLayer
62
256
370
-1
100
AcDbLine
10
2018
20
904.24
11
2018
21
1080.77
0
LINE
5
61
100
AcDbEntity
8
wood
6
ByLayer
62
256
370
-1
100
AcDbLine
10
2602.2
20
904.24
11
2602.2
21
1080.77
0
LINE
5
62
100
AcDbEntity
8
wood
6
ByLayer
62
256
370
-1
100
AcDbLine
10
2018
20
1080.77
11
2602.2
21
1080.77
0
LINE
5
63
100
AcDbEntity
8
wood
6
ByLayer
62
256
370
-1
100
AcDbLine
10
2018
20
1080.77
11
2018
21
1516.38
0
LINE
5
64
100
AcDbEntity
8
wood
6
ByLayer
62
256
370
-1
100
AcDbLine
10
2602.2
20
1080.77
11
2602.2
21
1516.38
0
LINE
5
65
100
AcDbEntity
8
wood
6
ByLayer
62
256
370
-1
100
AcDbLine
10
2018
20
1516.38
11
2018
21
1584.96
0
LINE
5
66
100
AcDbEntity
8
wood
6
ByLayer
62
256
370
-1
100
AcDbLine
10
2602.2
20
1516.38
11
2602.2
21
1584.96
0
LINE
5
67
100
AcDbEntity
8
wood
6
ByLayer
62
256
370
-1
100
AcDbLine
10
2018
20
1516.38
11
2602.2
21
1516.38
0
LINE
5
68
100
AcDbEntity
8
wood
6
ByLayer
62
256
370
-1
100
AcDbLine
10
2602.2
20
1516.38
11
2602.2
21
1584.96
0
LINE
5
69
100
AcDbEntity
8
wood
6
ByLayer
62
256
370
-1
100
AcDbLine
10
2602.2
20
1584.96
11
2018
21
1584.96
0
LINE
5
6A
100
AcDbEntity
8
wood
6
ByLayer
62
256
370
-1
100
AcDbLine
10
2018
20
1584.96
11
2018
21
1760.22
0
LINE
5
6B
100
AcDbEntity
8
wood
6
ByLayer
62
256
370
-1
100
AcDbLine
10
2602.2
20
1584.96
11
2602.2
21
1760.22
0
LINE
5
6C
100
AcDbEntity
8
wood
6
ByLayer
62
256
370
-1
100
AcDbLine
10
2018
20
1760.22
11
2602.2
21
1760.22
0
LINE
5
6D
100
AcDbEntity
8
wood
6
ByLayer
62
256
370
-1
100
AcDbLine
10
2018
20
1760.22
11
2018
21
1779.27
0
LINE
5
6E
100
AcDbEntity
8
wood
6
ByLayer
62
256
370
-1
100
AcDbLine
10
2602.2
20
1760.22
11
2602.2
21
1779.27
0
LINE
5
6F
100
AcDbEntity
8
wood
6
ByLayer
62
256
370
-1
100
AcDbLine
10
2000
20
0
11
2000
21
1778
0
LINE
5
70
100
AcDbEntity
8
wood
6
ByLayer
62
256
370
-1
100
AcDbLine
10
2620.2
20
0
11
2620.2
21
1778
0
LINE
5
71
100
AcDbEntity
8
wood
6
ByLayer
62
256
370
-1
100
AcDbLine
10
2000
20
1778
11
2018
21
1778
0
LINE
5
72
100
AcDbEntity
8
wood
6
ByLayer
62
256
370
-1
100
AcDbLine
10
2620.2
20
1778
11
2602.2
21
1778
0
LINE
5
73
100
AcDbEntity
8
construction
6
ByLayer
62
256
370
-1
100
AcDbLine
10
596.9
20
1778
11
3000
21
1778
0
ARC
5
74
100
AcDbEntity
8
curves_outer
6
ByLayer
62
256
370
-1
100
AcDbCircle
10
692.277
20
1027.43922347
40
34.925
100
AcDbArc
50
0
51
81.2789197931
0
ARC
5
75
100
AcDbEntity
8
curves_outer
6
ByLayer
62
256
370
-1
100
AcDbCircle
10
692.277
20
910.858367743
40
34.925
100
AcDbArc
50
335.348257541
51
0
0
ARC
5
76
100
AcDbEntity
8
curves_outer
6
ByLayer
62
256
370
-1
100
AcDbCircle
10
682.625
20
722.361632257
40
34.925
100
AcDbArc
50
155.348257541
51
180
0
ARC
5
77
100
AcDbEntity
8
curves_outer
6
ByLayer
62
256
370
-1
100
AcDbCircle
10
572.145786453
20
1116.5341588
40
34.925
100
AcDbArc
50
193.060862316
51
261.278919793
0
ARC
5
78
100
AcDbEntity
8
curves_outer
6
ByLayer
62
256
370
-1
100
AcDbCircle
10
494.988738923
20
1449.12580055
40
34.925
100
AcDbArc
50
119.744881297
51
193.060862316
0
ARC
5
79
100
AcDbEntity
8
curves_outer
6
ByLayer
62
256
370
-1
100
AcDbCircle
10
623.800985437
20
1603.18261337
40
34.925
100
AcDbArc
50
299.744881297
51
20.1363034282
0
ARC
5
7A
100
AcDbEntity
8
curves_outer
6
ByLayer
62
256
370
-1
100
AcDbCircle
10
574.538288717
20
1737.53542261
40
34.925
100
AcDbArc
50
20.1363034282
51
102.011478386
0
LINE
5
7B
100
AcDbEntity
8
wood
6
ByLayer
62
256
370
-1
100
AcDbLine
10
1000
20
0
11
1000
21
1651
0
LINE
5
7C
100
AcDbEntity
8
wood
6
ByLayer
62
256
370
-1
100
AcDbLine
10
1000
20
0
11
1647.7
21
0
0
LINE
5
7D
100
AcDbEntity
8
wood
6
ByLayer
62
256
370
-1
100
AcDbLine
10
1000
20
1651
11
1596.9
21
1778
0
LINE
5
7E
100
AcDbEntity
8
wood
6
ByLayer
62
256
370
-1
100
AcDbLine
10
1596.9
20
1778
11
1666.75
21
1587.5
0
LINE
5
7F
100
AcDbEntity
8
wood
6
ByLayer
62
256
370
-1
100
AcDbLine
10
1488.95
20
1485.9
11
1666.75
21
1587.5
0
LINE
5
80
100
AcDbEntity
8
wood
6
ByLayer
62
256
370
-1
100
AcDbLine
10
1463.55
20
1430.1
11
1537.972
21
1109.298
0
LINE
5
81
100
AcDbEntity
8
wood
6
ByLayer
62
256
370
-1
100
AcDbLine
10
1647.7
20
0
11
1647.7
21
713.74
0
LINE
5
82
100
AcDbEntity
8
wood
6
ByLayer
62
256
370
-1
100
AcDbLine
10
1654.812
20
745.49
11
1720.09
21
887.73
0
LINE
5
83
100
AcDbEntity
8
wood
6
ByLayer
62
256
370
-1
100
AcDbLine
10
1727.202
20
919.48
11
1727.202
21
1027.43
0
LINE
5
84
100
AcDbEntity
8
wood
6
ByLayer
62
256
370
-1
100
AcDbLine
10
1697.484
20
1061.974
11
1566.674
21
1082.04
0
LINE
5
85
100
AcDbEntity
8
wood_inner
6
ByLayer
62
256
370
-1
100
AcDbLine
10
1628.65
20
4.66575020806e-15
11
1628.65
21
903.224
0
LINE
5
86
100
AcDbEntity
8
wood_inner
6
ByLayer
62
256
370
-1
100
AcDbLine
10
1628.65
20
903.224
11
1718.1634354
21
903.224
0
LINE
5
87
100
AcDbEntity
8
wood_inner
6
ByLayer
62
256
370
-1
100
AcDbLine
10
1718.1634354
20
903.224
11
1718.1634354
21
1030.224
0
LINE
5
88
100
AcDbEntity
8
wood_inner
6
ByLayer
62
256
370
-1
100
AcDbLine
10
1538.8394354
20
1081.024
11
1697.8434354
21
1055.624
0
LINE
5
89
100
AcDbEntity
8
wood_inner
6
ByLayer
62
256
370
-1
100
AcDbLine
10
1437.2394354
20
1516.634
11
1538.8394354
21
1081.024
0
LINE
5
8A
100
AcDbEntity
8
wood_inner
6
ByLayer
62
256
370
-1
100
AcDbLine
10
1437.2394354
20
1516.634
11
1634.0894354
21
1585.214
0
LINE
5
8B
100
AcDbEntity
8
wood_inner
6
ByLayer
62
256
370
-1
100
AcDbLine
10
1000
20
1619.25
11
1569.214
21
1759.458
0
ARC
5
8C
100
AcDbEntity
8
curves_inner
6
ByLayer
62
256
370
-1
100
AcDbCircle
10
1692.7634354
20
1030.71346103
40
25.4
100
AcDbArc
50
0
51
80.9240024009
0
ARC
5
8D
100
AcDbEntity
8
curves_outer
6
ByLayer
62
256
370
-1
100
AcDbCircle
10
1574.53911755
20
1737.54
40
34.925
100
AcDbArc
50
20.1363
51
102.011
0
ARC
5
8E
100
AcDbEntity
8
curves_outer
6
ByLayer
62
256
370
-1
100
AcDbCircle
10
1623.79911755
20
1603.18
40
34.925
100
AcDbArc
50
299.745
51
20.1363
0
ARC
5
8F
100
AcDbEntity
8
curves_outer
6
ByLayer
62
256
370
-1
100
AcDbCircle
10
1494.98911755
20
1449.13
40
34.925
100
AcDbArc
50
119.745
51
193.061
0
ARC
5
90
100
AcDbEntity
8
curves_outer
6
ByLayer
62
256
370
-1
100
AcDbCircle
10
1572.14911755
20
1116.53
40
34.925
100
AcDbArc
50
193.061
51
261.279
0
ARC
5
91
100
AcDbEntity
8
curves_outer
6
ByLayer
62
256
370
-1
100
AcDbCircle
10
1692.27911755
20
1027.44
40
34.925
100
AcDbArc
50
0
51
81.2789
0
ARC
5
92
100
AcDbEntity
8
curves_outer
6
ByLayer
62
256
370
-1
100
AcDbCircle
10
1692.27911755
20
910.858
40
34.925
100
AcDbArc
50
335.348
51
0
0
ARC
5
93
100
AcDbEntity
8
curves_outer
6
ByLayer
62
256
370
-1
100
AcDbCircle
10
1682.62911755
20
722.362
40
34.925
100
AcDbArc
50
155.348
51
180
0
LINE
5
94
100
AcDbEntity
8
wood_inner
6
ByLayer
62
256
370
-1
100
AcDbLine
10
1431.31755805
20
1533.63198131
11
1628.16755805
21
1602.21198131
0
LINE
5
95
100
AcDbEntity
8
wood_inner
6
ByLayer
62
256
370
-1
100
AcDbLine
10
1536.00003611
20
1063.24936044
11
1695.00403611
21
1037.84936044
0
LINE
5
96
100
AcDbEntity
8
wood_inner
6
ByLayer
62
256
370
-1
100
AcDbLine
10
1700.1634354
20
903.224
11
1700.1634354
21
1030.224
0
LINE
5
97
100
AcDbEntity
8
wood_inner
6
ByLayer
62
256
370
-1
100
AcDbLine
10
1018
20
-4.40858287376e-15
11
1018
21
1605.14571979
0
LINE
5
98
100
AcDbEntity
8
wood_inner
6
ByLayer
62
256
370
-1
100
AcDbLine
10
1569.214
20
1759.458
11
1573.51905792
21
1741.98040073
0
LINE
5
99
100
AcDbEntity
8
wood_inner
6
ByLayer
62
256
370
-1
100
AcDbLine
10
1628.16755805
20
1602.21198131
11
1634.0894354
21
1585.214
0
LINE
5
9A
100
AcDbEntity
8
wood_inner
6
ByLayer
62
256
370
-1
100
AcDbLine
10
1431.31755805
20
1533.63198131
11
1437.2394354
21
1516.634
0
LINE
5
9B
100
AcDbEntity
8
wood_inner
6
ByLayer
62
256
370
-1
100
AcDbLine
10
1538.8394354
20
1081.024
11
1536.00003611
21
1063.24936044
0
LINE
5
9C
100
AcDbEntity
8
wood_inner
6
ByLayer
62
256
370
-1
100
AcDbLine
10
1700.1634354
20
1030.224
11
1718.1634354
21
1030.224
0
LINE
5
9D
100
AcDbEntity
8
wood_inner
6
ByLayer
62
256
370
-1
100
AcDbLine
10
1697.8434354
20
1055.624
11
1695.00403611
21
1037.84936044
0
LINE
5
9E
100
AcDbEntity
8
wood_inner
6
ByLayer
62
256
370
-1
100
AcDbLine
10
1628.65
20
903.224
11
1610.65
21
903.224
0
LINE
5
9F
100
AcDbEntity
8
wood_inner
6
ByLayer
62
256
370
-1
100
AcDbLine
10
1610.65
20
921.224
11
1700.1634354
21
921.224
0
LINE
5
A0
100
AcDbEntity
8
wood_inner
6
ByLayer
62
256
370
-1
100
AcDbLine
10
1610.65
20
6.87004164494e-15
11
1610.65
21
921.224
0
LINE
5
A1
100
AcDbEntity
8
wood_inner
6
ByLayer
62
256
370
-1
100
AcDbLine
10
1000
20
1600.71198486
11
1573.51905792
21
1741.98040073
0
LINE
5
A2
100
AcDbEntity
8
construction
6
ByLayer
62
256
370
-1
100
AcDbLine
10
1569.214
20
1759.458
11
3000
21
1759.458
0
LINE
5
A3
100
AcDbEntity
8
construction
6
ByLayer
62
256
370
-1
100
AcDbLine
10
1634.0894354
20
1585.214
11
3000
21
1585.214
0
LINE
5
A4
100
AcDbEntity
8
construction
6
ByLayer
62
256
370
-1
100
AcDbLine
10
1437.2394354
20
1516.634
11
3000
21
1516.634
0
LINE
5
A5
100
AcDbEntity
8
construction
6
ByLayer
62
256
370
-1
100
AcDbLine
10
1538.8394354
20
1081.024
11
3000
21
1081.024
0
LINE
5
A6
100
AcDbEntity
8
construction
6
ByLayer
62
256
370
-1
100
AcDbLine
10
1718.1634354
20
903.224
11
3000
21
903.224
0
LINE
5
A7
100
AcDbEntity
8
glass
6
ByLayer
62
256
370
-1
100
AcDbLine
10
1437.2394354
20
1516.634
11
2411.10158383
21
1743.77385969
0
LINE
5
A8
100
AcDbEntity
8
glass
6
ByLayer
62
256
370
-1
100
AcDbLine
10
1538.8394354
20
1081.024
11
2512.70158383
21
1308.16385969
0
CIRCLE
5
A9
100
AcDbEntity
8
glass
6
ByLayer
62
256
370
-1
100
AcDbCircle
10
1566.32544479
20
1210.86954778
40
22.0831137002
0
ENDSEC
0
SECTION
2
OBJECTS
0
DICTIONARY
5
C
330
0
100
AcDbDictionary
281
1
3
ACAD_GROUP
350
D
3
ACAD_IMAGE_DICT
350
AA
0
DICTIONARY
5
D
330
C
100
AcDbDictionary
281
1
0
IMAGEDEF_REACTOR
5
4E
330
4F
100
AcDbRasterImageDefReactor
90
2
330
4F
0
DICTIONARY
5
AA
330
C
100
AcDbDictionary
281
1
3
Moon Patrol-bezel-print-crop
350
4D
0
IMAGEDEF
5
4D
102
{ACAD_REACTORS
330
4E
102
}
100
AcDbRasterImageDef
90
0
1
/home/dan/arcade/cab/moonpatrol/art/Moon Patrol-bezel-print-crop.jpg
10
1656
20
1404
11
1
21
1
280
1
281
0
0
ENDSEC
0
EOF
